SourceSerif_c0.ufo
<glyph name="exclam" format="2">
	<unicode hex="0021"/>
	<advance width="248"/>
	<outline>
		<contour>
			<point x="124" y="-12" type="curve" smooth="yes"/>
			<point x="146" y="-12"/>
			<point x="160" y="2"/>
			<point x="160" y="24" type="curve" smooth="yes"/>
			<point x="160" y="46"/>
			<point x="146" y="60"/>
			<point x="124" y="60" type="curve" smooth="yes"/>
			<point x="102" y="60"/>
			<point x="88" y="46"/>
			<point x="88" y="24" type="curve" smooth="yes"/>
			<point x="88" y="2"/>
			<point x="102" y="-12"/>
		</contour>
		<contour>
			<point x="124" y="692" type="curve" smooth="yes"/>
			<point x="110" y="692"/>
			<point x="102" y="682"/>
			<point x="102" y="662" type="curve" smooth="yes"/>
			<point x="102" y="642"/>
			<point x="104" y="512"/>
			<point x="106" y="412" type="curve" smooth="yes"/>
			<point x="110" y="172" type="line"/>
			<point x="138" y="172" type="line"/>
			<point x="142" y="412" type="line" smooth="yes"/>
			<point x="144" y="512"/>
			<point x="146" y="642"/>
			<point x="146" y="662" type="curve" smooth="yes"/>
			<point x="146" y="682"/>
			<point x="138" y="692"/>
		</contour>
	</outline>
</glyph>
<glyph name="numbersign" format="2">
	<unicode hex="0023"/>
	<advance width="510"/>
	<outline>
		<contour>
			<point x="87" y="0" type="line"/>
			<point x="117" y="0" type="line"/>
			<point x="214" y="652" type="line"/>
			<point x="184" y="652" type="line"/>
		</contour>
		<contour>
			<point x="23" y="237" type="line"/>
			<point x="23" y="206" type="line"/>
			<point x="454" y="206" type="line"/>
			<point x="454" y="237" type="line"/>
		</contour>
		<contour>
			<point x="488" y="438" type="line"/>
			<point x="488" y="468" type="line"/>
			<point x="57" y="468" type="line"/>
			<point x="57" y="438" type="line"/>
		</contour>
		<contour>
			<point x="288" y="0" type="line"/>
			<point x="318" y="0" type="line"/>
			<point x="415" y="652" type="line"/>
			<point x="385" y="652" type="line"/>
		</contour>
	</outline>
</glyph>
<glyph name="dollar" format="2">
	<unicode hex="0024"/>
	<advance width="530"/>
	<outline>
		<contour>
			<point x="265" y="7" type="curve" smooth="yes"/>
			<point x="200" y="7"/>
			<point x="161" y="22"/>
			<point x="115" y="72" type="curve"/>
			<point x="151" y="24" type="line"/>
			<point x="123" y="124" type="line" smooth="yes"/>
			<point x="119" y="140"/>
			<point x="107" y="144"/>
			<point x="96" y="144" type="curve" smooth="yes"/>
			<point x="82" y="144"/>
			<point x="74" y="137"/>
			<point x="73" y="123" type="curve"/>
			<point x="97" y="38"/>
			<point x="158" y="-13"/>
			<point x="265" y="-13" type="curve" smooth="yes"/>
			<point x="356" y="-13"/>
			<point x="446" y="40"/>
			<point x="446" y="151" type="curve" smooth="yes"/>
			<point x="446" y="221"/>
			<point x="420" y="287"/>
			<point x="286" y="344" type="curve" smooth="yes"/>
			<point x="267" y="352" type="line" smooth="yes"/>
			<point x="174" y="391"/>
			<point x="132" y="440"/>
			<point x="132" y="508" type="curve" smooth="yes"/>
			<point x="132" y="599"/>
			<point x="192" y="647"/>
			<point x="280" y="647" type="curve" smooth="yes"/>
			<point x="336" y="647"/>
			<point x="371" y="633"/>
			<point x="415" y="583" type="curve"/>
			<point x="377" y="630" type="line"/>
			<point x="405" y="530" type="line" smooth="yes"/>
			<point x="411" y="515"/>
			<point x="421" y="510"/>
			<point x="432" y="510" type="curve" smooth="yes"/>
			<point x="446" y="510"/>
			<point x="454" y="517"/>
			<point x="455" y="531" type="curve"/>
			<point x="431" y="619"/>
			<point x="364" y="667"/>
			<point x="280" y="667" type="curve" smooth="yes"/>
			<point x="188" y="667"/>
			<point x="106" y="616"/>
			<point x="106" y="508" type="curve" smooth="yes"/>
			<point x="106" y="428"/>
			<point x="151" y="375"/>
			<point x="243" y="333" type="curve" smooth="yes"/>
			<point x="280" y="316" type="line" smooth="yes"/>
			<point x="394" y="264"/>
			<point x="420" y="218"/>
			<point x="420" y="153" type="curve" smooth="yes"/>
			<point x="420" y="61"/>
			<point x="355" y="7"/>
		</contour>
		<contour>
			<point x="283" y="334" type="line"/>
			<point x="283" y="762" type="line"/>
			<point x="261" y="762" type="line"/>
			<point x="261" y="334" type="line"/>
		</contour>
		<contour>
			<point x="261" y="-115" type="line"/>
			<point x="283" y="-115" type="line"/>
			<point x="283" y="334" type="line"/>
			<point x="261" y="334" type="line"/>
		</contour>
	</outline>
</glyph>
<glyph name="ampersand" format="2">
	<unicode hex="0026"/>
	<advance width="712"/>
	<outline>
		<contour>
			<point x="326" y="256" type="line"/>
			<point x="528" y="36" type="line" smooth="yes"/>
			<point x="558" y="4"/>
			<point x="578" y="-4"/>
			<point x="626" y="-4" type="curve" smooth="yes"/>
			<point x="644" y="-4"/>
			<point x="666" y="-2"/>
			<point x="680" y="0" type="curve"/>
			<point x="680" y="28" type="line"/>
			<point x="564" y="32" type="line"/>
			<point x="602" y="4" type="line"/>
			<point x="348" y="280" type="line"/>
			<point x="234" y="404" type="line" smooth="yes"/>
			<point x="190" y="452"/>
			<point x="154" y="508"/>
			<point x="154" y="560" type="curve" smooth="yes"/>
			<point x="154" y="624"/>
			<point x="196" y="664"/>
			<point x="262" y="664" type="curve" smooth="yes"/>
			<point x="328" y="664"/>
			<point x="366" y="624"/>
			<point x="366" y="564" type="curve" smooth="yes"/>
			<point x="366" y="504"/>
			<point x="320" y="448"/>
			<point x="232" y="392" type="curve"/>
			<point x="240" y="380" type="line"/>
			<point x="344" y="432"/>
			<point x="400" y="488"/>
			<point x="400" y="566" type="curve" smooth="yes"/>
			<point x="400" y="642"/>
			<point x="346" y="692"/>
			<point x="262" y="692" type="curve" smooth="yes"/>
			<point x="178" y="692"/>
			<point x="120" y="642"/>
			<point x="120" y="556" type="curve" smooth="yes"/>
			<point x="120" y="492"/>
			<point x="160" y="436"/>
			<point x="208" y="384" type="curve" smooth="yes"/>
		</contour>
		<contour>
			<point x="480" y="116" type="curve"/>
			<point x="492" y="104" type="line"/>
			<point x="564" y="200"/>
			<point x="596" y="272"/>
			<point x="602" y="420" type="curve"/>
			<point x="572" y="420" type="line"/>
			<point x="564" y="288"/>
			<point x="540" y="216"/>
		</contour>
		<contour>
			<point x="228" y="380" type="curve"/>
			<point x="220" y="392" type="line"/>
			<point x="116" y="340"/>
			<point x="52" y="280"/>
			<point x="52" y="172" type="curve" smooth="yes"/>
			<point x="52" y="68"/>
			<point x="136" y="-12"/>
			<point x="260" y="-12" type="curve" smooth="yes"/>
			<point x="364" y="-12"/>
			<point x="428" y="36"/>
			<point x="484" y="100" type="curve"/>
			<point x="472" y="112" type="line"/>
			<point x="412" y="60"/>
			<point x="348" y="16"/>
			<point x="264" y="16" type="curve" smooth="yes"/>
			<point x="156" y="16"/>
			<point x="88" y="88"/>
			<point x="88" y="176" type="curve" smooth="yes"/>
			<point x="88" y="264"/>
			<point x="140" y="324"/>
		</contour>
		<contour>
			<point x="589" y="390" type="line"/>
			<point x="680" y="390" type="line"/>
			<point x="680" y="420" type="line"/>
			<point x="472" y="420" type="line"/>
			<point x="472" y="390" type="line"/>
			<point x="580" y="390" type="line"/>
		</contour>
	</outline>
</glyph>
<glyph name="parenleft" format="2">
	<unicode hex="0028"/>
	<advance width="312"/>
	<outline>
		<contour>
			<point x="124" y="278" type="curve" smooth="yes"/>
			<point x="124" y="452"/>
			<point x="180" y="604"/>
			<point x="296" y="756" type="curve"/>
			<point x="276" y="772" type="line"/>
			<point x="156" y="620"/>
			<point x="92" y="468"/>
			<point x="92" y="278" type="curve" smooth="yes"/>
			<point x="92" y="88"/>
			<point x="156" y="-64"/>
			<point x="276" y="-216" type="curve"/>
			<point x="296" y="-200" type="line"/>
			<point x="180" y="-48"/>
			<point x="124" y="104"/>
		</contour>
	</outline>
</glyph>
<glyph name="asterisk" format="2">
	<unicode hex="002A"/>
	<advance width="444"/>
	<outline>
		<contour>
			<point x="222" y="760" type="curve" smooth="yes"/>
			<point x="208" y="760"/>
			<point x="198" y="752"/>
			<point x="198" y="732" type="curve" smooth="yes"/>
			<point x="198" y="712"/>
			<point x="202" y="680"/>
			<point x="210" y="620" type="curve" smooth="yes"/>
			<point x="218" y="556" type="line"/>
			<point x="150" y="588" type="line" smooth="yes"/>
			<point x="82" y="620"/>
			<point x="63" y="630"/>
			<point x="48" y="630" type="curve" smooth="yes"/>
			<point x="33" y="630"/>
			<point x="24" y="621"/>
			<point x="24" y="610" type="curve" smooth="yes"/>
			<point x="24" y="588"/>
			<point x="40" y="582"/>
			<point x="142" y="562" type="curve" smooth="yes"/>
			<point x="215" y="548" type="line"/>
			<point x="158" y="488" type="line" smooth="yes"/>
			<point x="102" y="430"/>
			<point x="90" y="419"/>
			<point x="90" y="404" type="curve" smooth="yes"/>
			<point x="90" y="392"/>
			<point x="99" y="384"/>
			<point x="111" y="384" type="curve" smooth="yes"/>
			<point x="130" y="384"/>
			<point x="139" y="397"/>
			<point x="182" y="472" type="curve" smooth="yes"/>
			<point x="222" y="542" type="line"/>
			<point x="262" y="472" type="line" smooth="yes"/>
			<point x="305" y="397"/>
			<point x="314" y="384"/>
			<point x="333" y="384" type="curve" smooth="yes"/>
			<point x="345" y="384"/>
			<point x="354" y="392"/>
			<point x="354" y="404" type="curve" smooth="yes"/>
			<point x="354" y="419"/>
			<point x="342" y="430"/>
			<point x="286" y="488" type="curve" smooth="yes"/>
			<point x="229" y="548" type="line"/>
			<point x="302" y="562" type="line" smooth="yes"/>
			<point x="404" y="582"/>
			<point x="420" y="588"/>
			<point x="420" y="610" type="curve" smooth="yes"/>
			<point x="420" y="621"/>
			<point x="411" y="630"/>
			<point x="396" y="630" type="curve" smooth="yes"/>
			<point x="381" y="630"/>
			<point x="362" y="620"/>
			<point x="294" y="588" type="curve" smooth="yes"/>
			<point x="226" y="556" type="line"/>
			<point x="234" y="620" type="line" smooth="yes"/>
			<point x="242" y="680"/>
			<point x="246" y="712"/>
			<point x="246" y="732" type="curve" smooth="yes"/>
			<point x="246" y="752"/>
			<point x="236" y="760"/>
		</contour>
	</outline>
</glyph>
<glyph name="plus" format="2">
	<unicode hex="002B"/>
	<advance width="530"/>
	<outline>
		<contour>
			<point x="248" y="96" type="line"/>
			<point x="282" y="96" type="line"/>
			<point x="282" y="568" type="line"/>
			<point x="248" y="568" type="line"/>
		</contour>
		<contour>
			<point x="490" y="316" type="line"/>
			<point x="490" y="348" type="line"/>
			<point x="40" y="348" type="line"/>
			<point x="40" y="316" type="line"/>
		</contour>
	</outline>
</glyph>
<glyph name="comma" format="2">
	<unicode hex="002C"/>
	<advance width="296"/>
	<outline>
		<contour>
			<point x="184" y="-8" type="curve" smooth="yes"/>
			<point x="184" y="16"/>
			<point x="182" y="36"/>
			<point x="178" y="52" type="curve"/>
			<point x="172" y="56"/>
			<point x="163" y="60"/>
			<point x="149" y="60" type="curve" smooth="yes"/>
			<point x="127" y="60"/>
			<point x="112" y="45"/>
			<point x="112" y="22" type="curve" smooth="yes"/>
			<point x="112" y="0"/>
			<point x="128" y="-12"/>
			<point x="146" y="-22" type="curve" smooth="yes"/>
			<point x="164" y="-32" type="line"/>
			<point x="156" y="-24" type="line"/>
			<point x="148" y="-80"/>
			<point x="128" y="-136"/>
			<point x="64" y="-186" type="curve"/>
			<point x="80" y="-200" type="line"/>
			<point x="144" y="-152"/>
			<point x="184" y="-88"/>
		</contour>
	</outline>
</glyph>
<glyph name="zero" format="2">
	<unicode hex="0030"/>
	<advance width="570"/>
	<outline>
		<contour>
			<point x="285" y="-12" type="curve" smooth="yes"/>
			<point x="422" y="-12"/>
			<point x="498" y="126"/>
			<point x="498" y="328" type="curve" smooth="yes"/>
			<point x="498" y="530"/>
			<point x="422" y="664"/>
			<point x="285" y="664" type="curve" smooth="yes"/>
			<point x="148" y="664"/>
			<point x="72" y="524"/>
			<point x="72" y="324" type="curve" smooth="yes"/>
			<point x="72" y="124"/>
			<point x="148" y="-12"/>
		</contour>
		<contour>
			<point x="285" y="18" type="curve" smooth="yes"/>
			<point x="168" y="18"/>
			<point x="108" y="144"/>
			<point x="108" y="326" type="curve" smooth="yes"/>
			<point x="108" y="508"/>
			<point x="168" y="634"/>
			<point x="285" y="634" type="curve" smooth="yes"/>
			<point x="402" y="634"/>
			<point x="462" y="510"/>
			<point x="462" y="326" type="curve" smooth="yes"/>
			<point x="462" y="142"/>
			<point x="402" y="18"/>
		</contour>
	</outline>
</glyph>
<glyph name="one" format="2">
	<unicode hex="0031"/>
	<advance width="570"/>
	<outline>
		<contour>
			<point x="119" y="0" type="line"/>
			<point x="467" y="0" type="line"/>
			<point x="467" y="30" type="line"/>
			<point x="311" y="30" type="line"/>
			<point x="291" y="30" type="line"/>
			<point x="119" y="30" type="line"/>
		</contour>
		<contour>
			<point x="283" y="0" type="curve"/>
			<point x="319" y="0" type="line"/>
			<point x="319" y="100"/>
			<point x="319" y="200"/>
			<point x="319" y="300" type="curve" smooth="yes"/>
			<point x="319" y="376" type="line"/>
			<point x="319" y="664" type="line"/>
			<point x="299" y="664" type="line"/>
			<point x="115" y="608" type="line"/>
			<point x="115" y="580" type="line"/>
			<point x="283" y="624" type="line"/>
			<point x="283" y="300" type="line" smooth="yes"/>
			<point x="283" y="200"/>
			<point x="283" y="100"/>
		</contour>
	</outline>
</glyph>
<glyph name="less" format="2">
	<unicode hex="003C"/>
	<advance width="530"/>
	<outline>
		<contour>
			<point x="64" y="318" type="line"/>
			<point x="448" y="88" type="line"/>
			<point x="466" y="116" type="line"/>
			<point x="80" y="344" type="line"/>
			<point x="80" y="320" type="line"/>
			<point x="466" y="548" type="line"/>
			<point x="448" y="576" type="line"/>
			<point x="64" y="346" type="line"/>
		</contour>
	</outline>
</glyph>
<glyph name="question" format="2">
	<unicode hex="003F"/>
	<advance width="364"/>
	<outline>
		<contour>
			<point x="140" y="-12" type="curve" smooth="yes"/>
			<point x="161" y="-12"/>
			<point x="176" y="3"/>
			<point x="176" y="24" type="curve" smooth="yes"/>
			<point x="176" y="45"/>
			<point x="161" y="60"/>
			<point x="140" y="60" type="curve" smooth="yes"/>
			<point x="119" y="60"/>
			<point x="104" y="45"/>
			<point x="104" y="24" type="curve" smooth="yes"/>
			<point x="104" y="3"/>
			<point x="119" y="-12"/>
		</contour>
		<contour>
			<point x="328" y="500" type="curve" smooth="yes"/>
			<point x="328" y="596"/>
			<point x="240" y="660"/>
			<point x="100" y="692" type="curve"/>
			<point x="88" y="688"/>
			<point x="72" y="678"/>
			<point x="72" y="660" type="curve" smooth="yes"/>
			<point x="72" y="642"/>
			<point x="86" y="628"/>
			<point x="112" y="628" type="curve" smooth="yes"/>
			<point x="248" y="628" type="line"/>
			<point x="156" y="668" type="line"/>
			<point x="260" y="612"/>
			<point x="300" y="564"/>
			<point x="300" y="500" type="curve" smooth="yes"/>
			<point x="300" y="436"/>
			<point x="256" y="392"/>
			<point x="196" y="356" type="curve" smooth="yes"/>
			<point x="186" y="350" type="line" smooth="yes"/>
			<point x="136" y="320"/>
			<point x="116" y="296"/>
			<point x="116" y="256" type="curve" smooth="yes"/>
			<point x="116" y="240"/>
			<point x="118" y="224"/>
			<point x="122" y="196" type="curve" smooth="yes"/>
			<point x="126" y="164" type="line"/>
			<point x="152" y="164" type="line"/>
			<point x="148" y="220" type="line" smooth="yes"/>
			<point x="144" y="280"/>
			<point x="160" y="296"/>
			<point x="200" y="320" type="curve" smooth="yes"/>
			<point x="210" y="326" type="line" smooth="yes"/>
			<point x="280" y="368"/>
			<point x="328" y="420"/>
		</contour>
	</outline>
</glyph>
<glyph name="at" format="2">
	<unicode hex="0040"/>
	<advance width="816"/>
	<outline>
		<contour>
			<point x="344" y="60" type="curve" smooth="yes"/>
			<point x="400" y="60"/>
			<point x="440" y="96"/>
			<point x="472" y="136" type="curve"/>
			<point x="484" y="136" type="line"/>
			<point x="484" y="176" type="line"/>
			<point x="432" y="112"/>
			<point x="400" y="88"/>
			<point x="352" y="88" type="curve" smooth="yes"/>
			<point x="304" y="88"/>
			<point x="268" y="120"/>
			<point x="268" y="196" type="curve" smooth="yes"/>
			<point x="268" y="296"/>
			<point x="344" y="440"/>
			<point x="452" y="440" type="curve" smooth="yes"/>
			<point x="488" y="440"/>
			<point x="512" y="424"/>
			<point x="532" y="396" type="curve"/>
			<point x="544" y="420" type="line"/>
			<point x="528" y="448"/>
			<point x="504" y="468"/>
			<point x="456" y="468" type="curve" smooth="yes"/>
			<point x="328" y="468"/>
			<point x="236" y="312"/>
			<point x="236" y="188" type="curve" smooth="yes"/>
			<point x="236" y="104"/>
			<point x="288" y="60"/>
		</contour>
		<contour>
			<point x="560" y="56" type="curve" smooth="yes"/>
			<point x="660" y="56"/>
			<point x="780" y="156"/>
			<point x="780" y="348" type="curve" smooth="yes"/>
			<point x="780" y="536"/>
			<point x="656" y="664"/>
			<point x="468" y="664" type="curve" smooth="yes"/>
			<point x="212" y="664"/>
			<point x="36" y="448"/>
			<point x="36" y="192" type="curve" smooth="yes"/>
			<point x="36" y="-24"/>
			<point x="180" y="-156"/>
			<point x="382" y="-156" type="curve" smooth="yes"/>
			<point x="468" y="-156"/>
			<point x="516" y="-140"/>
			<point x="572" y="-116" type="curve"/>
			<point x="560" y="-92" type="line"/>
			<point x="508" y="-116"/>
			<point x="460" y="-128"/>
			<point x="387" y="-128" type="curve" smooth="yes"/>
			<point x="200" y="-128"/>
			<point x="68" y="-4"/>
			<point x="68" y="196" type="curve" smooth="yes"/>
			<point x="68" y="428"/>
			<point x="232" y="636"/>
			<point x="464" y="636" type="curve" smooth="yes"/>
			<point x="636" y="636"/>
			<point x="750" y="516"/>
			<point x="750" y="344" type="curve" smooth="yes"/>
			<point x="750" y="176"/>
			<point x="644" y="82"/>
			<point x="568" y="82" type="curve" smooth="yes"/>
			<point x="516" y="82"/>
			<point x="500" y="108"/>
			<point x="512" y="168" type="curve" smooth="yes"/>
			<point x="570" y="460" type="line"/>
			<point x="552" y="460" type="line"/>
			<point x="528" y="410" type="line"/>
			<point x="476" y="152" type="line"/>
			<point x="482" y="152" type="line"/>
			<point x="476" y="92"/>
			<point x="500" y="56"/>
		</contour>
	</outline>
</glyph>
<glyph name="A" format="2">
	<unicode hex="0041"/>
	<advance width="718"/>
	<outline>
		<contour>
			<point x="13" y="0" type="line"/>
			<point x="231" y="0" type="line"/>
			<point x="231" y="20" type="line"/>
			<point x="124" y="26" type="line"/>
			<point x="109" y="26" type="line"/>
			<point x="13" y="20" type="line"/>
		</contour>
		<contour>
			<point x="94" y="0" type="line"/>
			<point x="125" y="0" type="line"/>
			<point x="346" y="636" type="line"/>
			<point x="576" y="0" type="line"/>
			<point x="612" y="0" type="line"/>
			<point x="360" y="684" type="line"/>
			<point x="338" y="684" type="line"/>
		</contour>
		<contour>
			<point x="190" y="247" type="line"/>
			<point x="515" y="247" type="line"/>
			<point x="506" y="267" type="line"/>
			<point x="200" y="267" type="line"/>
		</contour>
		<contour>
			<point x="443" y="0" type="line"/>
			<point x="716" y="0" type="line"/>
			<point x="716" y="20" type="line"/>
			<point x="591" y="26" type="line"/>
			<point x="575" y="26" type="line"/>
			<point x="443" y="20" type="line"/>
		</contour>
	</outline>
	<anchor name="aboveUC" x="348" y="682"/>
	<anchor name="belowLC" x="358" y="-22"/>
	<anchor name="ogonek" x="607" y="0"/>
</glyph>
<glyph name="B" format="2">
	<unicode hex="0042"/>
	<advance width="628"/>
	<outline>
		<contour>
			<point x="48" y="0" type="line"/>
			<point x="180" y="0" type="line"/>
			<point x="180" y="30" type="line"/>
			<point x="172" y="30" type="line"/>
			<point x="48" y="30" type="line"/>
		</contour>
		<contour>
			<point x="164" y="300" type="line"/>
			<point x="164" y="0" type="line"/>
			<point x="200" y="0" type="line"/>
			<point x="200" y="300" type="line"/>
			<point x="200" y="376" type="line"/>
			<point x="200" y="676" type="line"/>
			<point x="164" y="676" type="line"/>
			<point x="164" y="376" type="line"/>
		</contour>
		<contour>
			<point x="184" y="0" type="line"/>
			<point x="316" y="0" type="line" smooth="yes"/>
			<point x="486" y="0"/>
			<point x="580" y="70"/>
			<point x="580" y="188" type="curve" smooth="yes"/>
			<point x="580" y="300"/>
			<point x="488" y="360"/>
			<point x="308" y="364" type="curve"/>
			<point x="308" y="342" type="line"/>
			<point x="472" y="352"/>
			<point x="540" y="420"/>
			<point x="540" y="518" type="curve" smooth="yes"/>
			<point x="540" y="610"/>
			<point x="474" y="676"/>
			<point x="324" y="676" type="curve" smooth="yes"/>
			<point x="184" y="676" type="line"/>
			<point x="184" y="646" type="line"/>
			<point x="316" y="646" type="line" smooth="yes"/>
			<point x="456" y="646"/>
			<point x="504" y="592"/>
			<point x="504" y="514" type="curve" smooth="yes"/>
			<point x="504" y="436"/>
			<point x="456" y="368"/>
			<point x="308" y="368" type="curve" smooth="yes"/>
			<point x="184" y="368" type="line"/>
			<point x="184" y="338" type="line"/>
			<point x="308" y="338" type="line" smooth="yes"/>
			<point x="472" y="338"/>
			<point x="543" y="284"/>
			<point x="543" y="186" type="curve" smooth="yes"/>
			<point x="543" y="88"/>
			<point x="468" y="30"/>
			<point x="308" y="30" type="curve" smooth="yes"/>
			<point x="184" y="30" type="line"/>
		</contour>
		<contour>
			<point x="48" y="646" type="line"/>
			<point x="172" y="646" type="line"/>
			<point x="180" y="646" type="line"/>
			<point x="180" y="676" type="line"/>
			<point x="48" y="676" type="line"/>
		</contour>
	</outline>
	<anchor name="aboveUC" x="312" y="682"/>
	<anchor name="belowLC" x="343" y="-22"/>
</glyph>
<glyph name="C" format="2">
	<unicode hex="0043"/>
	<advance width="704"/>
	<outline>
		<contour>
			<point x="64" y="336" type="curve" smooth="yes"/>
			<point x="64" y="120"/>
			<point x="212" y="-16"/>
			<point x="424" y="-16" type="curve" smooth="yes"/>
			<point x="524" y="-16"/>
			<point x="604" y="8"/>
			<point x="640" y="32" type="curve"/>
			<point x="644" y="176" type="line"/>
			<point x="616" y="176" type="line"/>
			<point x="600" y="32" type="line"/>
			<point x="620" y="32" type="line"/>
			<point x="620" y="56" type="line"/>
			<point x="580" y="32"/>
			<point x="516" y="14"/>
			<point x="428" y="14" type="curve" smooth="yes"/>
			<point x="232" y="14"/>
			<point x="102" y="140"/>
			<point x="102" y="338" type="curve" smooth="yes"/>
			<point x="102" y="536"/>
			<point x="232" y="662"/>
			<point x="420" y="662" type="curve" smooth="yes"/>
			<point x="500" y="662"/>
			<point x="556" y="648"/>
			<point x="612" y="616" type="curve"/>
			<point x="612" y="640" type="line"/>
			<point x="592" y="640" type="line"/>
			<point x="608" y="500" type="line"/>
			<point x="636" y="500" type="line"/>
			<point x="632" y="640" type="line"/>
			<point x="580" y="672"/>
			<point x="508" y="692"/>
			<point x="420" y="692" type="curve" smooth="yes"/>
			<point x="212" y="692"/>
			<point x="64" y="552"/>
		</contour>
	</outline>
	<anchor name="aboveUC" x="410" y="682"/>
	<anchor name="belowLC" x="418" y="-22"/>
	<anchor name="baseLC" x="419" y="0"/>
</glyph>
<glyph name="D" format="2">
	<unicode hex="0044"/>
	<advance width="760"/>
	<outline>
		<contour>
			<point x="48" y="0" type="line"/>
			<point x="180" y="0" type="line"/>
			<point x="180" y="30" type="line"/>
			<point x="172" y="30" type="line"/>
			<point x="48" y="30" type="line"/>
		</contour>
		<contour>
			<point x="164" y="0" type="line"/>
			<point x="200" y="0" type="line"/>
			<point x="200" y="340" type="line"/>
			<point x="200" y="355" type="line"/>
			<point x="200" y="676" type="line"/>
			<point x="164" y="676" type="line"/>
			<point x="164" y="355" type="line"/>
			<point x="164" y="340" type="line"/>
		</contour>
		<contour>
			<point x="184" y="0" type="line"/>
			<point x="324" y="0" type="line" smooth="yes"/>
			<point x="568" y="0"/>
			<point x="696" y="128"/>
			<point x="696" y="342" type="curve" smooth="yes"/>
			<point x="696" y="556"/>
			<point x="568" y="676"/>
			<point x="332" y="676" type="curve" smooth="yes"/>
			<point x="184" y="676" type="line"/>
			<point x="184" y="646" type="line"/>
			<point x="324" y="646" type="line"/>
			<point x="544" y="648"/>
			<point x="658" y="536"/>
			<point x="658" y="340" type="curve" smooth="yes"/>
			<point x="658" y="144"/>
			<point x="544" y="30"/>
			<point x="316" y="30" type="curve" smooth="yes"/>
			<point x="184" y="30" type="line"/>
		</contour>
		<contour>
			<point x="48" y="646" type="line"/>
			<point x="172" y="646" type="line"/>
			<point x="180" y="646" type="line"/>
			<point x="180" y="676" type="line"/>
			<point x="48" y="676" type="line"/>
		</contour>
	</outline>
	<anchor name="aboveUC" x="364" y="682"/>
	<anchor name="belowLC" x="366" y="-22"/>
</glyph>
<glyph name="E" format="2">
	<unicode hex="0045"/>
	<advance width="661"/>
	<outline>
		<contour>
			<point x="64" y="0" type="line"/>
			<point x="200" y="0" type="line"/>
			<point x="200" y="35" type="line"/>
			<point x="193" y="35" type="line"/>
			<point x="64" y="28" type="line"/>
		</contour>
		<contour>
			<point x="182" y="0" type="line"/>
			<point x="216" y="0" type="line"/>
			<point x="216" y="338" type="line"/>
			<point x="216" y="347" type="line"/>
			<point x="216" y="677" type="line"/>
			<point x="182" y="677" type="line"/>
			<point x="182" y="347" type="line"/>
			<point x="182" y="338" type="line"/>
		</contour>
		<contour>
			<point x="200" y="0" type="line"/>
			<point x="601" y="0" type="line"/>
			<point x="612" y="153" type="line"/>
			<point x="581" y="153" type="line"/>
			<point x="561" y="7" type="line"/>
			<point x="584" y="30" type="line"/>
			<point x="200" y="30" type="line"/>
		</contour>
		<contour>
			<point x="200" y="327" type="line"/>
			<point x="443" y="327" type="line"/>
			<point x="443" y="355" type="line"/>
			<point x="200" y="355" type="line"/>
		</contour>
		<contour>
			<point x="440" y="234" type="line"/>
			<point x="465" y="234" type="line"/>
			<point x="465" y="450" type="line"/>
			<point x="440" y="450" type="line"/>
			<point x="429" y="352" type="line"/>
			<point x="429" y="332" type="line"/>
		</contour>
		<contour>
			<point x="64" y="649" type="line"/>
			<point x="193" y="642" type="line"/>
			<point x="200" y="642" type="line"/>
			<point x="200" y="677" type="line"/>
			<point x="64" y="677" type="line"/>
		</contour>
		<contour>
			<point x="566" y="524" type="line"/>
			<point x="596" y="524" type="line"/>
			<point x="585" y="677" type="line"/>
			<point x="200" y="677" type="line"/>
			<point x="200" y="647" type="line"/>
			<point x="569" y="647" type="line"/>
			<point x="546" y="669" type="line"/>
		</contour>
	</outline>
	<anchor name="aboveUC" x="358" y="682"/>
	<anchor name="belowLC" x="385" y="-22"/>
	<anchor name="ogonek" x="528" y="0"/>
</glyph>
<glyph name="F" format="2">
	<unicode hex="0046"/>
	<advance width="636"/>
	<outline>
		<contour>
			<point x="48" y="0" type="line"/>
			<point x="332" y="0" type="line"/>
			<point x="332" y="30" type="line"/>
			<point x="196" y="30" type="line"/>
			<point x="168" y="30" type="line"/>
			<point x="48" y="30" type="line"/>
		</contour>
		<contour>
			<point x="164" y="0" type="line"/>
			<point x="200" y="0" type="line"/>
			<point x="200" y="300" type="line"/>
			<point x="200" y="376" type="line"/>
			<point x="200" y="676" type="line"/>
			<point x="164" y="676" type="line"/>
			<point x="164" y="376" type="line"/>
			<point x="164" y="300" type="line"/>
		</contour>
		<contour>
			<point x="184" y="325" type="line"/>
			<point x="432" y="325" type="line"/>
			<point x="432" y="355" type="line"/>
			<point x="184" y="355" type="line"/>
		</contour>
		<contour>
			<point x="426" y="224" type="line"/>
			<point x="456" y="224" type="line"/>
			<point x="456" y="456" type="line"/>
			<point x="426" y="456" type="line"/>
			<point x="418" y="348" type="line"/>
			<point x="418" y="332" type="line"/>
		</contour>
		<contour>
			<point x="48" y="646" type="line"/>
			<point x="168" y="646" type="line"/>
			<point x="172" y="646" type="line"/>
			<point x="172" y="676" type="line"/>
			<point x="48" y="676" type="line"/>
		</contour>
		<contour>
			<point x="550" y="500" type="line"/>
			<point x="580" y="500" type="line"/>
			<point x="568" y="676" type="line"/>
			<point x="184" y="676" type="line"/>
			<point x="184" y="646" type="line"/>
			<point x="552" y="646" type="line"/>
			<point x="530" y="668" type="line"/>
		</contour>
	</outline>
	<anchor name="aboveUC" x="365" y="682"/>
	<anchor name="belowLC" x="201" y="-22"/>
</glyph>
<glyph name="G" format="2">
	<unicode hex="0047"/>
	<advance width="754"/>
	<outline>
		<contour>
			<point x="70" y="129"/>
			<point x="213" y="-13"/>
			<point x="429" y="-13" type="curve" smooth="yes"/>
			<point x="515" y="-13"/>
			<point x="578" y="3"/>
			<point x="659" y="48" type="curve"/>
			<point x="659" y="99" type="line" smooth="yes"/>
			<point x="659" y="193"/>
			<point x="660" y="257"/>
			<point x="662" y="320" type="curve"/>
			<point x="623" y="320" type="line"/>
			<point x="625" y="246"/>
			<point x="626" y="173"/>
			<point x="626" y="99" type="curve" smooth="yes"/>
			<point x="626" y="52" type="line"/>
			<point x="640" y="68" type="line"/>
			<point x="574" y="27"/>
			<point x="507" y="9"/>
			<point x="427" y="9" type="curve" smooth="yes"/>
			<point x="233" y="9"/>
			<point x="106" y="138"/>
			<point x="106" y="338" type="curve" smooth="yes"/>
			<point x="106" y="537"/>
			<point x="234" y="668"/>
			<point x="433" y="668" type="curve" smooth="yes"/>
			<point x="520" y="668"/>
			<point x="572" y="648"/>
			<point x="634" y="608" type="curve"/>
			<point x="634" y="628" type="line"/>
			<point x="610" y="637" type="line"/>
			<point x="630" y="492" type="line"/>
			<point x="657" y="492" type="line"/>
			<point x="652" y="631" type="line"/>
			<point x="586" y="669"/>
			<point x="525" y="690"/>
			<point x="430" y="690" type="curve" smooth="yes"/>
			<point x="219" y="690"/>
			<point x="70" y="548"/>
			<point x="70" y="338" type="curve" smooth="yes"/>
		</contour>
		<contour>
			<point x="492" y="300" type="line"/>
			<point x="635" y="293" type="line"/>
			<point x="650" y="293" type="line"/>
			<point x="745" y="300" type="line"/>
			<point x="745" y="320" type="line"/>
			<point x="492" y="320" type="line"/>
		</contour>
	</outline>
	<anchor name="aboveUC" x="427" y="682"/>
	<anchor name="belowLC" x="436" y="-22"/>
</glyph>
<glyph name="H" format="2">
	<unicode hex="0048"/>
	<advance width="872"/>
	<outline>
		<contour>
			<point x="62" y="0" type="line"/>
			<point x="336" y="0" type="line"/>
			<point x="336" y="28" type="line"/>
			<point x="207" y="35" type="line"/>
			<point x="192" y="35" type="line"/>
			<point x="62" y="28" type="line"/>
		</contour>
		<contour>
			<point x="182" y="0" type="line"/>
			<point x="216" y="0" type="line"/>
			<point x="216" y="354" type="line"/>
			<point x="216" y="367" type="line"/>
			<point x="216" y="677" type="line"/>
			<point x="182" y="677" type="line"/>
			<point x="182" y="367" type="line"/>
			<point x="182" y="354" type="line"/>
		</contour>
		<contour>
			<point x="199" y="342" type="line"/>
			<point x="673" y="342" type="line"/>
			<point x="673" y="372" type="line"/>
			<point x="199" y="372" type="line"/>
		</contour>
		<contour>
			<point x="536" y="0" type="line"/>
			<point x="810" y="0" type="line"/>
			<point x="810" y="28" type="line"/>
			<point x="681" y="35" type="line"/>
			<point x="666" y="35" type="line"/>
			<point x="536" y="28" type="line"/>
		</contour>
		<contour>
			<point x="656" y="0" type="line"/>
			<point x="690" y="0" type="line"/>
			<point x="690" y="354" type="line"/>
			<point x="690" y="367" type="line"/>
			<point x="690" y="677" type="line"/>
			<point x="656" y="677" type="line"/>
			<point x="656" y="367" type="line"/>
			<point x="656" y="354" type="line"/>
		</contour>
		<contour>
			<point x="62" y="649" type="line"/>
			<point x="192" y="642" type="line"/>
			<point x="207" y="642" type="line"/>
			<point x="336" y="649" type="line"/>
			<point x="336" y="677" type="line"/>
			<point x="62" y="677" type="line"/>
		</contour>
		<contour>
			<point x="536" y="649" type="line"/>
			<point x="666" y="642" type="line"/>
			<point x="681" y="642" type="line"/>
			<point x="810" y="649" type="line"/>
			<point x="810" y="677" type="line"/>
			<point x="536" y="677" type="line"/>
		</contour>
	</outline>
	<anchor name="aboveUC" x="437" y="682"/>
	<anchor name="belowLC" x="437" y="-22"/>
</glyph>
<glyph name="I" format="2">
	<unicode hex="0049"/>
	<advance width="400"/>
	<outline>
		<contour>
			<point x="64" y="0" type="line"/>
			<point x="337" y="0" type="line"/>
			<point x="337" y="20" type="line"/>
			<point x="208" y="27" type="line"/>
			<point x="193" y="27" type="line"/>
			<point x="64" y="20" type="line"/>
		</contour>
		<contour>
			<point x="184" y="206"/>
			<point x="184" y="102"/>
			<point x="182" y="0" type="curve"/>
			<point x="219" y="0" type="line"/>
			<point x="217" y="102"/>
			<point x="217" y="206"/>
			<point x="217" y="310" type="curve" smooth="yes"/>
			<point x="217" y="367" type="line" smooth="yes"/>
			<point x="217" y="471"/>
			<point x="217" y="575"/>
			<point x="219" y="677" type="curve"/>
			<point x="182" y="677" type="line"/>
			<point x="184" y="575"/>
			<point x="184" y="471"/>
			<point x="184" y="367" type="curve" smooth="yes"/>
			<point x="184" y="310" type="line" smooth="yes"/>
		</contour>
		<contour>
			<point x="64" y="657" type="line"/>
			<point x="193" y="650" type="line"/>
			<point x="208" y="650" type="line"/>
			<point x="337" y="657" type="line"/>
			<point x="337" y="677" type="line"/>
			<point x="64" y="677" type="line"/>
		</contour>
	</outline>
	<anchor name="aboveUC" x="200" y="682"/>
	<anchor name="belowLC" x="200" y="-22"/>
	<anchor name="ogonek" x="242" y="0"/>
</glyph>
<glyph name="J" format="2">
	<unicode hex="004A"/>
	<advance width="352"/>
	<outline>
		<contour>
			<point x="-72" y="-124" type="curve"/>
			<point x="-68" y="-132"/>
			<point x="-48" y="-148"/>
			<point x="-8" y="-148" type="curve" smooth="yes"/>
			<point x="56" y="-148"/>
			<point x="100" y="-120"/>
			<point x="124" y="-96" type="curve" smooth="yes"/>
			<point x="148" y="-72"/>
			<point x="196" y="-28"/>
			<point x="196" y="120" type="curve" smooth="yes"/>
			<point x="196" y="360" type="line"/>
			<point x="196" y="676" type="line"/>
			<point x="160" y="676" type="line"/>
			<point x="160" y="124" type="line" smooth="yes"/>
			<point x="160" y="-20"/>
			<point x="116" y="-88"/>
			<point x="56" y="-120" type="curve"/>
			<point x="32" y="-120" type="line"/>
			<point x="32" y="-128" type="line"/>
			<point x="54" y="-128" type="line"/>
			<point x="36" y="-118" type="line" smooth="yes"/>
			<point x="14" y="-106"/>
			<point x="0" y="-100"/>
			<point x="-26" y="-100" type="curve" smooth="yes"/>
			<point x="-54" y="-100"/>
			<point x="-68" y="-110"/>
		</contour>
		<contour>
			<point x="28" y="646" type="line"/>
			<point x="168" y="646" type="line"/>
			<point x="188" y="646" type="line"/>
			<point x="312" y="646" type="line"/>
			<point x="312" y="676" type="line"/>
			<point x="28" y="676" type="line"/>
		</contour>
	</outline>
	<anchor name="aboveUC" x="207" y="682"/>
	<anchor name="belowLC" x="88" y="-162"/>
</glyph>
<glyph name="K" format="2">
	<unicode hex="004B"/>
	<advance width="730"/>
	<outline>
		<contour>
			<point x="64" y="0" type="line"/>
			<point x="337" y="0" type="line"/>
			<point x="337" y="20" type="line"/>
			<point x="208" y="27" type="line"/>
			<point x="193" y="27" type="line"/>
			<point x="64" y="20" type="line"/>
		</contour>
		<contour>
			<point x="184" y="206"/>
			<point x="184" y="102"/>
			<point x="182" y="0" type="curve"/>
			<point x="219" y="0" type="line"/>
			<point x="217" y="102"/>
			<point x="217" y="186"/>
			<point x="217" y="230" type="curve" smooth="yes"/>
			<point x="217" y="367" type="line" smooth="yes"/>
			<point x="217" y="471"/>
			<point x="217" y="575"/>
			<point x="219" y="677" type="curve"/>
			<point x="182" y="677" type="line"/>
			<point x="184" y="575"/>
			<point x="184" y="471"/>
			<point x="184" y="367" type="curve" smooth="yes"/>
			<point x="184" y="310" type="line" smooth="yes"/>
		</contour>
		<contour>
			<point x="200" y="193" type="line"/>
			<point x="644" y="677" type="line"/>
			<point x="609" y="677" type="line"/>
			<point x="200" y="228" type="line"/>
		</contour>
		<contour>
			<point x="485" y="0" type="line"/>
			<point x="736" y="0" type="line"/>
			<point x="736" y="20" type="line"/>
			<point x="624" y="27" type="line"/>
			<point x="608" y="27" type="line"/>
			<point x="485" y="20" type="line"/>
		</contour>
		<contour>
			<point x="614" y="0" type="line"/>
			<point x="650" y="0" type="line"/>
			<point x="385" y="413" type="line"/>
			<point x="361" y="387" type="line"/>
		</contour>
		<contour>
			<point x="64" y="657" type="line"/>
			<point x="193" y="650" type="line"/>
			<point x="208" y="650" type="line"/>
			<point x="337" y="657" type="line"/>
			<point x="337" y="677" type="line"/>
			<point x="64" y="677" type="line"/>
		</contour>
		<contour>
			<point x="455" y="657" type="line"/>
			<point x="594" y="650" type="line"/>
			<point x="609" y="650" type="line"/>
			<point x="704" y="657" type="line"/>
			<point x="704" y="677" type="line"/>
			<point x="455" y="677" type="line"/>
		</contour>
	</outline>
	<anchor name="aboveUC" x="389" y="682"/>
	<anchor name="belowLC" x="409" y="-22"/>
</glyph>
<glyph name="L" format="2">
	<unicode hex="004C"/>
	<advance width="620"/>
	<outline>
		<contour>
			<point x="64" y="0" type="line"/>
			<point x="200" y="0" type="line"/>
			<point x="200" y="27" type="line"/>
			<point x="193" y="27" type="line"/>
			<point x="64" y="20" type="line"/>
		</contour>
		<contour>
			<point x="184" y="206"/>
			<point x="184" y="102"/>
			<point x="182" y="0" type="curve"/>
			<point x="219" y="0" type="line"/>
			<point x="217" y="102"/>
			<point x="217" y="206"/>
			<point x="217" y="289" type="curve" smooth="yes"/>
			<point x="217" y="329" type="line" smooth="yes"/>
			<point x="217" y="471"/>
			<point x="217" y="575"/>
			<point x="219" y="677" type="curve"/>
			<point x="182" y="677" type="line"/>
			<point x="184" y="575"/>
			<point x="184" y="471"/>
			<point x="184" y="367" type="curve" smooth="yes"/>
			<point x="184" y="310" type="line" smooth="yes"/>
		</contour>
		<contour>
			<point x="200" y="0" type="line"/>
			<point x="576" y="0" type="line"/>
			<point x="587" y="163" type="line"/>
			<point x="561" y="163" type="line"/>
			<point x="541" y="9" type="line"/>
			<point x="557" y="22" type="line"/>
			<point x="200" y="22" type="line"/>
		</contour>
		<contour>
			<point x="64" y="657" type="line"/>
			<point x="193" y="650" type="line"/>
			<point x="208" y="650" type="line"/>
			<point x="337" y="657" type="line"/>
			<point x="337" y="677" type="line"/>
			<point x="64" y="677" type="line"/>
		</contour>
	</outline>
	<anchor name="aboveUC" x="200" y="682"/>
	<anchor name="belowLC" x="360" y="-22"/>
</glyph>
<glyph name="M" format="2">
	<unicode hex="004D"/>
	<advance width="984"/>
	<outline>
		<contour>
			<point x="48" y="0" type="line"/>
			<point x="324" y="0" type="line"/>
			<point x="324" y="30" type="line"/>
			<point x="192" y="30" type="line"/>
			<point x="168" y="30" type="line"/>
			<point x="48" y="30" type="line"/>
		</contour>
		<contour>
			<point x="48" y="646" type="line"/>
			<point x="168" y="646" type="line"/>
			<point x="172" y="646" type="line"/>
			<point x="172" y="676" type="line"/>
			<point x="48" y="676" type="line"/>
		</contour>
		<contour>
			<point x="164" y="0" type="line"/>
			<point x="196" y="0" type="line"/>
			<point x="196" y="412" type="line"/>
			<point x="192" y="660" type="line"/>
			<point x="164" y="660" type="line"/>
		</contour>
		<contour>
			<point x="476" y="0" type="line"/>
			<point x="496" y="0" type="line"/>
			<point x="816" y="676" type="line"/>
			<point x="780" y="676" type="line"/>
			<point x="480" y="40" type="line"/>
			<point x="496" y="40" type="line"/>
			<point x="204" y="676" type="line"/>
			<point x="164" y="676" type="line"/>
		</contour>
		<contour>
			<point x="656" y="0" type="line"/>
			<point x="936" y="0" type="line"/>
			<point x="936" y="30" type="line"/>
			<point x="816" y="30" type="line"/>
			<point x="788" y="30" type="line"/>
			<point x="656" y="30" type="line"/>
		</contour>
		<contour>
			<point x="784" y="0" type="line"/>
			<point x="820" y="0" type="line"/>
			<point x="820" y="308" type="line"/>
			<point x="820" y="372" type="line"/>
			<point x="820" y="676" type="line"/>
			<point x="788" y="676" type="line"/>
			<point x="784" y="412" type="line"/>
		</contour>
		<contour>
			<point x="812" y="646" type="line"/>
			<point x="816" y="646" type="line"/>
			<point x="936" y="646" type="line"/>
			<point x="936" y="676" type="line"/>
			<point x="812" y="676" type="line"/>
		</contour>
	</outline>
	<anchor name="aboveUC" x="484" y="682"/>
	<anchor name="belowLC" x="475" y="-22"/>
</glyph>
<glyph name="N" format="2">
	<unicode hex="004E"/>
	<advance width="805"/>
	<outline>
		<contour>
			<point x="53" y="0" type="line"/>
			<point x="304" y="0" type="line"/>
			<point x="304" y="20" type="line"/>
			<point x="175" y="27" type="line"/>
			<point x="160" y="27" type="line"/>
			<point x="53" y="20" type="line"/>
		</contour>
		<contour>
			<point x="153" y="0" type="line"/>
			<point x="179" y="0" type="line"/>
			<point x="179" y="654" type="line"/>
			<point x="153" y="654" type="line"/>
		</contour>
		<contour>
			<point x="513" y="657" type="line"/>
			<point x="641" y="650" type="line"/>
			<point x="657" y="650" type="line"/>
			<point x="763" y="657" type="line"/>
			<point x="763" y="677" type="line"/>
			<point x="513" y="677" type="line"/>
		</contour>
		<contour>
			<point x="640" y="-7" type="line"/>
			<point x="662" y="-7" type="line"/>
			<point x="662" y="677" type="line"/>
			<point x="636" y="677" type="line"/>
			<point x="636" y="48" type="line"/>
			<point x="170" y="677" type="line"/>
			<point x="42" y="677" type="line"/>
			<point x="42" y="657" type="line"/>
			<point x="151" y="653" type="line"/>
		</contour>
	</outline>
	<anchor name="aboveUC" x="398" y="682"/>
	<anchor name="belowLC" x="411" y="-22"/>
</glyph>
<glyph name="O" format="2">
	<unicode hex="004F"/>
	<advance width="777"/>
	<outline>
		<contour>
			<point x="388" y="-13" type="curve" smooth="yes"/>
			<point x="580" y="-13"/>
			<point x="707" y="126"/>
			<point x="707" y="338" type="curve" smooth="yes"/>
			<point x="707" y="550"/>
			<point x="580" y="690"/>
			<point x="388" y="690" type="curve" smooth="yes"/>
			<point x="197" y="690"/>
			<point x="70" y="550"/>
			<point x="70" y="338" type="curve" smooth="yes"/>
			<point x="70" y="126"/>
			<point x="197" y="-13"/>
		</contour>
		<contour>
			<point x="388" y="17" type="curve" smooth="yes"/>
			<point x="203" y="17"/>
			<point x="106" y="162"/>
			<point x="106" y="338" type="curve" smooth="yes"/>
			<point x="106" y="514"/>
			<point x="203" y="660"/>
			<point x="388" y="660" type="curve" smooth="yes"/>
			<point x="573" y="660"/>
			<point x="671" y="514"/>
			<point x="671" y="338" type="curve" smooth="yes"/>
			<point x="671" y="162"/>
			<point x="573" y="17"/>
		</contour>
	</outline>
	<anchor name="aboveUC" x="388" y="682"/>
	<anchor name="belowLC" x="394" y="-22"/>
	<anchor name="ogonek" x="487" y="0"/>
	<anchor name="hornLC" x="568" y="680"/>
</glyph>
<glyph name="P" format="2">
	<unicode hex="0050"/>
	<advance width="612"/>
	<outline>
		<contour>
			<point x="48" y="0" type="line"/>
			<point x="332" y="0" type="line"/>
			<point x="332" y="30" type="line"/>
			<point x="192" y="30" type="line"/>
			<point x="172" y="30" type="line"/>
			<point x="48" y="30" type="line"/>
		</contour>
		<contour>
			<point x="164" y="300" type="line"/>
			<point x="164" y="0" type="line"/>
			<point x="200" y="0" type="line"/>
			<point x="200" y="300" type="line"/>
			<point x="200" y="376" type="line"/>
			<point x="200" y="676" type="line"/>
			<point x="164" y="676" type="line"/>
			<point x="164" y="376" type="line"/>
		</contour>
		<contour>
			<point x="184" y="280" type="line"/>
			<point x="284" y="280" type="line" smooth="yes"/>
			<point x="470" y="280"/>
			<point x="564" y="358"/>
			<point x="564" y="482" type="curve" smooth="yes"/>
			<point x="564" y="606"/>
			<point x="478" y="676"/>
			<point x="316" y="676" type="curve" smooth="yes"/>
			<point x="184" y="676" type="line"/>
			<point x="184" y="646" type="line"/>
			<point x="312" y="646" type="line" smooth="yes"/>
			<point x="460" y="646"/>
			<point x="527" y="588"/>
			<point x="527" y="480" type="curve" smooth="yes"/>
			<point x="527" y="372"/>
			<point x="452" y="308"/>
			<point x="280" y="308" type="curve" smooth="yes"/>
			<point x="184" y="308" type="line"/>
		</contour>
		<contour>
			<point x="48" y="646" type="line"/>
			<point x="172" y="646" type="line"/>
			<point x="180" y="646" type="line"/>
			<point x="180" y="676" type="line"/>
			<point x="48" y="676" type="line"/>
		</contour>
	</outline>
	<anchor name="aboveUC" x="317" y="682"/>
	<anchor name="belowLC" x="199" y="-22"/>
</glyph>
<glyph name="Q" format="2">
	<unicode hex="0051"/>
	<advance width="777"/>
	<outline>
		<contour>
			<point x="541" y="-198" type="curve" smooth="yes"/>
			<point x="578" y="-198"/>
			<point x="623" y="-190"/>
			<point x="658" y="-170" type="curve"/>
			<point x="651" y="-156" type="line"/>
			<point x="618" y="-169"/>
			<point x="586" y="-176"/>
			<point x="543" y="-176" type="curve" smooth="yes"/>
			<point x="453" y="-176"/>
			<point x="394" y="-106"/>
			<point x="400" y="0" type="curve"/>
			<point x="369" y="0" type="line"/>
			<point x="369" y="-12" type="line" smooth="yes"/>
			<point x="369" y="-103"/>
			<point x="413" y="-198"/>
		</contour>
		<component base="O" xScale="1.1"/>
	</outline>
	<anchor name="aboveUC" x="388" y="682"/>
</glyph>
<glyph name="R" format="2">
	<unicode hex="0052"/>
	<advance width="713"/>
	<outline>
		<contour>
			<point x="64" y="0" type="line"/>
			<point x="337" y="0" type="line"/>
			<point x="337" y="20" type="line"/>
			<point x="208" y="27" type="line"/>
			<point x="193" y="27" type="line"/>
			<point x="64" y="20" type="line"/>
		</contour>
		<contour>
			<point x="184" y="206"/>
			<point x="184" y="102"/>
			<point x="182" y="0" type="curve"/>
			<point x="219" y="0" type="line"/>
			<point x="217" y="102"/>
			<point x="217" y="206"/>
			<point x="217" y="320" type="curve" smooth="yes"/>
			<point x="217" y="327" type="line" smooth="yes"/>
			<point x="217" y="471"/>
			<point x="217" y="575"/>
			<point x="219" y="677" type="curve"/>
			<point x="182" y="677" type="line"/>
			<point x="184" y="575"/>
			<point x="184" y="471"/>
			<point x="184" y="367" type="curve" smooth="yes"/>
			<point x="184" y="310" type="line" smooth="yes"/>
		</contour>
		<contour>
			<point x="620" y="-5" type="curve" smooth="yes"/>
			<point x="651" y="-5"/>
			<point x="678" y="-2"/>
			<point x="691" y="0" type="curve"/>
			<point x="691" y="20" type="line"/>
			<point x="569" y="25" type="line"/>
			<point x="585" y="14" type="line"/>
			<point x="502" y="224" type="line" smooth="yes"/>
			<point x="475" y="289"/>
			<point x="457" y="317"/>
			<point x="373" y="327" type="curve"/>
			<point x="382" y="318" type="line"/>
			<point x="507" y="327"/>
			<point x="591" y="399"/>
			<point x="591" y="500" type="curve" smooth="yes"/>
			<point x="591" y="615"/>
			<point x="505" y="677"/>
			<point x="350" y="677" type="curve" smooth="yes"/>
			<point x="200" y="677" type="line"/>
			<point x="200" y="655" type="line"/>
			<point x="348" y="655" type="line" smooth="yes"/>
			<point x="493" y="655"/>
			<point x="560" y="593"/>
			<point x="560" y="500" type="curve" smooth="yes"/>
			<point x="560" y="408"/>
			<point x="473" y="336"/>
			<point x="360" y="336" type="curve" smooth="yes"/>
			<point x="200" y="336" type="line"/>
			<point x="200" y="316" type="line"/>
			<point x="326" y="316" type="line" smooth="yes"/>
			<point x="426" y="316"/>
			<point x="447" y="285"/>
			<point x="475" y="211" type="curve" smooth="yes"/>
			<point x="543" y="34" type="line" smooth="yes"/>
			<point x="553" y="9"/>
			<point x="566" y="-5"/>
		</contour>
		<contour>
			<point x="64" y="657" type="line"/>
			<point x="193" y="650" type="line"/>
			<point x="200" y="650" type="line"/>
			<point x="200" y="677" type="line"/>
			<point x="64" y="677" type="line"/>
		</contour>
	</outline>
	<anchor name="aboveUC" x="338" y="682"/>
	<anchor name="belowLC" x="389" y="-22"/>
</glyph>
<glyph name="S" format="2">
	<unicode hex="0053"/>
	<advance width="560"/>
	<outline>
		<contour>
			<point x="256" y="-16" type="curve" smooth="yes"/>
			<point x="420" y="-16"/>
			<point x="496" y="64"/>
			<point x="496" y="164" type="curve" smooth="yes"/>
			<point x="496" y="264"/>
			<point x="424" y="312"/>
			<point x="308" y="356" type="curve" smooth="yes"/>
			<point x="276" y="368" type="line" smooth="yes"/>
			<point x="160" y="412"/>
			<point x="112" y="456"/>
			<point x="112" y="532" type="curve" smooth="yes"/>
			<point x="112" y="608"/>
			<point x="168" y="663"/>
			<point x="280" y="663" type="curve" smooth="yes"/>
			<point x="348" y="663"/>
			<point x="404" y="648"/>
			<point x="440" y="622" type="curve"/>
			<point x="440" y="644" type="line"/>
			<point x="428" y="644" type="line"/>
			<point x="436" y="516" type="line"/>
			<point x="464" y="516" type="line"/>
			<point x="468" y="644" type="line"/>
			<point x="420" y="672"/>
			<point x="364" y="692"/>
			<point x="280" y="692" type="curve" smooth="yes"/>
			<point x="152" y="692"/>
			<point x="76" y="624"/>
			<point x="76" y="528" type="curve" smooth="yes"/>
			<point x="76" y="432"/>
			<point x="148" y="380"/>
			<point x="264" y="336" type="curve" smooth="yes"/>
			<point x="296" y="324" type="line" smooth="yes"/>
			<point x="412" y="280"/>
			<point x="460" y="240"/>
			<point x="460" y="160" type="curve" smooth="yes"/>
			<point x="460" y="80"/>
			<point x="404" y="13"/>
			<point x="256" y="13" type="curve" smooth="yes"/>
			<point x="180" y="13"/>
			<point x="108" y="36"/>
			<point x="68" y="68" type="curve"/>
			<point x="68" y="36" type="line"/>
			<point x="88" y="36" type="line"/>
			<point x="80" y="172" type="line"/>
			<point x="52" y="172" type="line"/>
			<point x="48" y="36" type="line"/>
			<point x="92" y="12"/>
			<point x="164" y="-16"/>
		</contour>
	</outline>
	<anchor name="aboveUC" x="304" y="682"/>
	<anchor name="belowLC" x="279" y="-22"/>
	<anchor name="baseLC" x="279" y="0"/>
</glyph>
<glyph name="T" format="2">
	<unicode hex="0054"/>
	<advance width="653"/>
	<outline>
		<contour>
			<point x="179" y="0" type="line"/>
			<point x="474" y="0" type="line"/>
			<point x="474" y="20" type="line"/>
			<point x="334" y="27" type="line"/>
			<point x="319" y="27" type="line"/>
			<point x="179" y="20" type="line"/>
		</contour>
		<contour>
			<point x="310" y="206"/>
			<point x="310" y="102"/>
			<point x="308" y="0" type="curve"/>
			<point x="345" y="0" type="line"/>
			<point x="343" y="102"/>
			<point x="343" y="206"/>
			<point x="343" y="310" type="curve" smooth="yes"/>
			<point x="343" y="367" type="line" smooth="yes"/>
			<point x="343" y="471"/>
			<point x="343" y="575"/>
			<point x="345" y="677" type="curve"/>
			<point x="308" y="677" type="line"/>
			<point x="310" y="575"/>
			<point x="310" y="471"/>
			<point x="310" y="367" type="curve" smooth="yes"/>
			<point x="310" y="310" type="line" smooth="yes"/>
		</contour>
		<contour>
			<point x="22" y="514" type="line"/>
			<point x="48" y="514" type="line"/>
			<point x="69" y="677" type="line"/>
			<point x="54" y="655" type="line"/>
			<point x="600" y="655" type="line"/>
			<point x="584" y="677" type="line"/>
			<point x="605" y="514" type="line"/>
			<point x="631" y="514" type="line"/>
			<point x="620" y="677" type="line"/>
			<point x="33" y="677" type="line"/>
		</contour>
	</outline>
	<anchor name="aboveUC" x="327" y="682"/>
	<anchor name="belowLC" x="327" y="-22"/>
	<anchor name="baseLC" x="327" y="0"/>
</glyph>
<glyph name="U" format="2">
	<unicode hex="0055"/>
	<advance width="811"/>
	<outline>
		<contour>
			<point x="163" y="61"/>
			<point x="257" y="-13"/>
			<point x="407" y="-13" type="curve" smooth="yes"/>
			<point x="581" y="-13"/>
			<point x="659" y="82"/>
			<point x="659" y="248" type="curve" smooth="yes"/>
			<point x="659" y="677" type="line"/>
			<point x="632" y="677" type="line"/>
			<point x="632" y="274" type="line" smooth="yes"/>
			<point x="632" y="87"/>
			<point x="566" y="13"/>
			<point x="407" y="13" type="curve" smooth="yes"/>
			<point x="279" y="13"/>
			<point x="196" y="80"/>
			<point x="196" y="256" type="curve" smooth="yes"/>
			<point x="196" y="361" type="line" smooth="yes"/>
			<point x="196" y="469"/>
			<point x="196" y="573"/>
			<point x="198" y="677" type="curve"/>
			<point x="161" y="677" type="line"/>
			<point x="163" y="573"/>
			<point x="163" y="467"/>
			<point x="163" y="361" type="curve" smooth="yes"/>
			<point x="163" y="249" type="line" smooth="yes"/>
		</contour>
		<contour>
			<point x="55" y="657" type="line"/>
			<point x="173" y="650" type="line"/>
			<point x="188" y="650" type="line"/>
			<point x="317" y="657" type="line"/>
			<point x="317" y="677" type="line"/>
			<point x="55" y="677" type="line"/>
		</contour>
		<contour>
			<point x="498" y="657" type="line"/>
			<point x="638" y="650" type="line"/>
			<point x="653" y="650" type="line"/>
			<point x="758" y="657" type="line"/>
			<point x="758" y="677" type="line"/>
			<point x="498" y="677" type="line"/>
		</contour>
	</outline>
	<anchor name="aboveUC" x="408" y="682"/>
	<anchor name="belowLC" x="416" y="-22"/>
	<anchor name="ogonek" x="504" y="0"/>
	<anchor name="hornLC" x="649" y="720"/>
</glyph>
<glyph name="V" format="2">
	<unicode hex="0056"/>
	<advance width="712"/>
	<outline>
		<contour>
			<point x="352" y="-8" type="line"/>
			<point x="378" y="-8" type="line"/>
			<point x="620" y="676" type="line"/>
			<point x="586" y="676" type="line"/>
			<point x="356" y="20" type="line"/>
			<point x="376" y="20" type="line"/>
			<point x="138" y="676" type="line"/>
			<point x="100" y="676" type="line"/>
		</contour>
		<contour>
			<point x="16" y="646" type="line"/>
			<point x="120" y="646" type="line"/>
			<point x="140" y="646" type="line"/>
			<point x="256" y="646" type="line"/>
			<point x="256" y="676" type="line"/>
			<point x="16" y="676" type="line"/>
		</contour>
		<contour>
			<point x="472" y="646" type="line"/>
			<point x="584" y="646" type="line"/>
			<point x="600" y="646" type="line"/>
			<point x="696" y="646" type="line"/>
			<point x="696" y="676" type="line"/>
			<point x="472" y="676" type="line"/>
		</contour>
	</outline>
</glyph>
<glyph name="W" format="2">
	<unicode hex="0057"/>
	<advance width="1063"/>
	<outline>
		<contour>
			<point x="312" y="-7" type="line"/>
			<point x="334" y="-7" type="line"/>
			<point x="541" y="642" type="line"/>
			<point x="523" y="642" type="line"/>
			<point x="730" y="-7" type="line"/>
			<point x="752" y="-7" type="line"/>
			<point x="947" y="677" type="line"/>
			<point x="919" y="677" type="line"/>
			<point x="738" y="16" type="line"/>
			<point x="755" y="16" type="line"/>
			<point x="544" y="677" type="line"/>
			<point x="529" y="677" type="line"/>
			<point x="320" y="19" type="line"/>
			<point x="338" y="19" type="line"/>
			<point x="142" y="677" type="line"/>
			<point x="109" y="677" type="line"/>
		</contour>
		<contour>
			<point x="12" y="657" type="line"/>
			<point x="125" y="650" type="line"/>
			<point x="141" y="650" type="line"/>
			<point x="263" y="657" type="line"/>
			<point x="263" y="677" type="line"/>
			<point x="12" y="677" type="line"/>
		</contour>
		<contour>
			<point x="416" y="657" type="line"/>
			<point x="531" y="650" type="line"/>
			<point x="547" y="650" type="line"/>
			<point x="667" y="657" type="line"/>
			<point x="667" y="677" type="line"/>
			<point x="416" y="677" type="line"/>
		</contour>
		<contour>
			<point x="801" y="657" type="line"/>
			<point x="917" y="650" type="line"/>
			<point x="933" y="650" type="line"/>
			<point x="1052" y="657" type="line"/>
			<point x="1052" y="677" type="line"/>
			<point x="801" y="677" type="line"/>
		</contour>
	</outline>
	<anchor name="aboveUC" x="534" y="682"/>
	<anchor name="belowLC" x="551" y="-22"/>
</glyph>
<glyph name="X" format="2">
	<unicode hex="0058"/>
	<advance width="724"/>
	<outline>
		<contour>
			<point x="32" y="0" type="line"/>
			<point x="284" y="0" type="line"/>
			<point x="284" y="30" type="line"/>
			<point x="156" y="30" type="line"/>
			<point x="144" y="30" type="line"/>
			<point x="32" y="30" type="line"/>
		</contour>
		<contour>
			<point x="114" y="0" type="line"/>
			<point x="153" y="0" type="line"/>
			<point x="369" y="328" type="line"/>
			<point x="352" y="360" type="line"/>
		</contour>
		<contour>
			<point x="440" y="0" type="line"/>
			<point x="692" y="0" type="line"/>
			<point x="692" y="30" type="line"/>
			<point x="584" y="30" type="line"/>
			<point x="564" y="30" type="line"/>
			<point x="440" y="30" type="line"/>
		</contour>
		<contour>
			<point x="380" y="336" type="line"/>
			<point x="606" y="676" type="line"/>
			<point x="567" y="676" type="line"/>
			<point x="363" y="368" type="line"/>
		</contour>
		<contour>
			<point x="570" y="0" type="line"/>
			<point x="612" y="0" type="line"/>
			<point x="174" y="676" type="line"/>
			<point x="132" y="676" type="line"/>
		</contour>
		<contour>
			<point x="52" y="646" type="line"/>
			<point x="160" y="646" type="line"/>
			<point x="180" y="646" type="line"/>
			<point x="304" y="646" type="line"/>
			<point x="304" y="676" type="line"/>
			<point x="52" y="676" type="line"/>
		</contour>
		<contour>
			<point x="436" y="646" type="line"/>
			<point x="560" y="646" type="line"/>
			<point x="572" y="646" type="line"/>
			<point x="688" y="646" type="line"/>
			<point x="688" y="676" type="line"/>
			<point x="436" y="676" type="line"/>
		</contour>
	</outline>
	<anchor name="aboveUC" x="355" y="682"/>
	<anchor name="belowLC" x="360" y="-22"/>
</glyph>
<glyph name="Y" format="2">
	<unicode hex="0059"/>
	<advance width="698"/>
	<outline>
		<contour>
			<point x="202" y="0" type="line"/>
			<point x="497" y="0" type="line"/>
			<point x="497" y="20" type="line"/>
			<point x="358" y="27" type="line"/>
			<point x="342" y="27" type="line"/>
			<point x="202" y="20" type="line"/>
		</contour>
		<contour>
			<point x="331" y="0" type="curve"/>
			<point x="369" y="0" type="line"/>
			<point x="366" y="97"/>
			<point x="366" y="115"/>
			<point x="366" y="289" type="curve"/>
			<point x="333" y="289" type="line"/>
			<point x="333" y="115"/>
			<point x="333" y="97"/>
		</contour>
		<contour>
			<point x="345" y="250" type="line"/>
			<point x="355" y="253" type="line"/>
			<point x="590" y="677" type="line"/>
			<point x="561" y="677" type="line"/>
			<point x="344" y="279" type="line"/>
			<point x="361" y="283" type="line"/>
			<point x="144" y="677" type="line"/>
			<point x="109" y="677" type="line"/>
		</contour>
		<contour>
			<point x="34" y="657" type="line"/>
			<point x="135" y="650" type="line"/>
			<point x="151" y="650" type="line"/>
			<point x="279" y="657" type="line"/>
			<point x="279" y="677" type="line"/>
			<point x="34" y="677" type="line"/>
		</contour>
		<contour>
			<point x="425" y="657" type="line"/>
			<point x="552" y="650" type="line"/>
			<point x="568" y="650" type="line"/>
			<point x="670" y="657" type="line"/>
			<point x="670" y="677" type="line"/>
			<point x="425" y="677" type="line"/>
		</contour>
	</outline>
	<anchor name="aboveUC" x="356" y="682"/>
	<anchor name="belowLC" x="349" y="-22"/>
</glyph>
<glyph name="Z" format="2">
	<unicode hex="005A"/>
	<advance width="610"/>
	<outline>
		<contour>
			<point x="33" y="0" type="line"/>
			<point x="566" y="0" type="line"/>
			<point x="578" y="163" type="line"/>
			<point x="553" y="163" type="line"/>
			<point x="528" y="8" type="line"/>
			<point x="539" y="22" type="line"/>
			<point x="54" y="22" type="line"/>
			<point x="62" y="7" type="line"/>
			<point x="557" y="657" type="line"/>
			<point x="557" y="677" type="line"/>
			<point x="58" y="677" type="line"/>
			<point x="50" y="514" type="line"/>
			<point x="74" y="514" type="line"/>
			<point x="96" y="668" type="line"/>
			<point x="80" y="655" type="line"/>
			<point x="536" y="655" type="line"/>
			<point x="527" y="667" type="line"/>
			<point x="33" y="20" type="line"/>
		</contour>
	</outline>
	<anchor name="aboveUC" x="316" y="682"/>
	<anchor name="belowLC" x="315" y="-22"/>
</glyph>
<glyph name="bracketleft" format="2">
	<unicode hex="005B"/>
	<advance width="296"/>
	<outline>
		<contour>
			<point x="96" y="52"/>
			<point x="96" y="-54"/>
			<point x="96" y="-160" type="curve"/>
			<point x="128" y="-160" type="line"/>
			<point x="128" y="-54"/>
			<point x="128" y="52"/>
			<point x="128" y="158" type="curve" smooth="yes"/>
			<point x="128" y="398" type="line" smooth="yes"/>
			<point x="128" y="504"/>
			<point x="128" y="610"/>
			<point x="128" y="716" type="curve"/>
			<point x="96" y="716" type="line"/>
			<point x="96" y="610"/>
			<point x="96" y="504"/>
			<point x="96" y="398" type="curve" smooth="yes"/>
			<point x="96" y="158" type="line" smooth="yes"/>
		</contour>
		<contour>
			<point x="116" y="-160" type="line"/>
			<point x="248" y="-160" type="line"/>
			<point x="248" y="-132" type="line"/>
			<point x="124" y="-132" type="line"/>
			<point x="116" y="-132" type="line"/>
		</contour>
		<contour>
			<point x="116" y="688" type="line"/>
			<point x="124" y="688" type="line"/>
			<point x="248" y="688" type="line"/>
			<point x="248" y="716" type="line"/>
			<point x="116" y="716" type="line"/>
		</contour>
	</outline>
</glyph>
<glyph name="underscore" format="2">
	<unicode hex="005F"/>
	<advance width="508"/>
	<outline>
		<contour>
			<point x="-5" y="-43" type="line"/>
			<point x="513" y="-43" type="line"/>
			<point x="513" y="-13" type="line"/>
			<point x="-5" y="-13" type="line"/>
		</contour>
	</outline>
</glyph>
<glyph name="a" format="2">
	<unicode hex="0061"/>
	<advance width="548"/>
	<outline>
		<contour>
			<point x="60" y="30"/>
			<point x="118" y="-14"/>
			<point x="191" y="-14" type="curve" smooth="yes"/>
			<point x="252" y="-14"/>
			<point x="318" y="18"/>
			<point x="376" y="98" type="curve"/>
			<point x="406" y="98" type="line"/>
			<point x="406" y="137" type="line"/>
			<point x="321" y="52"/>
			<point x="268" y="16"/>
			<point x="199" y="16" type="curve" smooth="yes"/>
			<point x="138" y="16"/>
			<point x="96" y="55"/>
			<point x="96" y="117" type="curve" smooth="yes"/>
			<point x="96" y="162"/>
			<point x="118" y="193"/>
			<point x="142" y="225" type="curve"/>
			<point x="409" y="307" type="line"/>
			<point x="409" y="320" type="line"/>
			<point x="352" y="307"/>
			<point x="295" y="290"/>
			<point x="208" y="266" type="curve" smooth="yes"/>
			<point x="108" y="239"/>
			<point x="60" y="187"/>
			<point x="60" y="115" type="curve" smooth="yes"/>
		</contour>
		<contour>
			<point x="472" y="-14" type="curve" smooth="yes"/>
			<point x="498" y="-14"/>
			<point x="518" y="-5"/>
			<point x="539" y="7" type="curve"/>
			<point x="533" y="27" type="line"/>
			<point x="513" y="20"/>
			<point x="496" y="16"/>
			<point x="481" y="16" type="curve" smooth="yes"/>
			<point x="445" y="16"/>
			<point x="428" y="38"/>
			<point x="428" y="118" type="curve" smooth="yes"/>
			<point x="428" y="356" type="line" smooth="yes"/>
			<point x="428" y="462"/>
			<point x="371" y="507"/>
			<point x="262" y="507" type="curve" smooth="yes"/>
			<point x="170" y="507"/>
			<point x="92" y="463"/>
			<point x="67" y="377" type="curve"/>
			<point x="71" y="365"/>
			<point x="78" y="358"/>
			<point x="93" y="358" type="curve" smooth="yes"/>
			<point x="105" y="358"/>
			<point x="115" y="365"/>
			<point x="120" y="384" type="curve" smooth="yes"/>
			<point x="144" y="474" type="line"/>
			<point x="126" y="459" type="line"/>
			<point x="158" y="471"/>
			<point x="208" y="480"/>
			<point x="252" y="480" type="curve" smooth="yes"/>
			<point x="353" y="480"/>
			<point x="394" y="445"/>
			<point x="394" y="340" type="curve" smooth="yes"/>
			<point x="394" y="102" type="line"/>
			<point x="398" y="26"/>
			<point x="418" y="-14"/>
		</contour>
	</outline>
	<anchor name="aboveLC" x="259" y="525"/>
	<anchor name="belowLC" x="267" y="-23"/>
	<anchor name="ogonek" x="482" y="0"/>
</glyph>
<glyph name="b" format="2">
	<unicode hex="0062"/>
	<advance width="644"/>
	<outline>
		<contour>
			<point x="36" y="0" type="line"/>
			<point x="176" y="-2" type="line"/>
			<point x="178" y="104" type="line"/>
			<point x="180" y="104" type="line"/>
			<point x="180" y="384" type="line"/>
			<point x="178" y="384" type="line"/>
			<point x="180" y="632" type="line"/>
			<point x="180" y="748" type="line"/>
			<point x="164" y="748" type="line"/>
			<point x="32" y="736" type="line"/>
			<point x="32" y="712" type="line"/>
			<point x="148" y="708" type="line"/>
			<point x="148" y="220" type="line"/>
			<point x="148" y="30" type="line"/>
			<point x="36" y="26" type="line"/>
		</contour>
		<contour>
			<point x="190" y="88" type="line"/>
			<point x="228" y="28"/>
			<point x="276" y="-16"/>
			<point x="360" y="-16" type="curve" smooth="yes"/>
			<point x="488" y="-16"/>
			<point x="584" y="80"/>
			<point x="584" y="250" type="curve" smooth="yes"/>
			<point x="584" y="420"/>
			<point x="488" y="512"/>
			<point x="360" y="512" type="curve" smooth="yes"/>
			<point x="276" y="512"/>
			<point x="228" y="468"/>
			<point x="190" y="408" type="curve"/>
			<point x="172" y="408" type="line"/>
			<point x="172" y="360" type="line"/>
			<point x="228" y="440"/>
			<point x="276" y="484"/>
			<point x="356" y="484" type="curve" smooth="yes"/>
			<point x="472" y="484"/>
			<point x="551" y="404"/>
			<point x="551" y="248" type="curve" smooth="yes"/>
			<point x="551" y="92"/>
			<point x="472" y="12"/>
			<point x="356" y="12" type="curve" smooth="yes"/>
			<point x="276" y="12"/>
			<point x="228" y="56"/>
			<point x="172" y="136" type="curve"/>
			<point x="172" y="88" type="line"/>
		</contour>
	</outline>
	<anchor name="aboveLC" x="162" y="766"/>
	<anchor name="belowLC" x="365" y="-23"/>
</glyph>
<glyph name="c" format="2">
	<unicode hex="0063"/>
	<advance width="547"/>
	<outline>
		<contour>
			<point x="58" y="92"/>
			<point x="160" y="-14"/>
			<point x="305" y="-14" type="curve" smooth="yes"/>
			<point x="391" y="-14"/>
			<point x="450" y="22"/>
			<point x="495" y="72" type="curve"/>
			<point x="483" y="83" type="line"/>
			<point x="435" y="37"/>
			<point x="373" y="14"/>
			<point x="307" y="14" type="curve" smooth="yes"/>
			<point x="184" y="14"/>
			<point x="94" y="110"/>
			<point x="94" y="248" type="curve" smooth="yes"/>
			<point x="94" y="390"/>
			<point x="189" y="486"/>
			<point x="311" y="486" type="curve" smooth="yes"/>
			<point x="357" y="486"/>
			<point x="395" y="474"/>
			<point x="444" y="439" type="curve"/>
			<point x="408" y="474" type="line"/>
			<point x="440" y="396" type="line" smooth="yes"/>
			<point x="446" y="382"/>
			<point x="455" y="376"/>
			<point x="469" y="376" type="curve" smooth="yes"/>
			<point x="482" y="376"/>
			<point x="491" y="383"/>
			<point x="494" y="397" type="curve"/>
			<point x="460" y="470"/>
			<point x="392" y="507"/>
			<point x="314" y="507" type="curve" smooth="yes"/>
			<point x="181" y="507"/>
			<point x="58" y="412"/>
			<point x="58" y="247" type="curve" smooth="yes"/>
		</contour>
	</outline>
	<anchor name="aboveLC" x="316" y="525"/>
	<anchor name="belowLC" x="309" y="-23"/>
	<anchor name="baseLC" x="309" y="0"/>
</glyph>
<glyph name="d" format="2">
	<unicode hex="0064"/>
	<advance width="644"/>
	<outline>
		<contour>
			<point x="284" y="-16" type="curve" smooth="yes"/>
			<point x="368" y="-16"/>
			<point x="416" y="28"/>
			<point x="454" y="88" type="curve"/>
			<point x="472" y="88" type="line"/>
			<point x="472" y="136" type="line"/>
			<point x="416" y="56"/>
			<point x="368" y="12"/>
			<point x="288" y="12" type="curve" smooth="yes"/>
			<point x="172" y="12"/>
			<point x="93" y="92"/>
			<point x="93" y="248" type="curve" smooth="yes"/>
			<point x="93" y="404"/>
			<point x="172" y="484"/>
			<point x="288" y="484" type="curve" smooth="yes"/>
			<point x="368" y="484"/>
			<point x="416" y="440"/>
			<point x="472" y="360" type="curve"/>
			<point x="472" y="408" type="line"/>
			<point x="454" y="408" type="line"/>
			<point x="416" y="468"/>
			<point x="368" y="512"/>
			<point x="284" y="512" type="curve" smooth="yes"/>
			<point x="156" y="512"/>
			<point x="60" y="416"/>
			<point x="60" y="246" type="curve" smooth="yes"/>
			<point x="60" y="76"/>
			<point x="156" y="-16"/>
		</contour>
		<contour>
			<point x="468" y="-2" type="line"/>
			<point x="608" y="0" type="line"/>
			<point x="608" y="26" type="line"/>
			<point x="496" y="30" type="line"/>
			<point x="496" y="632" type="line"/>
			<point x="496" y="748" type="line"/>
			<point x="480" y="748" type="line"/>
			<point x="348" y="736" type="line"/>
			<point x="348" y="712" type="line"/>
			<point x="464" y="708" type="line"/>
			<point x="466" y="384" type="line"/>
			<point x="464" y="384" type="line"/>
			<point x="464" y="104" type="line"/>
			<point x="466" y="104" type="line"/>
		</contour>
	</outline>
	<anchor name="aboveLC" x="451" y="766"/>
	<anchor name="belowLC" x="317" y="-23"/>
</glyph>
<glyph name="e" format="2">
	<unicode hex="0065"/>
	<advance width="550"/>
	<outline>
		<contour>
			<point x="58" y="65"/>
			<point x="183" y="-14"/>
			<point x="311" y="-14" type="curve" smooth="yes"/>
			<point x="379" y="-14"/>
			<point x="449" y="17"/>
			<point x="494" y="69" type="curve"/>
			<point x="480" y="85" type="line"/>
			<point x="434" y="40"/>
			<point x="374" y="16"/>
			<point x="315" y="16" type="curve" smooth="yes"/>
			<point x="195" y="16"/>
			<point x="94" y="91"/>
			<point x="94" y="260" type="curve" smooth="yes"/>
			<point x="94" y="379"/>
			<point x="177" y="487"/>
			<point x="297" y="487" type="curve" smooth="yes"/>
			<point x="407" y="487"/>
			<point x="465" y="407"/>
			<point x="465" y="322" type="curve" smooth="yes"/>
			<point x="465" y="304"/>
			<point x="465" y="291"/>
			<point x="462" y="276" type="curve"/>
			<point x="78" y="276" type="line"/>
			<point x="78" y="255" type="line"/>
			<point x="492" y="255" type="line"/>
			<point x="496" y="271"/>
			<point x="498" y="292"/>
			<point x="498" y="319" type="curve" smooth="yes"/>
			<point x="498" y="419"/>
			<point x="427" y="507"/>
			<point x="297" y="507" type="curve" smooth="yes"/>
			<point x="172" y="507"/>
			<point x="58" y="408"/>
			<point x="58" y="249" type="curve" smooth="yes"/>
		</contour>
	</outline>
	<anchor name="aboveLC" x="304" y="525"/>
	<anchor name="belowLC" x="309" y="-23"/>
	<anchor name="ogonek" x="395" y="0"/>
</glyph>
<glyph name="f" format="2">
	<unicode hex="0066"/>
	<advance width="352"/>
	<outline>
		<contour>
			<point x="40" y="0" type="line"/>
			<point x="304" y="0" type="line"/>
			<point x="304" y="28" type="line"/>
			<point x="172" y="28" type="line"/>
			<point x="156" y="28" type="line"/>
			<point x="40" y="28" type="line"/>
		</contour>
		<contour>
			<point x="148" y="0" type="line"/>
			<point x="180" y="0" type="line"/>
			<point x="180" y="220" type="line"/>
			<point x="180" y="492" type="line" smooth="yes"/>
			<point x="180" y="624"/>
			<point x="228" y="704"/>
			<point x="312" y="740" type="curve"/>
			<point x="332" y="740" type="line"/>
			<point x="364" y="728" type="line"/>
			<point x="364" y="748" type="line"/>
			<point x="316" y="748" type="line"/>
			<point x="336" y="732" type="line" smooth="yes"/>
			<point x="364" y="710"/>
			<point x="378" y="702"/>
			<point x="398" y="702" type="curve" smooth="yes"/>
			<point x="418" y="702"/>
			<point x="426" y="714"/>
			<point x="428" y="724" type="curve"/>
			<point x="420" y="744"/>
			<point x="388" y="760"/>
			<point x="342" y="760" type="curve" smooth="yes"/>
			<point x="296" y="760"/>
			<point x="272" y="744"/>
			<point x="248" y="728" type="curve" smooth="yes"/>
			<point x="212" y="704"/>
			<point x="148" y="640"/>
			<point x="148" y="496" type="curve" smooth="yes"/>
			<point x="148" y="488" type="line"/>
			<point x="156" y="500" type="line"/>
			<point x="40" y="494" type="line"/>
			<point x="40" y="470" type="line"/>
			<point x="148" y="470" type="line"/>
			<point x="148" y="220" type="line"/>
		</contour>
		<contour>
			<point x="164" y="470" type="line"/>
			<point x="328" y="470" type="line"/>
			<point x="328" y="500" type="line"/>
			<point x="164" y="500" type="line"/>
		</contour>
	</outline>
	<anchor name="aboveLC" x="333" y="777"/>
	<anchor name="belowLC" x="171" y="-23"/>
</glyph>
<glyph name="g" format="2">
	<unicode hex="0067"/>
	<advance width="552"/>
	<outline>
		<contour>
			<point x="48" y="-108" type="curve" smooth="yes"/>
			<point x="48" y="-192"/>
			<point x="124" y="-252"/>
			<point x="268" y="-252" type="curve" smooth="yes"/>
			<point x="412" y="-252"/>
			<point x="512" y="-176"/>
			<point x="512" y="-80" type="curve" smooth="yes"/>
			<point x="512" y="-16"/>
			<point x="464" y="28"/>
			<point x="368" y="28" type="curve" smooth="yes"/>
			<point x="216" y="28" type="line" smooth="yes"/>
			<point x="136" y="28"/>
			<point x="104" y="60"/>
			<point x="104" y="100" type="curve" smooth="yes"/>
			<point x="104" y="140"/>
			<point x="128" y="164"/>
			<point x="180" y="204" type="curve"/>
			<point x="144" y="204" type="line"/>
			<point x="144" y="188" type="line"/>
			<point x="112" y="172"/>
			<point x="74" y="148"/>
			<point x="74" y="98" type="curve" smooth="yes"/>
			<point x="74" y="52"/>
			<point x="108" y="28"/>
			<point x="144" y="16" type="curve"/>
			<point x="144" y="0" type="line"/>
			<point x="208" y="0" type="line"/>
			<point x="364" y="0" type="line" smooth="yes"/>
			<point x="448" y="0"/>
			<point x="480" y="-32"/>
			<point x="480" y="-84" type="curve" smooth="yes"/>
			<point x="480" y="-160"/>
			<point x="396" y="-225"/>
			<point x="268" y="-225" type="curve" smooth="yes"/>
			<point x="140" y="-225"/>
			<point x="80" y="-176"/>
			<point x="80" y="-106" type="curve" smooth="yes"/>
			<point x="80" y="-48"/>
			<point x="112" y="-17"/>
			<point x="176" y="4" type="curve"/>
			<point x="160" y="12" type="line"/>
			<point x="96" y="-9"/>
			<point x="48" y="-40"/>
		</contour>
		<contour>
			<point x="68" y="338" type="curve" smooth="yes"/>
			<point x="68" y="244"/>
			<point x="144" y="168"/>
			<point x="254" y="168" type="curve" smooth="yes"/>
			<point x="361" y="168"/>
			<point x="440" y="248"/>
			<point x="440" y="342" type="curve" smooth="yes"/>
			<point x="440" y="436"/>
			<point x="364" y="512"/>
			<point x="254" y="512" type="curve" smooth="yes"/>
			<point x="144" y="512"/>
			<point x="68" y="432"/>
		</contour>
		<contour>
			<point x="408" y="340" type="curve" smooth="yes"/>
			<point x="408" y="260"/>
			<point x="348" y="195"/>
			<point x="254" y="195" type="curve" smooth="yes"/>
			<point x="160" y="195"/>
			<point x="100" y="260"/>
			<point x="100" y="340" type="curve" smooth="yes"/>
			<point x="100" y="420"/>
			<point x="160" y="485"/>
			<point x="254" y="485" type="curve" smooth="yes"/>
			<point x="348" y="485"/>
			<point x="408" y="420"/>
		</contour>
		<contour>
			<point x="360" y="468" type="line"/>
			<point x="520" y="468" type="line"/>
			<point x="520" y="500" type="line"/>
			<point x="496" y="500" type="line"/>
			<point x="380" y="484" type="line"/>
			<point x="360" y="484" type="line"/>
		</contour>
	</outline>
	<anchor name="aboveLC" x="267" y="525"/>
	<anchor name="belowLC" x="297" y="-252"/>
</glyph>
<glyph name="h" format="2">
	<unicode hex="0068"/>
	<advance width="664"/>
	<outline>
		<contour>
			<point x="40" y="0" type="line"/>
			<point x="288" y="0" type="line"/>
			<point x="288" y="28" type="line"/>
			<point x="172" y="28" type="line"/>
			<point x="156" y="28" type="line"/>
			<point x="40" y="28" type="line"/>
		</contour>
		<contour>
			<point x="148" y="0" type="line"/>
			<point x="180" y="0" type="line"/>
			<point x="180" y="220" type="line"/>
			<point x="180" y="632" type="line"/>
			<point x="180" y="748" type="line"/>
			<point x="164" y="748" type="line"/>
			<point x="32" y="736" type="line"/>
			<point x="32" y="712" type="line"/>
			<point x="148" y="708" type="line"/>
			<point x="148" y="220" type="line"/>
		</contour>
		<contour>
			<point x="400" y="0" type="line"/>
			<point x="648" y="0" type="line"/>
			<point x="648" y="28" type="line"/>
			<point x="532" y="28" type="line"/>
			<point x="516" y="28" type="line"/>
			<point x="400" y="28" type="line"/>
		</contour>
		<contour>
			<point x="508" y="0" type="line"/>
			<point x="540" y="0" type="line"/>
			<point x="540" y="220" type="line"/>
			<point x="540" y="352" type="line" smooth="yes"/>
			<point x="540" y="456"/>
			<point x="476" y="512"/>
			<point x="384" y="512" type="curve" smooth="yes"/>
			<point x="300" y="512"/>
			<point x="244" y="472"/>
			<point x="188" y="408" type="curve"/>
			<point x="164" y="408" type="line"/>
			<point x="164" y="368" type="line"/>
			<point x="244" y="440"/>
			<point x="300" y="484"/>
			<point x="380" y="484" type="curve" smooth="yes"/>
			<point x="460" y="484"/>
			<point x="508" y="440"/>
			<point x="508" y="344" type="curve" smooth="yes"/>
			<point x="508" y="220" type="line"/>
		</contour>
	</outline>
	<anchor name="aboveLC" x="147" y="766"/>
	<anchor name="belowLC" x="351" y="-23"/>
</glyph>
<glyph name="i" format="2">
	<unicode hex="0069"/>
	<advance width="344"/>
	<outline>
		<contour>
			<point x="60" y="0" type="line"/>
			<point x="284" y="0" type="line"/>
			<point x="284" y="24" type="line"/>
			<point x="180" y="28" type="line"/>
			<point x="170" y="28" type="line"/>
			<point x="60" y="24" type="line"/>
		</contour>
		<contour>
			<point x="160" y="0" type="line"/>
			<point x="194" y="0" type="line"/>
			<point x="194" y="221" type="line"/>
			<point x="194" y="387" type="line"/>
			<point x="195" y="496" type="line"/>
			<point x="184" y="502" type="line"/>
			<point x="55" y="489" type="line"/>
			<point x="55" y="465" type="line"/>
			<point x="160" y="465" type="line"/>
			<point x="160" y="272" type="line"/>
			<point x="160" y="221" type="line"/>
		</contour>
		<contour>
			<point x="170" y="670" type="curve" smooth="yes"/>
			<point x="191" y="670"/>
			<point x="209" y="685"/>
			<point x="209" y="708" type="curve" smooth="yes"/>
			<point x="209" y="731"/>
			<point x="191" y="744"/>
			<point x="170" y="744" type="curve" smooth="yes"/>
			<point x="149" y="744"/>
			<point x="130" y="731"/>
			<point x="130" y="708" type="curve" smooth="yes"/>
			<point x="130" y="685"/>
			<point x="149" y="670"/>
		</contour>
	</outline>
	<anchor name="aboveLC" x="173" y="721"/>
	<anchor name="belowLC" x="182" y="-23"/>
	<anchor name="ogonek" x="218" y="0"/>
</glyph>
<glyph name="j" format="2">
	<unicode hex="006A"/>
	<advance width="320"/>
	<outline>
		<contour>
			<point x="-4" y="-252" type="curve" smooth="yes"/>
			<point x="72" y="-252"/>
			<point x="112" y="-216"/>
			<point x="140" y="-160" type="curve" smooth="yes"/>
			<point x="168" y="-104"/>
			<point x="176" y="-24"/>
			<point x="176" y="88" type="curve" smooth="yes"/>
			<point x="176" y="384" type="line"/>
			<point x="176" y="500" type="line"/>
			<point x="160" y="500" type="line"/>
			<point x="32" y="484" type="line"/>
			<point x="32" y="460" type="line"/>
			<point x="144" y="460" type="line"/>
			<point x="144" y="272" type="line"/>
			<point x="144" y="88" type="line" smooth="yes"/>
			<point x="144" y="-16"/>
			<point x="136" y="-96"/>
			<point x="116" y="-144" type="curve" smooth="yes"/>
			<point x="96" y="-192"/>
			<point x="80" y="-208"/>
			<point x="54" y="-228" type="curve"/>
			<point x="24" y="-228" type="line"/>
			<point x="52" y="-236" type="line"/>
			<point x="32" y="-224" type="line" smooth="yes"/>
			<point x="12" y="-212"/>
			<point x="-4" y="-206"/>
			<point x="-28" y="-206" type="curve" smooth="yes"/>
			<point x="-54" y="-206"/>
			<point x="-64" y="-218"/>
			<point x="-68" y="-232" type="curve"/>
			<point x="-64" y="-240"/>
			<point x="-44" y="-252"/>
		</contour>
		<contour>
			<point x="160" y="668" type="curve" smooth="yes"/>
			<point x="184" y="668"/>
			<point x="200" y="684"/>
			<point x="200" y="706" type="curve" smooth="yes"/>
			<point x="200" y="728"/>
			<point x="184" y="744"/>
			<point x="160" y="744" type="curve" smooth="yes"/>
			<point x="136" y="744"/>
			<point x="120" y="728"/>
			<point x="120" y="706" type="curve" smooth="yes"/>
			<point x="120" y="684"/>
			<point x="136" y="668"/>
		</contour>
	</outline>
	<anchor name="aboveLC" x="159" y="721"/>
	<anchor name="belowLC" x="38" y="-260"/>
</glyph>
<glyph name="k" format="2">
	<unicode hex="006B"/>
	<advance width="612"/>
	<outline>
		<contour>
			<point x="40" y="0" type="line"/>
			<point x="288" y="0" type="line"/>
			<point x="288" y="28" type="line"/>
			<point x="172" y="28" type="line"/>
			<point x="156" y="28" type="line"/>
			<point x="40" y="28" type="line"/>
		</contour>
		<contour>
			<point x="148" y="0" type="line"/>
			<point x="180" y="0" type="line"/>
			<point x="180" y="220" type="line"/>
			<point x="180" y="632" type="line"/>
			<point x="180" y="748" type="line"/>
			<point x="164" y="748" type="line"/>
			<point x="32" y="736" type="line"/>
			<point x="32" y="712" type="line"/>
			<point x="148" y="708" type="line"/>
			<point x="148" y="220" type="line"/>
		</contour>
		<contour>
			<point x="164" y="192" type="line"/>
			<point x="504" y="500" type="line"/>
			<point x="464" y="500" type="line"/>
			<point x="164" y="226" type="line"/>
		</contour>
		<contour>
			<point x="472" y="0" type="line"/>
			<point x="592" y="0" type="line"/>
			<point x="592" y="27" type="line"/>
			<point x="492" y="29" type="line"/>
			<point x="304" y="332" type="line"/>
			<point x="276" y="316" type="line"/>
		</contour>
		<contour>
			<point x="332" y="474" type="line"/>
			<point x="440" y="470" type="line"/>
			<point x="456" y="470" type="line"/>
			<point x="568" y="474" type="line"/>
			<point x="568" y="500" type="line"/>
			<point x="332" y="500" type="line"/>
		</contour>
	</outline>
	<anchor name="aboveLC" x="167" y="766"/>
	<anchor name="belowLC" x="372" y="-23"/>
</glyph>
<glyph name="l" format="2">
	<unicode hex="006C"/>
	<advance width="339"/>
	<outline>
		<contour>
			<point x="43" y="0" type="line"/>
			<point x="298" y="0" type="line"/>
			<point x="298" y="21" type="line"/>
			<point x="176" y="27" type="line"/>
			<point x="166" y="27" type="line"/>
			<point x="43" y="21" type="line"/>
		</contour>
		<contour>
			<point x="157" y="155"/>
			<point x="156" y="47"/>
			<point x="153" y="0" type="curve"/>
			<point x="192" y="0" type="line"/>
			<point x="189" y="47"/>
			<point x="188" y="155"/>
			<point x="188" y="220" type="curve" smooth="yes"/>
			<point x="188" y="628" type="line"/>
			<point x="190" y="777" type="line"/>
			<point x="175" y="785" type="line"/>
			<point x="55" y="773" type="line"/>
			<point x="55" y="752" type="line"/>
			<point x="157" y="752" type="line"/>
			<point x="157" y="220" type="line" smooth="yes"/>
		</contour>
	</outline>
	<anchor name="aboveLC" x="159" y="766"/>
	<anchor name="belowLC" x="174" y="-23"/>
</glyph>
<glyph name="m" format="2">
	<unicode hex="006D"/>
	<advance width="992"/>
	<outline>
		<contour>
			<point x="40" y="0" type="line"/>
			<point x="288" y="0" type="line"/>
			<point x="288" y="28" type="line"/>
			<point x="172" y="28" type="line"/>
			<point x="156" y="28" type="line"/>
			<point x="40" y="28" type="line"/>
		</contour>
		<contour>
			<point x="148" y="0" type="line"/>
			<point x="180" y="0" type="line"/>
			<point x="180" y="220" type="line"/>
			<point x="180" y="404" type="line"/>
			<point x="176" y="404" type="line"/>
			<point x="172" y="500" type="line"/>
			<point x="156" y="500" type="line"/>
			<point x="36" y="484" type="line"/>
			<point x="36" y="460" type="line"/>
			<point x="148" y="460" type="line"/>
			<point x="148" y="272" type="line"/>
			<point x="148" y="220" type="line"/>
		</contour>
		<contour>
			<point x="384" y="0" type="line"/>
			<point x="632" y="0" type="line"/>
			<point x="632" y="28" type="line"/>
			<point x="516" y="28" type="line"/>
			<point x="500" y="28" type="line"/>
			<point x="384" y="28" type="line"/>
		</contour>
		<contour>
			<point x="492" y="0" type="line"/>
			<point x="524" y="0" type="line"/>
			<point x="524" y="220" type="line"/>
			<point x="524" y="356" type="line" smooth="yes"/>
			<point x="524" y="456"/>
			<point x="464" y="512"/>
			<point x="376" y="512" type="curve" smooth="yes"/>
			<point x="296" y="512"/>
			<point x="244" y="472"/>
			<point x="188" y="408" type="curve"/>
			<point x="164" y="408" type="line"/>
			<point x="164" y="368" type="line"/>
			<point x="244" y="440"/>
			<point x="296" y="484"/>
			<point x="372" y="484" type="curve" smooth="yes"/>
			<point x="448" y="484"/>
			<point x="492" y="440"/>
			<point x="492" y="348" type="curve" smooth="yes"/>
			<point x="492" y="220" type="line"/>
		</contour>
		<contour>
			<point x="728" y="0" type="line"/>
			<point x="976" y="0" type="line"/>
			<point x="976" y="28" type="line"/>
			<point x="860" y="28" type="line"/>
			<point x="844" y="28" type="line"/>
			<point x="728" y="28" type="line"/>
		</contour>
		<contour>
			<point x="836" y="0" type="line"/>
			<point x="868" y="0" type="line"/>
			<point x="868" y="220" type="line"/>
			<point x="868" y="356" type="line" smooth="yes"/>
			<point x="868" y="456"/>
			<point x="808" y="512"/>
			<point x="720" y="512" type="curve" smooth="yes"/>
			<point x="640" y="512"/>
			<point x="588" y="472"/>
			<point x="532" y="408" type="curve"/>
			<point x="508" y="408" type="line"/>
			<point x="508" y="368" type="line"/>
			<point x="588" y="440"/>
			<point x="640" y="484"/>
			<point x="716" y="484" type="curve" smooth="yes"/>
			<point x="792" y="484"/>
			<point x="836" y="440"/>
			<point x="836" y="348" type="curve" smooth="yes"/>
			<point x="836" y="220" type="line"/>
		</contour>
	</outline>
	<anchor name="aboveLC" x="497" y="525"/>
	<anchor name="belowLC" x="504" y="-23"/>
</glyph>
<glyph name="n" format="2">
	<unicode hex="006E"/>
	<advance width="664"/>
	<outline>
		<contour>
			<point x="40" y="0" type="line"/>
			<point x="288" y="0" type="line"/>
			<point x="288" y="28" type="line"/>
			<point x="172" y="28" type="line"/>
			<point x="156" y="28" type="line"/>
			<point x="40" y="28" type="line"/>
		</contour>
		<contour>
			<point x="148" y="0" type="line"/>
			<point x="180" y="0" type="line"/>
			<point x="180" y="220" type="line"/>
			<point x="180" y="404" type="line"/>
			<point x="176" y="404" type="line"/>
			<point x="172" y="500" type="line"/>
			<point x="156" y="500" type="line"/>
			<point x="36" y="484" type="line"/>
			<point x="36" y="460" type="line"/>
			<point x="148" y="460" type="line"/>
			<point x="148" y="272" type="line"/>
			<point x="148" y="220" type="line"/>
		</contour>
		<contour>
			<point x="400" y="0" type="line"/>
			<point x="648" y="0" type="line"/>
			<point x="648" y="28" type="line"/>
			<point x="532" y="28" type="line"/>
			<point x="516" y="28" type="line"/>
			<point x="400" y="28" type="line"/>
		</contour>
		<contour>
			<point x="508" y="0" type="line"/>
			<point x="540" y="0" type="line"/>
			<point x="540" y="220" type="line"/>
			<point x="540" y="352" type="line" smooth="yes"/>
			<point x="540" y="456"/>
			<point x="476" y="512"/>
			<point x="384" y="512" type="curve" smooth="yes"/>
			<point x="300" y="512"/>
			<point x="244" y="472"/>
			<point x="188" y="408" type="curve"/>
			<point x="164" y="408" type="line"/>
			<point x="164" y="368" type="line"/>
			<point x="244" y="440"/>
			<point x="300" y="484"/>
			<point x="380" y="484" type="curve" smooth="yes"/>
			<point x="460" y="484"/>
			<point x="508" y="440"/>
			<point x="508" y="344" type="curve" smooth="yes"/>
			<point x="508" y="220" type="line"/>
		</contour>
	</outline>
	<anchor name="aboveLC" x="335" y="525"/>
	<anchor name="belowLC" x="349" y="-23"/>
</glyph>
<glyph name="o" format="2">
	<unicode hex="006F"/>
	<advance width="600"/>
	<outline>
		<contour>
			<point x="300" y="-12" type="curve" smooth="yes"/>
			<point x="428" y="-12"/>
			<point x="540" y="84"/>
			<point x="540" y="250" type="curve" smooth="yes"/>
			<point x="540" y="416"/>
			<point x="428" y="512"/>
			<point x="300" y="512" type="curve" smooth="yes"/>
			<point x="172" y="512"/>
			<point x="60" y="416"/>
			<point x="60" y="250" type="curve" smooth="yes"/>
			<point x="60" y="84"/>
			<point x="172" y="-12"/>
		</contour>
		<contour>
			<point x="300" y="16" type="curve" smooth="yes"/>
			<point x="188" y="16"/>
			<point x="93" y="100"/>
			<point x="93" y="252" type="curve" smooth="yes"/>
			<point x="93" y="404"/>
			<point x="188" y="484"/>
			<point x="300" y="484" type="curve" smooth="yes"/>
			<point x="412" y="484"/>
			<point x="507" y="400"/>
			<point x="507" y="248" type="curve" smooth="yes"/>
			<point x="507" y="96"/>
			<point x="412" y="16"/>
		</contour>
	</outline>
	<anchor name="aboveLC" x="301" y="525"/>
	<anchor name="belowLC" x="298" y="-23"/>
	<anchor name="hornLC" x="445" y="512"/>
	<anchor name="ogonek" x="386" y="0"/>
</glyph>
<glyph name="p" format="2">
	<unicode hex="0070"/>
	<advance width="646"/>
	<outline>
		<contour>
			<point x="51" y="-216" type="line"/>
			<point x="300" y="-216" type="line"/>
			<point x="300" y="-192" type="line"/>
			<point x="172" y="-188" type="line"/>
			<point x="162" y="-188" type="line"/>
			<point x="51" y="-192" type="line"/>
		</contour>
		<contour>
			<point x="151" y="-216" type="line"/>
			<point x="185" y="-216" type="line"/>
			<point x="185" y="4" type="line"/>
			<point x="185" y="63" type="line"/>
			<point x="185" y="72" type="line"/>
			<point x="185" y="406" type="line"/>
			<point x="185" y="412" type="line"/>
			<point x="182" y="496" type="line"/>
			<point x="168" y="502" type="line"/>
			<point x="45" y="489" type="line"/>
			<point x="45" y="465" type="line"/>
			<point x="151" y="465" type="line"/>
			<point x="151" y="268" type="line"/>
			<point x="151" y="4" type="line"/>
		</contour>
		<contour>
			<point x="236" y="9"/>
			<point x="314" y="-14"/>
			<point x="365" y="-14" type="curve" smooth="yes"/>
			<point x="502" y="-14"/>
			<point x="588" y="90"/>
			<point x="588" y="254" type="curve" smooth="yes"/>
			<point x="588" y="402"/>
			<point x="505" y="507"/>
			<point x="370" y="507" type="curve" smooth="yes"/>
			<point x="301" y="507"/>
			<point x="239" y="464"/>
			<point x="214" y="428" type="curve"/>
			<point x="176" y="428" type="line"/>
			<point x="178" y="393" type="line"/>
			<point x="239" y="443"/>
			<point x="299" y="477"/>
			<point x="364" y="477" type="curve" smooth="yes"/>
			<point x="472" y="477"/>
			<point x="552" y="401"/>
			<point x="552" y="254" type="curve" smooth="yes"/>
			<point x="552" y="84"/>
			<point x="463" y="16"/>
			<point x="364" y="16" type="curve" smooth="yes"/>
			<point x="295" y="16"/>
			<point x="238" y="38"/>
			<point x="181" y="90" type="curve"/>
			<point x="168" y="55" type="line"/>
			<point x="215" y="55" type="line"/>
		</contour>
	</outline>
	<anchor name="aboveLC" x="340" y="525"/>
	<anchor name="belowLC" x="164" y="-260"/>
</glyph>
<glyph name="q" format="2">
	<unicode hex="0071"/>
	<advance width="636"/>
	<outline>
		<contour>
			<point x="340" y="-240" type="line"/>
			<point x="604" y="-240" type="line"/>
			<point x="604" y="-212" type="line"/>
			<point x="488" y="-212" type="line"/>
			<point x="472" y="-212" type="line"/>
			<point x="340" y="-212" type="line"/>
		</contour>
		<contour>
			<point x="60" y="246" type="curve" smooth="yes"/>
			<point x="60" y="76"/>
			<point x="156" y="-16"/>
			<point x="284" y="-16" type="curve" smooth="yes"/>
			<point x="368" y="-16"/>
			<point x="416" y="28"/>
			<point x="454" y="88" type="curve"/>
			<point x="472" y="88" type="line"/>
			<point x="472" y="136" type="line"/>
			<point x="416" y="56"/>
			<point x="368" y="12"/>
			<point x="288" y="12" type="curve" smooth="yes"/>
			<point x="172" y="12"/>
			<point x="93" y="92"/>
			<point x="93" y="248" type="curve" smooth="yes"/>
			<point x="93" y="404"/>
			<point x="172" y="484"/>
			<point x="288" y="484" type="curve" smooth="yes"/>
			<point x="368" y="484"/>
			<point x="416" y="440"/>
			<point x="472" y="360" type="curve"/>
			<point x="472" y="408" type="line"/>
			<point x="454" y="408" type="line"/>
			<point x="416" y="468"/>
			<point x="368" y="512"/>
			<point x="284" y="512" type="curve" smooth="yes"/>
			<point x="156" y="512"/>
			<point x="60" y="416"/>
		</contour>
		<contour>
			<point x="464" y="4" type="line"/>
			<point x="464" y="-240" type="line"/>
			<point x="496" y="-240" type="line"/>
			<point x="496" y="4" type="line"/>
			<point x="496" y="392" type="line"/>
			<point x="498" y="500" type="line"/>
			<point x="470" y="500" type="line"/>
			<point x="464" y="392" type="line"/>
			<point x="464" y="96" type="line"/>
			<point x="466" y="96" type="line"/>
		</contour>
	</outline>
	<anchor name="aboveLC" x="309" y="525"/>
	<anchor name="belowLC" x="470" y="-260"/>
</glyph>
<glyph name="r" format="2">
	<unicode hex="0072"/>
	<advance width="458"/>
	<outline>
		<contour>
			<point x="55" y="0" type="line"/>
			<point x="299" y="0" type="line"/>
			<point x="299" y="24" type="line"/>
			<point x="175" y="28" type="line"/>
			<point x="165" y="28" type="line"/>
			<point x="55" y="24" type="line"/>
		</contour>
		<contour>
			<point x="155" y="0" type="line"/>
			<point x="189" y="0" type="line"/>
			<point x="189" y="220" type="line"/>
			<point x="189" y="378" type="line"/>
			<point x="185" y="496" type="line"/>
			<point x="174" y="502" type="line"/>
			<point x="50" y="489" type="line"/>
			<point x="50" y="465" type="line"/>
			<point x="155" y="465" type="line"/>
			<point x="155" y="272" type="line"/>
			<point x="155" y="220" type="line"/>
		</contour>
		<contour>
			<point x="186" y="354" type="line"/>
			<point x="239" y="432"/>
			<point x="303" y="479"/>
			<point x="378" y="495" type="curve"/>
			<point x="338" y="496" type="line"/>
			<point x="360" y="478" type="line" smooth="yes"/>
			<point x="382" y="460"/>
			<point x="396" y="449"/>
			<point x="416" y="449" type="curve" smooth="yes"/>
			<point x="438" y="449"/>
			<point x="450" y="458"/>
			<point x="450" y="479" type="curve"/>
			<point x="443" y="494"/>
			<point x="414" y="507"/>
			<point x="376" y="507" type="curve" smooth="yes"/>
			<point x="302" y="507"/>
			<point x="254" y="461"/>
			<point x="206" y="396" type="curve"/>
			<point x="173" y="396" type="line"/>
		</contour>
	</outline>
</glyph>
<glyph name="s" format="2">
	<unicode hex="0073"/>
	<advance width="477"/>
	<outline>
		<contour>
			<point x="227" y="-14" type="curve" smooth="yes"/>
			<point x="364" y="-14"/>
			<point x="427" y="46"/>
			<point x="427" y="117" type="curve" smooth="yes"/>
			<point x="427" y="184"/>
			<point x="390" y="219"/>
			<point x="285" y="254" type="curve" smooth="yes"/>
			<point x="225" y="274" type="line" smooth="yes"/>
			<point x="147" y="300"/>
			<point x="109" y="326"/>
			<point x="109" y="382" type="curve" smooth="yes"/>
			<point x="109" y="438"/>
			<point x="153" y="484"/>
			<point x="249" y="484" type="curve" smooth="yes"/>
			<point x="294" y="484"/>
			<point x="345" y="478"/>
			<point x="390" y="469" type="curve"/>
			<point x="390" y="480" type="line"/>
			<point x="367" y="494" type="line"/>
			<point x="377" y="391" type="line"/>
			<point x="407" y="391" type="line"/>
			<point x="410" y="484" type="line"/>
			<point x="356" y="501"/>
			<point x="307" y="507"/>
			<point x="254" y="507" type="curve" smooth="yes"/>
			<point x="140" y="507"/>
			<point x="76" y="454"/>
			<point x="76" y="379" type="curve" smooth="yes"/>
			<point x="76" y="306"/>
			<point x="131" y="267"/>
			<point x="213" y="240" type="curve" smooth="yes"/>
			<point x="267" y="222" type="line" smooth="yes"/>
			<point x="366" y="190"/>
			<point x="394" y="166"/>
			<point x="394" y="117" type="curve" smooth="yes"/>
			<point x="394" y="55"/>
			<point x="340" y="9"/>
			<point x="229" y="9" type="curve" smooth="yes"/>
			<point x="155" y="9"/>
			<point x="116" y="16"/>
			<point x="75" y="27" type="curve"/>
			<point x="75" y="14" type="line"/>
			<point x="103" y="7" type="line"/>
			<point x="86" y="115" type="line"/>
			<point x="56" y="115" type="line"/>
			<point x="59" y="9" type="line"/>
			<point x="116" y="-7"/>
			<point x="163" y="-14"/>
		</contour>
	</outline>
	<anchor name="aboveLC" x="242" y="525"/>
	<anchor name="belowLC" x="232" y="-23"/>
	<anchor name="baseLC" x="232" y="0"/>
</glyph>
<glyph name="t" format="2">
	<unicode hex="0074"/>
	<advance width="364"/>
	<outline>
		<contour>
			<point x="139" y="29"/>
			<point x="166" y="-14"/>
			<point x="248" y="-14" type="curve" smooth="yes"/>
			<point x="287" y="-14"/>
			<point x="315" y="-7"/>
			<point x="344" y="8" type="curve"/>
			<point x="337" y="31" type="line"/>
			<point x="310" y="21"/>
			<point x="287" y="17"/>
			<point x="251" y="17" type="curve" smooth="yes"/>
			<point x="200" y="17"/>
			<point x="174" y="46"/>
			<point x="174" y="116" type="curve" smooth="yes"/>
			<point x="174" y="474" type="line"/>
			<point x="170" y="485" type="line"/>
			<point x="176" y="650" type="line"/>
			<point x="151" y="650" type="line"/>
			<point x="139" y="481" type="line"/>
			<point x="152" y="495" type="line"/>
			<point x="20" y="489" type="line"/>
			<point x="20" y="462" type="line"/>
			<point x="140" y="462" type="line"/>
			<point x="140" y="183" type="line" smooth="yes"/>
			<point x="140" y="154"/>
			<point x="139" y="138"/>
			<point x="139" y="108" type="curve" smooth="yes"/>
		</contour>
		<contour>
			<point x="160" y="462" type="line"/>
			<point x="334" y="462" type="line"/>
			<point x="334" y="494" type="line"/>
			<point x="160" y="494" type="line"/>
		</contour>
	</outline>
	<anchor name="aboveLC" x="149" y="662"/>
	<anchor name="belowLC" x="211" y="-23"/>
	<anchor name="baseLC" x="211" y="0"/>
</glyph>
<glyph name="u" format="2">
	<unicode hex="0075"/>
	<advance width="656"/>
	<outline>
		<contour>
			<point x="280" y="-12" type="curve" smooth="yes"/>
			<point x="364" y="-12"/>
			<point x="420" y="28"/>
			<point x="476" y="92" type="curve"/>
			<point x="500" y="92" type="line"/>
			<point x="500" y="132" type="line"/>
			<point x="420" y="60"/>
			<point x="364" y="16"/>
			<point x="284" y="16" type="curve" smooth="yes"/>
			<point x="204" y="16"/>
			<point x="156" y="60"/>
			<point x="156" y="156" type="curve" smooth="yes"/>
			<point x="156" y="384" type="line"/>
			<point x="156" y="500" type="line"/>
			<point x="140" y="500" type="line"/>
			<point x="8" y="490" type="line"/>
			<point x="8" y="466" type="line"/>
			<point x="140" y="462" type="line"/>
			<point x="124" y="484" type="line"/>
			<point x="124" y="148" type="line" smooth="yes"/>
			<point x="124" y="44"/>
			<point x="188" y="-12"/>
		</contour>
		<contour>
			<point x="490" y="-2" type="line"/>
			<point x="628" y="0" type="line"/>
			<point x="628" y="26" type="line"/>
			<point x="516" y="30" type="line"/>
			<point x="516" y="384" type="line"/>
			<point x="516" y="500" type="line"/>
			<point x="500" y="500" type="line"/>
			<point x="368" y="490" type="line"/>
			<point x="368" y="466" type="line"/>
			<point x="484" y="462" type="line"/>
			<point x="484" y="96" type="line"/>
			<point x="488" y="96" type="line"/>
		</contour>
	</outline>
	<anchor name="aboveLC" x="275" y="525"/>
	<anchor name="belowLC" x="317" y="-23"/>
	<anchor name="hornLC" x="492" y="488"/>
	<anchor name="ogonek" x="539" y="0"/>
</glyph>
<glyph name="v" format="2">
	<unicode hex="0076"/>
	<advance width="588"/>
	<outline>
		<contour>
			<point x="270" y="0" type="line"/>
			<point x="318" y="0" type="line"/>
			<point x="508" y="500" type="line"/>
			<point x="474" y="500" type="line"/>
			<point x="302" y="28" type="line"/>
			<point x="288" y="28" type="line"/>
			<point x="116" y="500" type="line"/>
			<point x="80" y="500" type="line"/>
		</contour>
		<contour>
			<point x="20" y="474" type="line"/>
			<point x="100" y="470" type="line"/>
			<point x="124" y="470" type="line"/>
			<point x="224" y="474" type="line"/>
			<point x="224" y="500" type="line"/>
			<point x="20" y="500" type="line"/>
		</contour>
		<contour>
			<point x="364" y="474" type="line"/>
			<point x="472" y="470" type="line"/>
			<point x="488" y="470" type="line"/>
			<point x="568" y="474" type="line"/>
			<point x="568" y="500" type="line"/>
			<point x="364" y="500" type="line"/>
		</contour>
	</outline>
	<anchor name="aboveLC" x="266" y="525"/>
	<anchor name="belowLC" x="265" y="-23"/>
</glyph>
<glyph name="w" format="2">
	<unicode hex="0077"/>
	<advance width="884"/>
	<outline>
		<contour>
			<point x="237" y="0" type="line"/>
			<point x="287" y="0" type="line"/>
			<point x="448" y="480" type="line"/>
			<point x="438" y="480" type="line"/>
			<point x="597" y="0" type="line"/>
			<point x="647" y="0" type="line"/>
			<point x="812" y="500" type="line"/>
			<point x="778" y="500" type="line"/>
			<point x="630" y="28" type="line"/>
			<point x="616" y="28" type="line"/>
			<point x="465" y="492" type="line"/>
			<point x="421" y="492" type="line"/>
			<point x="270" y="28" type="line"/>
			<point x="256" y="28" type="line"/>
			<point x="108" y="500" type="line"/>
			<point x="72" y="500" type="line"/>
		</contour>
		<contour>
			<point x="20" y="474" type="line"/>
			<point x="92" y="470" type="line"/>
			<point x="116" y="470" type="line"/>
			<point x="216" y="474" type="line"/>
			<point x="216" y="500" type="line"/>
			<point x="20" y="500" type="line"/>
		</contour>
		<contour>
			<point x="332" y="474" type="line"/>
			<point x="420" y="473" type="line"/>
			<point x="464" y="473" type="line"/>
			<point x="552" y="474" type="line"/>
			<point x="552" y="500" type="line"/>
			<point x="332" y="500" type="line"/>
		</contour>
		<contour>
			<point x="668" y="474" type="line"/>
			<point x="776" y="470" type="line"/>
			<point x="792" y="470" type="line"/>
			<point x="864" y="474" type="line"/>
			<point x="864" y="500" type="line"/>
			<point x="668" y="500" type="line"/>
		</contour>
	</outline>
	<anchor name="aboveLC" x="431" y="525"/>
	<anchor name="belowLC" x="438" y="-23"/>
</glyph>
<glyph name="x" format="2">
	<unicode hex="0078"/>
	<advance width="588"/>
	<outline>
		<contour>
			<point x="24" y="0" type="line"/>
			<point x="232" y="0" type="line"/>
			<point x="232" y="28" type="line"/>
			<point x="128" y="28" type="line"/>
			<point x="112" y="28" type="line"/>
			<point x="24" y="28" type="line"/>
		</contour>
		<contour>
			<point x="80" y="0" type="line"/>
			<point x="117" y="0" type="line"/>
			<point x="302" y="248" type="line"/>
			<point x="282" y="264" type="line"/>
		</contour>
		<contour>
			<point x="352" y="0" type="line"/>
			<point x="564" y="0" type="line"/>
			<point x="564" y="28" type="line"/>
			<point x="476" y="28" type="line"/>
			<point x="456" y="28" type="line"/>
			<point x="352" y="28" type="line"/>
		</contour>
		<contour>
			<point x="310" y="248" type="line"/>
			<point x="500" y="500" type="line"/>
			<point x="463" y="500" type="line"/>
			<point x="290" y="264" type="line"/>
		</contour>
		<contour>
			<point x="286" y="246" type="line"/>
			<point x="466" y="0" type="line"/>
			<point x="508" y="0" type="line"/>
			<point x="302" y="266" type="line"/>
			<point x="130" y="500" type="line"/>
			<point x="88" y="500" type="line"/>
		</contour>
		<contour>
			<point x="32" y="474" type="line"/>
			<point x="120" y="470" type="line"/>
			<point x="140" y="470" type="line"/>
			<point x="244" y="474" type="line"/>
			<point x="244" y="500" type="line"/>
			<point x="32" y="500" type="line"/>
		</contour>
		<contour>
			<point x="348" y="474" type="line"/>
			<point x="452" y="470" type="line"/>
			<point x="468" y="470" type="line"/>
			<point x="556" y="474" type="line"/>
			<point x="556" y="500" type="line"/>
			<point x="348" y="500" type="line"/>
		</contour>
	</outline>
	<anchor name="aboveLC" x="281" y="525"/>
	<anchor name="belowLC" x="277" y="-23"/>
</glyph>
<glyph name="y" format="2">
	<unicode hex="0079"/>
	<advance width="551"/>
	<outline>
		<contour>
			<point x="57" y="-268" type="curve" smooth="yes"/>
			<point x="134" y="-268"/>
			<point x="209" y="-206"/>
			<point x="260" y="-79" type="curve" smooth="yes"/>
			<point x="486" y="494" type="line"/>
			<point x="457" y="494" type="line"/>
			<point x="272" y="14" type="line"/>
			<point x="236" y="-77" type="line" smooth="yes"/>
			<point x="195" y="-182"/>
			<point x="127" y="-248"/>
			<point x="57" y="-248" type="curve"/>
			<point x="76" y="-260" type="line"/>
			<point x="99" y="-256" type="line"/>
			<point x="73" y="-238" type="line" smooth="yes"/>
			<point x="53" y="-225"/>
			<point x="32" y="-215"/>
			<point x="15" y="-215" type="curve" smooth="yes"/>
			<point x="-3" y="-215"/>
			<point x="-18" y="-223"/>
			<point x="-21" y="-236" type="curve"/>
			<point x="-12" y="-259"/>
			<point x="24" y="-268"/>
		</contour>
		<contour>
			<point x="271" y="-27" type="line"/>
			<point x="287" y="6" type="line"/>
			<point x="283" y="15" type="line"/>
			<point x="93" y="494" type="line"/>
			<point x="56" y="494" type="line"/>
		</contour>
		<contour>
			<point x="-16" y="472" type="line"/>
			<point x="84" y="466" type="line"/>
			<point x="94" y="466" type="line"/>
			<point x="202" y="472" type="line"/>
			<point x="202" y="494" type="line"/>
			<point x="-16" y="494" type="line"/>
		</contour>
		<contour>
			<point x="347" y="472" type="line"/>
			<point x="455" y="466" type="line"/>
			<point x="465" y="466" type="line"/>
			<point x="552" y="472" type="line"/>
			<point x="552" y="494" type="line"/>
			<point x="347" y="494" type="line"/>
		</contour>
	</outline>
	<anchor name="aboveLC" x="280" y="525"/>
	<anchor name="belowLC" x="121" y="-265"/>
</glyph>
<glyph name="z" format="2">
	<unicode hex="007A"/>
	<advance width="512"/>
	<outline>
		<contour>
			<point x="60" y="0" type="line"/>
			<point x="460" y="0" type="line"/>
			<point x="468" y="146" type="line"/>
			<point x="445" y="146" type="line"/>
			<point x="418" y="8" type="line"/>
			<point x="433" y="21" type="line"/>
			<point x="77" y="21" type="line"/>
			<point x="87" y="8" type="line"/>
			<point x="449" y="472" type="line"/>
			<point x="449" y="494" type="line"/>
			<point x="66" y="494" type="line"/>
			<point x="59" y="362" type="line"/>
			<point x="83" y="358" type="line"/>
			<point x="105" y="484" type="line"/>
			<point x="86" y="472" type="line"/>
			<point x="428" y="472" type="line"/>
			<point x="421" y="485" type="line"/>
			<point x="60" y="21" type="line"/>
		</contour>
	</outline>
	<anchor name="aboveLC" x="269" y="525"/>
	<anchor name="belowLC" x="271" y="-23"/>
</glyph>
<glyph name="braceleft" format="2">
	<unicode hex="007B"/>
	<advance width="348"/>
	<outline>
		<contour>
			<point x="40" y="264" type="line"/>
			<point x="136" y="252"/>
			<point x="164" y="220"/>
			<point x="164" y="172" type="curve" smooth="yes"/>
			<point x="164" y="116"/>
			<point x="116" y="48"/>
			<point x="116" y="-36" type="curve" smooth="yes"/>
			<point x="116" y="-112"/>
			<point x="168" y="-160"/>
			<point x="280" y="-160" type="curve" smooth="yes"/>
			<point x="320" y="-160" type="line"/>
			<point x="320" y="-132" type="line"/>
			<point x="288" y="-130" type="line" smooth="yes"/>
			<point x="188" y="-124"/>
			<point x="152" y="-92"/>
			<point x="152" y="-36" type="curve" smooth="yes"/>
			<point x="152" y="32"/>
			<point x="192" y="100"/>
			<point x="192" y="176" type="curve" smooth="yes"/>
			<point x="192" y="236"/>
			<point x="152" y="268"/>
			<point x="64" y="272" type="curve"/>
			<point x="64" y="284" type="line"/>
			<point x="152" y="288"/>
			<point x="192" y="320"/>
			<point x="192" y="380" type="curve" smooth="yes"/>
			<point x="192" y="456"/>
			<point x="152" y="524"/>
			<point x="152" y="592" type="curve" smooth="yes"/>
			<point x="152" y="648"/>
			<point x="188" y="680"/>
			<point x="288" y="686" type="curve" smooth="yes"/>
			<point x="320" y="688" type="line"/>
			<point x="320" y="716" type="line"/>
			<point x="280" y="716" type="line" smooth="yes"/>
			<point x="168" y="716"/>
			<point x="116" y="668"/>
			<point x="116" y="592" type="curve" smooth="yes"/>
			<point x="116" y="508"/>
			<point x="164" y="440"/>
			<point x="164" y="384" type="curve" smooth="yes"/>
			<point x="164" y="336"/>
			<point x="136" y="304"/>
			<point x="40" y="292" type="curve"/>
		</contour>
	</outline>
</glyph>
<glyph name="bar" format="2">
	<unicode hex="007C"/>
	<advance width="288"/>
	<outline>
		<contour>
			<point x="128" y="-240" type="line"/>
			<point x="160" y="-240" type="line"/>
			<point x="160" y="748" type="line"/>
			<point x="128" y="748" type="line"/>
		</contour>
	</outline>
</glyph>
<glyph name="asciitilde" format="2">
	<unicode hex="007E"/>
	<advance width="530"/>
	<outline>
		<contour>
			<point x="255" y="328" type="curve" smooth="yes"/>
			<point x="289" y="304"/>
			<point x="317" y="284"/>
			<point x="365" y="284" type="curve" smooth="yes"/>
			<point x="425" y="284"/>
			<point x="461" y="320"/>
			<point x="473" y="388" type="curve"/>
			<point x="445" y="396" type="line"/>
			<point x="433" y="336"/>
			<point x="405" y="316"/>
			<point x="369" y="316" type="curve" smooth="yes"/>
			<point x="333" y="316"/>
			<point x="309" y="336"/>
			<point x="275" y="360" type="curve" smooth="yes"/>
			<point x="241" y="384"/>
			<point x="213" y="404"/>
			<point x="165" y="404" type="curve" smooth="yes"/>
			<point x="105" y="404"/>
			<point x="69" y="368"/>
			<point x="57" y="300" type="curve"/>
			<point x="85" y="292" type="line"/>
			<point x="97" y="352"/>
			<point x="125" y="372"/>
			<point x="161" y="372" type="curve" smooth="yes"/>
			<point x="197" y="372"/>
			<point x="221" y="352"/>
		</contour>
	</outline>
</glyph>
<glyph name="cent" format="2">
	<unicode hex="00A2"/>
	<advance width="530"/>
	<outline>
		<contour>
			<point x="298" y="-50" type="line"/>
			<point x="298" y="667" type="line"/>
			<point x="272" y="667" type="line"/>
			<point x="272" y="-50" type="line"/>
		</contour>
		<contour>
			<point x="294" y="544" type="curve" smooth="yes"/>
			<point x="335" y="544"/>
			<point x="369" y="532"/>
			<point x="412" y="499" type="curve"/>
			<point x="380" y="532" type="line"/>
			<point x="409" y="458" type="line" smooth="yes"/>
			<point x="414" y="445"/>
			<point x="422" y="439"/>
			<point x="435" y="439" type="curve" smooth="yes"/>
			<point x="446" y="439"/>
			<point x="454" y="446"/>
			<point x="457" y="459" type="curve"/>
			<point x="427" y="529"/>
			<point x="366" y="564"/>
			<point x="296" y="564" type="curve" smooth="yes"/>
			<point x="180" y="564"/>
			<point x="72" y="473"/>
			<point x="72" y="315" type="curve" smooth="yes"/>
			<point x="72" y="166"/>
			<point x="161" y="65"/>
			<point x="288" y="65" type="curve" smooth="yes"/>
			<point x="365" y="65"/>
			<point x="418" y="99"/>
			<point x="458" y="147" type="curve"/>
			<point x="447" y="157" type="line"/>
			<point x="404" y="113"/>
			<point x="349" y="91"/>
			<point x="290" y="91" type="curve" smooth="yes"/>
			<point x="182" y="91"/>
			<point x="104" y="183"/>
			<point x="104" y="316" type="curve" smooth="yes"/>
			<point x="104" y="452"/>
			<point x="187" y="544"/>
		</contour>
	</outline>
</glyph>
<glyph name="brokenbar" format="2">
	<unicode hex="00A6"/>
	<advance width="240"/>
	<outline>
		<contour>
			<point x="108" y="-250" type="line"/>
			<point x="134" y="-250" type="line"/>
			<point x="134" y="200" type="line"/>
			<point x="108" y="200" type="line"/>
		</contour>
		<contour>
			<point x="134" y="320" type="line"/>
			<point x="134" y="750" type="line"/>
			<point x="108" y="750" type="line"/>
			<point x="108" y="320" type="line"/>
		</contour>
	</outline>
</glyph>
<glyph name="section" format="2">
	<unicode hex="00A7"/>
	<advance width="496"/>
	<outline>
		<contour>
			<point x="244" y="692" type="curve" smooth="yes"/>
			<point x="148" y="692"/>
			<point x="96" y="636"/>
			<point x="96" y="566" type="curve" smooth="yes"/>
			<point x="96" y="496"/>
			<point x="140" y="460"/>
			<point x="248" y="412" type="curve" smooth="yes"/>
			<point x="356" y="364"/>
			<point x="384" y="336"/>
			<point x="384" y="280" type="curve" smooth="yes"/>
			<point x="384" y="224"/>
			<point x="352" y="184"/>
			<point x="296" y="152" type="curve"/>
			<point x="304" y="140" type="line"/>
			<point x="376" y="168"/>
			<point x="416" y="216"/>
			<point x="416" y="282" type="curve" smooth="yes"/>
			<point x="416" y="356"/>
			<point x="372" y="388"/>
			<point x="264" y="436" type="curve" smooth="yes"/>
			<point x="156" y="484"/>
			<point x="128" y="516"/>
			<point x="128" y="568" type="curve" smooth="yes"/>
			<point x="128" y="620"/>
			<point x="164" y="666"/>
			<point x="244" y="666" type="curve" smooth="yes"/>
			<point x="292" y="666"/>
			<point x="324" y="656"/>
			<point x="356" y="640" type="curve"/>
			<point x="332" y="664" type="line"/>
			<point x="358" y="590" type="line" smooth="yes"/>
			<point x="364" y="572"/>
			<point x="372" y="564"/>
			<point x="386" y="564" type="curve" smooth="yes"/>
			<point x="398" y="564"/>
			<point x="406" y="572"/>
			<point x="408" y="584" type="curve"/>
			<point x="388" y="652"/>
			<point x="324" y="692"/>
		</contour>
		<contour>
			<point x="240" y="-100" type="curve"/>
			<point x="340" y="-100"/>
			<point x="392" y="-40"/>
			<point x="392" y="34" type="curve" smooth="yes"/>
			<point x="392" y="108"/>
			<point x="348" y="148"/>
			<point x="240" y="196" type="curve" smooth="yes"/>
			<point x="132" y="244"/>
			<point x="104" y="272"/>
			<point x="104" y="328" type="curve" smooth="yes"/>
			<point x="104" y="384"/>
			<point x="136" y="424"/>
			<point x="192" y="456" type="curve"/>
			<point x="184" y="468" type="line"/>
			<point x="112" y="440"/>
			<point x="72" y="392"/>
			<point x="72" y="326" type="curve" smooth="yes"/>
			<point x="72" y="252"/>
			<point x="116" y="220"/>
			<point x="224" y="172" type="curve" smooth="yes"/>
			<point x="332" y="124"/>
			<point x="360" y="88"/>
			<point x="360" y="32" type="curve" smooth="yes"/>
			<point x="360" y="-24"/>
			<point x="324" y="-74"/>
			<point x="240" y="-74" type="curve" smooth="yes"/>
			<point x="188" y="-74"/>
			<point x="156" y="-64"/>
			<point x="124" y="-48" type="curve"/>
			<point x="148" y="-72" type="line"/>
			<point x="122" y="2" type="line" smooth="yes"/>
			<point x="116" y="20"/>
			<point x="108" y="28"/>
			<point x="94" y="28" type="curve" smooth="yes"/>
			<point x="82" y="28"/>
			<point x="74" y="20"/>
			<point x="72" y="8" type="curve"/>
			<point x="92" y="-60"/>
			<point x="156" y="-100"/>
		</contour>
	</outline>
</glyph>
<glyph name="logicalnot" format="2">
	<unicode hex="00AC"/>
	<advance width="530"/>
	<outline>
		<contour>
			<point x="40" y="356" type="line"/>
			<point x="467" y="356" type="line"/>
			<point x="456" y="363" type="line"/>
			<point x="456" y="160" type="line"/>
			<point x="490" y="160" type="line"/>
			<point x="490" y="388" type="line"/>
			<point x="40" y="388" type="line"/>
		</contour>
	</outline>
</glyph>
<glyph name="registered" format="2">
	<unicode hex="00AE"/>
	<advance width="460"/>
	<outline>
		<contour>
			<point x="332" y="440" type="line"/>
			<point x="292" y="440" type="line"/>
			<point x="308" y="428" type="line"/>
			<point x="286" y="486" type="line"/>
			<point x="278" y="506"/>
			<point x="272" y="513"/>
			<point x="232" y="514" type="curve"/>
			<point x="232" y="522" type="line"/>
			<point x="272" y="522"/>
			<point x="308" y="534"/>
			<point x="308" y="574" type="curve" smooth="yes"/>
			<point x="308" y="604"/>
			<point x="284" y="624"/>
			<point x="236" y="624" type="curve" smooth="yes"/>
			<point x="192" y="624" type="line"/>
			<point x="192" y="606" type="line"/>
			<point x="232" y="606" type="line" smooth="yes"/>
			<point x="266" y="606"/>
			<point x="280" y="590"/>
			<point x="280" y="568" type="curve" smooth="yes"/>
			<point x="280" y="546"/>
			<point x="266" y="531"/>
			<point x="224" y="528" type="curve" smooth="yes"/>
			<point x="192" y="526" type="line"/>
			<point x="192" y="510" type="line"/>
			<point x="224" y="508" type="line" smooth="yes"/>
			<point x="242" y="507"/>
			<point x="250" y="502"/>
			<point x="256" y="484" type="curve" smooth="yes"/>
			<point x="268" y="448" type="line" smooth="yes"/>
			<point x="274" y="430"/>
			<point x="282" y="418"/>
			<point x="312" y="418" type="curve" smooth="yes"/>
			<point x="322" y="418"/>
			<point x="328" y="419"/>
			<point x="332" y="420" type="curve"/>
		</contour>
		<contour>
			<point x="180" y="440" type="line"/>
			<point x="140" y="440" type="line"/>
			<point x="140" y="420" type="line"/>
			<point x="232" y="420" type="line"/>
			<point x="232" y="440" type="line"/>
			<point x="192" y="440" type="line"/>
		</contour>
		<contour>
			<point x="176" y="604" type="line"/>
			<point x="180" y="604" type="line"/>
			<point x="180" y="624" type="line"/>
			<point x="140" y="624" type="line"/>
			<point x="140" y="604" type="line"/>
		</contour>
		<contour>
			<point x="58" y="516" type="curve" smooth="yes"/>
			<point x="58" y="617"/>
			<point x="140" y="686"/>
			<point x="229" y="686" type="curve" smooth="yes"/>
			<point x="318" y="686"/>
			<point x="400" y="617"/>
			<point x="400" y="516" type="curve" smooth="yes"/>
			<point x="400" y="415"/>
			<point x="319" y="344"/>
			<point x="229" y="344" type="curve" smooth="yes"/>
			<point x="140" y="344"/>
			<point x="58" y="415"/>
		</contour>
		<contour>
			<point x="172" y="420" type="line"/>
			<point x="200" y="420" type="line"/>
			<point x="200" y="624" type="line"/>
			<point x="172" y="624" type="line"/>
		</contour>
		<contour>
			<point x="30" y="516" type="curve" smooth="yes"/>
			<point x="30" y="398"/>
			<point x="127" y="318"/>
			<point x="229" y="318" type="curve" smooth="yes"/>
			<point x="331" y="318"/>
			<point x="428" y="398"/>
			<point x="428" y="516" type="curve" smooth="yes"/>
			<point x="428" y="634"/>
			<point x="332" y="712"/>
			<point x="229" y="712" type="curve" smooth="yes"/>
			<point x="126" y="712"/>
			<point x="30" y="634"/>
		</contour>
	</outline>
</glyph>
<glyph name="plusminus" format="2">
	<unicode hex="00B1"/>
	<advance width="538"/>
	<outline>
		<contour>
			<point x="252" y="96" type="line"/>
			<point x="286" y="96" type="line"/>
			<point x="286" y="568" type="line"/>
			<point x="252" y="568" type="line"/>
		</contour>
		<contour>
			<point x="494" y="316" type="line"/>
			<point x="494" y="348" type="line"/>
			<point x="44" y="348" type="line"/>
			<point x="44" y="316" type="line"/>
		</contour>
		<contour>
			<point x="494" y="0" type="line"/>
			<point x="494" y="32" type="line"/>
			<point x="44" y="32" type="line"/>
			<point x="44" y="0" type="line"/>
		</contour>
	</outline>
</glyph>
<glyph name="two.sups" format="2">
	<unicode hex="00B2"/>
	<advance width="374"/>
	<outline>
		<contour>
			<point x="58" y="413" type="line"/>
			<point x="331" y="413" type="line"/>
			<point x="331" y="446" type="line"/>
			<point x="90" y="446" type="line"/>
			<point x="90" y="459" type="line"/>
			<point x="80" y="442" type="line"/>
			<point x="201" y="553" type="line" smooth="yes"/>
			<point x="271" y="618"/>
			<point x="314" y="670"/>
			<point x="314" y="739" type="curve" smooth="yes"/>
			<point x="314" y="808"/>
			<point x="262" y="846"/>
			<point x="187" y="846" type="curve" smooth="yes"/>
			<point x="110" y="846"/>
			<point x="69" y="801"/>
			<point x="54" y="750" type="curve"/>
			<point x="55" y="740"/>
			<point x="61" y="731"/>
			<point x="74" y="731" type="curve" smooth="yes"/>
			<point x="86" y="731"/>
			<point x="94" y="739"/>
			<point x="99" y="760" type="curve" smooth="yes"/>
			<point x="116" y="818" type="line"/>
			<point x="92" y="792" type="line"/>
			<point x="121" y="815"/>
			<point x="143" y="823"/>
			<point x="185" y="823" type="curve" smooth="yes"/>
			<point x="245" y="823"/>
			<point x="282" y="790"/>
			<point x="282" y="737" type="curve" smooth="yes"/>
			<point x="282" y="674"/>
			<point x="242" y="623"/>
			<point x="176" y="558" type="curve" smooth="yes"/>
			<point x="58" y="442" type="line"/>
		</contour>
	</outline>
</glyph>
<glyph name="three.sups" format="2">
	<unicode hex="00B3"/>
	<advance width="374"/>
	<outline>
		<contour>
			<point x="181" y="405" type="curve" smooth="yes"/>
			<point x="273" y="405"/>
			<point x="327" y="456"/>
			<point x="327" y="527" type="curve" smooth="yes"/>
			<point x="327" y="600"/>
			<point x="274" y="630"/>
			<point x="184" y="633" type="curve"/>
			<point x="184" y="637" type="line"/>
			<point x="268" y="641"/>
			<point x="315" y="681"/>
			<point x="315" y="744" type="curve" smooth="yes"/>
			<point x="315" y="805"/>
			<point x="266" y="846"/>
			<point x="190" y="846" type="curve" smooth="yes"/>
			<point x="127" y="846"/>
			<point x="79" y="817"/>
			<point x="65" y="765" type="curve"/>
			<point x="67" y="755"/>
			<point x="73" y="748"/>
			<point x="85" y="748" type="curve" smooth="yes"/>
			<point x="96" y="748"/>
			<point x="104" y="754"/>
			<point x="109" y="774" type="curve" smooth="yes"/>
			<point x="122" y="822" type="line"/>
			<point x="94" y="799" type="line"/>
			<point x="121" y="815"/>
			<point x="151" y="823"/>
			<point x="184" y="823" type="curve" smooth="yes"/>
			<point x="250" y="823"/>
			<point x="283" y="788"/>
			<point x="283" y="739" type="curve" smooth="yes"/>
			<point x="283" y="688"/>
			<point x="250" y="647"/>
			<point x="161" y="647" type="curve" smooth="yes"/>
			<point x="138" y="647" type="line"/>
			<point x="138" y="623" type="line"/>
			<point x="162" y="623" type="line" smooth="yes"/>
			<point x="254" y="623"/>
			<point x="296" y="586"/>
			<point x="296" y="528" type="curve" smooth="yes"/>
			<point x="296" y="468"/>
			<point x="254" y="428"/>
			<point x="181" y="428" type="curve" smooth="yes"/>
			<point x="138" y="428"/>
			<point x="107" y="435"/>
			<point x="81" y="452" type="curve"/>
			<point x="110" y="425" type="line"/>
			<point x="96" y="475" type="line" smooth="yes"/>
			<point x="91" y="494"/>
			<point x="84" y="503"/>
			<point x="72" y="503" type="curve" smooth="yes"/>
			<point x="59" y="503"/>
			<point x="53" y="495"/>
			<point x="51" y="485" type="curve"/>
			<point x="65" y="432"/>
			<point x="109" y="405"/>
		</contour>
	</outline>
</glyph>
<glyph name="paragraph" format="2">
	<unicode hex="00B6"/>
	<advance width="576"/>
	<outline>
		<contour>
			<point x="436" y="676" type="line"/>
			<point x="436" y="646" type="line"/>
			<point x="444" y="646" type="line"/>
			<point x="552" y="646" type="line"/>
			<point x="552" y="676" type="line"/>
		</contour>
		<contour>
			<point x="416" y="180" type="line"/>
			<point x="416" y="-132" type="line"/>
			<point x="452" y="-132" type="line"/>
			<point x="452" y="180" type="line"/>
			<point x="452" y="367" type="line"/>
			<point x="452" y="676" type="line"/>
			<point x="416" y="676" type="line"/>
		</contour>
		<contour>
			<point x="344" y="646" type="line"/>
			<point x="420" y="646" type="line"/>
			<point x="420" y="676" type="line"/>
			<point x="360" y="676" type="line" smooth="yes"/>
			<point x="172" y="676"/>
			<point x="60" y="584"/>
			<point x="60" y="426" type="curve" smooth="yes"/>
			<point x="60" y="268"/>
			<point x="180" y="176"/>
			<point x="344" y="176" type="curve"/>
		</contour>
	</outline>
</glyph>
<glyph name="one.sups" format="2">
	<unicode hex="00B9"/>
	<advance width="283"/>
	<outline>
		<contour>
			<point x="45" y="818" type="line"/>
			<point x="45" y="794" type="line"/>
			<point x="140" y="816" type="line"/>
			<point x="140" y="611" type="line"/>
			<point x="140" y="413" type="line"/>
			<point x="172" y="413" type="line"/>
			<point x="172" y="611" type="line"/>
			<point x="172" y="665" type="line"/>
			<point x="172" y="853" type="line"/>
			<point x="157" y="853" type="line"/>
		</contour>
		<contour>
			<point x="164" y="439" type="line"/>
			<point x="148" y="439" type="line"/>
			<point x="47" y="439" type="line"/>
			<point x="47" y="413" type="line"/>
			<point x="256" y="413" type="line"/>
			<point x="256" y="439" type="line"/>
		</contour>
	</outline>
</glyph>
<glyph name="Idieresis" format="2">
	<unicode hex="00CF"/>
	<advance width="372"/>
	<outline>
		<contour>
			<point x="96" y="756" type="curve" smooth="yes"/>
			<point x="113" y="756"/>
			<point x="128" y="768"/>
			<point x="128" y="788" type="curve" smooth="yes"/>
			<point x="128" y="808"/>
			<point x="113" y="820"/>
			<point x="96" y="820" type="curve" smooth="yes"/>
			<point x="80" y="820"/>
			<point x="64" y="808"/>
			<point x="64" y="788" type="curve" smooth="yes"/>
			<point x="64" y="768"/>
			<point x="80" y="756"/>
		</contour>
		<contour>
			<point x="276" y="756" type="curve" smooth="yes"/>
			<point x="292" y="756"/>
			<point x="308" y="768"/>
			<point x="308" y="788" type="curve" smooth="yes"/>
			<point x="308" y="808"/>
			<point x="292" y="820"/>
			<point x="276" y="820" type="curve" smooth="yes"/>
			<point x="259" y="820"/>
			<point x="244" y="808"/>
			<point x="244" y="788" type="curve" smooth="yes"/>
			<point x="244" y="768"/>
			<point x="259" y="756"/>
		</contour>
		<component base="I"/>
	</outline>
</glyph>
<glyph name="Eth" format="2">
	<unicode hex="00D0"/>
	<advance width="768"/>
	<outline>
		<contour>
			<point x="389" y="333" type="line"/>
			<point x="389" y="361" type="line"/>
			<point x="58" y="361" type="line"/>
			<point x="58" y="333" type="line"/>
		</contour>
		<component base="D"/>
	</outline>
</glyph>
<glyph name="Oslash" format="2">
	<unicode hex="00D8"/>
	<advance width="768"/>
	<outline>
		<contour>
			<point x="686" y="674" type="line"/>
			<point x="664" y="692" type="line"/>
			<point x="82" y="2" type="line"/>
			<point x="104" y="-16" type="line"/>
		</contour>
		<component base="O"/>
	</outline>
</glyph>
<glyph name="Thorn" format="2">
	<unicode hex="00DE"/>
	<advance width="604"/>
	<outline>
		<contour>
			<point x="188" y="168" type="line"/>
			<point x="288" y="168" type="line" smooth="yes"/>
			<point x="462" y="168"/>
			<point x="552" y="242"/>
			<point x="552" y="362" type="curve" smooth="yes"/>
			<point x="552" y="480"/>
			<point x="470" y="548"/>
			<point x="320" y="548" type="curve" smooth="yes"/>
			<point x="188" y="548" type="line"/>
			<point x="188" y="518" type="line"/>
			<point x="316" y="518" type="line" smooth="yes"/>
			<point x="452" y="518"/>
			<point x="515" y="462"/>
			<point x="515" y="360" type="curve" smooth="yes"/>
			<point x="515" y="257"/>
			<point x="444" y="196"/>
			<point x="284" y="196" type="curve" smooth="yes"/>
			<point x="188" y="196" type="line"/>
		</contour>
		<contour>
			<point x="168" y="0" type="curve"/>
			<point x="204" y="0" type="line"/>
			<point x="204" y="100"/>
			<point x="204" y="200"/>
			<point x="204" y="300" type="curve" smooth="yes"/>
			<point x="204" y="376" type="line" smooth="yes"/>
			<point x="204" y="476"/>
			<point x="204" y="576"/>
			<point x="204" y="676" type="curve"/>
			<point x="168" y="676" type="line"/>
			<point x="168" y="576"/>
			<point x="168" y="476"/>
			<point x="168" y="376" type="curve" smooth="yes"/>
			<point x="168" y="300" type="line" smooth="yes"/>
			<point x="168" y="200"/>
			<point x="168" y="100"/>
		</contour>
		<contour>
			<point x="192" y="646" type="line"/>
			<point x="212" y="646" type="line"/>
			<point x="336" y="646" type="line"/>
			<point x="336" y="676" type="line"/>
			<point x="52" y="676" type="line"/>
			<point x="52" y="646" type="line"/>
		</contour>
		<contour>
			<point x="52" y="0" type="line"/>
			<point x="336" y="0" type="line"/>
			<point x="336" y="30" type="line"/>
			<point x="196" y="30" type="line"/>
			<point x="176" y="30" type="line"/>
			<point x="52" y="30" type="line"/>
		</contour>
	</outline>
</glyph>
<glyph name="germandbls" format="2">
	<unicode hex="00DF"/>
	<advance width="600"/>
	<outline>
		<contour>
			<point x="32" y="0" type="line"/>
			<point x="164" y="0" type="line"/>
			<point x="164" y="28" type="line"/>
			<point x="148" y="28" type="line"/>
			<point x="32" y="28" type="line"/>
		</contour>
		<contour>
			<point x="140" y="0" type="curve"/>
			<point x="172" y="0" type="line"/>
			<point x="172" y="73"/>
			<point x="172" y="147"/>
			<point x="172" y="220" type="curve" smooth="yes"/>
			<point x="172" y="492" type="line" smooth="yes"/>
			<point x="172" y="572"/>
			<point x="189" y="629"/>
			<point x="228" y="673" type="curve" smooth="yes"/>
			<point x="257" y="705"/>
			<point x="298" y="724"/>
			<point x="354" y="724" type="curve" smooth="yes"/>
			<point x="436" y="724"/>
			<point x="480" y="678"/>
			<point x="480" y="626" type="curve" smooth="yes"/>
			<point x="480" y="570"/>
			<point x="448" y="544"/>
			<point x="408" y="504" type="curve" smooth="yes"/>
			<point x="368" y="464"/>
			<point x="328" y="424"/>
			<point x="328" y="360" type="curve" smooth="yes"/>
			<point x="328" y="296"/>
			<point x="360" y="264"/>
			<point x="448" y="212" type="curve" smooth="yes"/>
			<point x="496" y="184"/>
			<point x="519" y="156"/>
			<point x="519" y="110" type="curve" smooth="yes"/>
			<point x="519" y="64"/>
			<point x="480" y="14"/>
			<point x="396" y="14" type="curve" smooth="yes"/>
			<point x="356" y="14"/>
			<point x="320" y="24"/>
			<point x="296" y="36" type="curve"/>
			<point x="318" y="14" type="line"/>
			<point x="302" y="140" type="line"/>
			<point x="276" y="140" type="line"/>
			<point x="280" y="8" type="line"/>
			<point x="296" y="0"/>
			<point x="340" y="-12"/>
			<point x="396" y="-12" type="curve" smooth="yes"/>
			<point x="500" y="-12"/>
			<point x="552" y="52"/>
			<point x="552" y="114" type="curve" smooth="yes"/>
			<point x="552" y="176"/>
			<point x="520" y="208"/>
			<point x="432" y="260" type="curve" smooth="yes"/>
			<point x="384" y="288"/>
			<point x="360" y="316"/>
			<point x="360" y="364" type="curve" smooth="yes"/>
			<point x="360" y="412"/>
			<point x="392" y="456"/>
			<point x="432" y="496" type="curve" smooth="yes"/>
			<point x="472" y="536"/>
			<point x="508" y="562"/>
			<point x="508" y="628" type="curve" smooth="yes"/>
			<point x="508" y="694"/>
			<point x="452" y="750"/>
			<point x="356" y="750" type="curve" smooth="yes"/>
			<point x="288" y="750"/>
			<point x="236" y="722"/>
			<point x="204" y="686" type="curve" smooth="yes"/>
			<point x="172" y="650"/>
			<point x="140" y="600"/>
			<point x="140" y="496" type="curve" smooth="yes"/>
			<point x="140" y="220" type="line" smooth="yes"/>
			<point x="140" y="147"/>
			<point x="140" y="73"/>
		</contour>
	</outline>
</glyph>
<glyph name="ae" format="2">
	<unicode hex="00E6"/>
	<advance width="892"/>
	<outline>
		<contour>
			<point x="208" y="-12" type="curve" smooth="yes"/>
			<point x="300" y="-12"/>
			<point x="356" y="44"/>
			<point x="414" y="120" type="curve"/>
			<point x="428" y="120" type="line"/>
			<point x="420" y="152" type="line"/>
			<point x="340" y="68"/>
			<point x="292" y="16"/>
			<point x="214" y="16" type="curve" smooth="yes"/>
			<point x="132" y="16"/>
			<point x="88" y="56"/>
			<point x="88" y="123" type="curve" smooth="yes"/>
			<point x="88" y="190"/>
			<point x="132" y="226"/>
			<point x="208" y="248" type="curve" smooth="yes"/>
			<point x="275" y="267"/>
			<point x="341" y="287"/>
			<point x="408" y="306" type="curve"/>
			<point x="408" y="330" type="line"/>
			<point x="339" y="311"/>
			<point x="269" y="291"/>
			<point x="200" y="272" type="curve" smooth="yes"/>
			<point x="108" y="246"/>
			<point x="56" y="204"/>
			<point x="56" y="122" type="curve" smooth="yes"/>
			<point x="56" y="40"/>
			<point x="116" y="-12"/>
		</contour>
		<contour>
			<point x="640" y="-12" type="curve" smooth="yes"/>
			<point x="740" y="-12"/>
			<point x="794" y="32"/>
			<point x="826" y="72" type="curve"/>
			<point x="808" y="90" type="line"/>
			<point x="770" y="48"/>
			<point x="724" y="17"/>
			<point x="644" y="17" type="curve" smooth="yes"/>
			<point x="520" y="17"/>
			<point x="430" y="100"/>
			<point x="430" y="250" type="curve" smooth="yes"/>
			<point x="430" y="400"/>
			<point x="517" y="484"/>
			<point x="629" y="484" type="curve" smooth="yes"/>
			<point x="741" y="484"/>
			<point x="802" y="412"/>
			<point x="802" y="316" type="curve" smooth="yes"/>
			<point x="802" y="300"/>
			<point x="801" y="284"/>
			<point x="800" y="275" type="curve"/>
			<point x="422" y="275" type="line"/>
			<point x="422" y="249" type="line"/>
			<point x="828" y="249" type="line"/>
			<point x="830" y="264"/>
			<point x="832" y="288"/>
			<point x="832" y="316" type="curve" smooth="yes"/>
			<point x="832" y="428"/>
			<point x="757" y="512"/>
			<point x="629" y="512" type="curve" smooth="yes"/>
			<point x="533" y="512"/>
			<point x="466" y="464"/>
			<point x="430" y="372" type="curve"/>
			<point x="422" y="372" type="line"/>
			<point x="414" y="464"/>
			<point x="361" y="512"/>
			<point x="260" y="512" type="curve" smooth="yes"/>
			<point x="158" y="512"/>
			<point x="92" y="471"/>
			<point x="68" y="383" type="curve"/>
			<point x="70" y="370"/>
			<point x="78" y="360"/>
			<point x="92" y="360" type="curve" smooth="yes"/>
			<point x="106" y="360"/>
			<point x="116" y="368"/>
			<point x="120" y="384" type="curve" smooth="yes"/>
			<point x="144" y="472" type="line"/>
			<point x="128" y="452" type="line"/>
			<point x="160" y="469"/>
			<point x="200" y="484"/>
			<point x="257" y="484" type="curve" smooth="yes"/>
			<point x="353" y="484"/>
			<point x="397" y="440"/>
			<point x="397" y="340" type="curve" smooth="yes"/>
			<point x="397" y="248" type="line" smooth="yes"/>
			<point x="397" y="84"/>
			<point x="504" y="-12"/>
		</contour>
	</outline>
	<anchor name="aboveLC" x="424" y="520"/>
	<anchor name="belowLC" x="414" y="-20"/>
</glyph>
<glyph name="idieresis" format="2">
	<unicode hex="00EF"/>
	<advance width="336"/>
	<outline>
		<contour>
			<point x="69" y="652" type="curve" smooth="yes"/>
			<point x="89" y="652"/>
			<point x="103" y="666"/>
			<point x="103" y="686" type="curve" smooth="yes"/>
			<point x="103" y="706"/>
			<point x="89" y="720"/>
			<point x="69" y="720" type="curve" smooth="yes"/>
			<point x="49" y="720"/>
			<point x="35" y="706"/>
			<point x="35" y="686" type="curve" smooth="yes"/>
			<point x="35" y="666"/>
			<point x="49" y="652"/>
		</contour>
		<contour>
			<point x="247" y="652" type="curve" smooth="yes"/>
			<point x="267" y="652"/>
			<point x="281" y="666"/>
			<point x="281" y="686" type="curve" smooth="yes"/>
			<point x="281" y="706"/>
			<point x="267" y="720"/>
			<point x="247" y="720" type="curve" smooth="yes"/>
			<point x="227" y="720"/>
			<point x="213" y="706"/>
			<point x="213" y="686" type="curve" smooth="yes"/>
			<point x="213" y="666"/>
			<point x="227" y="652"/>
		</contour>
		<component base="dotlessi"/>
	</outline>
</glyph>
<glyph name="eth" format="2">
	<unicode hex="00F0"/>
	<advance width="541"/>
	<outline>
		<contour>
			<point x="266" y="-13" type="curve" smooth="yes"/>
			<point x="392" y="-13"/>
			<point x="480" y="85"/>
			<point x="480" y="263" type="curve" smooth="yes"/>
			<point x="480" y="473"/>
			<point x="393" y="643"/>
			<point x="158" y="758" type="curve"/>
			<point x="147" y="740" type="line"/>
			<point x="373" y="625"/>
			<point x="438" y="482"/>
			<point x="453" y="303" type="curve"/>
			<point x="461" y="305" type="line"/>
			<point x="429" y="407"/>
			<point x="357" y="470"/>
			<point x="266" y="470" type="curve" smooth="yes"/>
			<point x="144" y="470"/>
			<point x="52" y="377"/>
			<point x="52" y="229" type="curve" smooth="yes"/>
			<point x="52" y="81"/>
			<point x="141" y="-13"/>
		</contour>
		<contour>
			<point x="266" y="7" type="curve" smooth="yes"/>
			<point x="164" y="7"/>
			<point x="84" y="96"/>
			<point x="84" y="229" type="curve" smooth="yes"/>
			<point x="84" y="371"/>
			<point x="163" y="450"/>
			<point x="266" y="450" type="curve" smooth="yes"/>
			<point x="362" y="450"/>
			<point x="449" y="376"/>
			<point x="449" y="231" type="curve" smooth="yes"/>
			<point x="449" y="106"/>
			<point x="377" y="7"/>
		</contour>
		<contour>
			<point x="162" y="550" type="line"/>
			<point x="489" y="719" type="line"/>
			<point x="480" y="738" type="line"/>
			<point x="153" y="569" type="line"/>
		</contour>
	</outline>
</glyph>
<glyph name="divide" format="2">
	<unicode hex="00F7"/>
	<advance width="538"/>
	<outline>
		<contour>
			<point x="269" y="115" type="curve" smooth="yes"/>
			<point x="288" y="115"/>
			<point x="300" y="130"/>
			<point x="300" y="145" type="curve" smooth="yes"/>
			<point x="300" y="162"/>
			<point x="288" y="175"/>
			<point x="269" y="175" type="curve" smooth="yes"/>
			<point x="250" y="175"/>
			<point x="238" y="162"/>
			<point x="238" y="145" type="curve" smooth="yes"/>
			<point x="238" y="130"/>
			<point x="250" y="115"/>
		</contour>
		<contour>
			<point x="269" y="492" type="curve" smooth="yes"/>
			<point x="288" y="492"/>
			<point x="300" y="507"/>
			<point x="300" y="522" type="curve" smooth="yes"/>
			<point x="300" y="539"/>
			<point x="288" y="552"/>
			<point x="269" y="552" type="curve" smooth="yes"/>
			<point x="250" y="552"/>
			<point x="238" y="539"/>
			<point x="238" y="522" type="curve" smooth="yes"/>
			<point x="238" y="507"/>
			<point x="250" y="492"/>
		</contour>
		<component base="minus"/>
	</outline>
</glyph>
<glyph name="oslash" format="2">
	<unicode hex="00F8"/>
	<advance width="608"/>
	<outline>
		<contour>
			<point x="521" y="495" type="line"/>
			<point x="500" y="512" type="line"/>
			<point x="87" y="1" type="line"/>
			<point x="108" y="-16" type="line"/>
		</contour>
		<component base="o"/>
	</outline>
</glyph>
<glyph name="thorn" format="2">
	<unicode hex="00FE"/>
	<advance width="648"/>
	<outline>
		<contour>
			<point x="148" y="-240" type="curve"/>
			<point x="180" y="-240" type="line"/>
			<point x="180" y="-159"/>
			<point x="180" y="-77"/>
			<point x="180" y="4" type="curve" smooth="yes"/>
			<point x="178" y="96" type="line"/>
			<point x="180" y="96" type="line"/>
			<point x="180" y="392" type="line"/>
			<point x="178" y="392" type="line"/>
			<point x="180" y="606" type="line"/>
			<point x="180" y="738" type="line"/>
			<point x="164" y="738" type="line"/>
			<point x="32" y="726" type="line"/>
			<point x="32" y="702" type="line"/>
			<point x="148" y="698" type="line"/>
			<point x="148" y="4" type="line" smooth="yes"/>
			<point x="148" y="-77"/>
			<point x="148" y="-159"/>
		</contour>
		<contour>
			<point x="360" y="-12" type="curve" smooth="yes"/>
			<point x="488" y="-12"/>
			<point x="584" y="82"/>
			<point x="584" y="252" type="curve" smooth="yes"/>
			<point x="584" y="422"/>
			<point x="488" y="512"/>
			<point x="360" y="512" type="curve" smooth="yes"/>
			<point x="276" y="512"/>
			<point x="228" y="468"/>
			<point x="188" y="406" type="curve"/>
			<point x="172" y="406" type="line"/>
			<point x="172" y="360" type="line"/>
			<point x="228" y="440"/>
			<point x="276" y="484"/>
			<point x="356" y="484" type="curve" smooth="yes"/>
			<point x="472" y="484"/>
			<point x="551" y="406"/>
			<point x="551" y="250" type="curve" smooth="yes"/>
			<point x="551" y="94"/>
			<point x="472" y="16"/>
			<point x="356" y="16" type="curve" smooth="yes"/>
			<point x="276" y="16"/>
			<point x="228" y="60"/>
			<point x="172" y="140" type="curve"/>
			<point x="172" y="92" type="line"/>
			<point x="190" y="92" type="line"/>
			<point x="228" y="32"/>
			<point x="276" y="-12"/>
		</contour>
		<contour>
			<point x="40" y="-240" type="line"/>
			<point x="304" y="-240" type="line"/>
			<point x="304" y="-212" type="line"/>
			<point x="172" y="-212" type="line"/>
			<point x="156" y="-212" type="line"/>
			<point x="40" y="-212" type="line"/>
		</contour>
	</outline>
	<anchor name="aboveLC" x="164" y="748"/>
	<anchor name="belowLC" x="356" y="-20"/>
</glyph>
<glyph name="aogonek" format="2">
	<unicode hex="0105"/>
	<advance width="564"/>
	<outline>
		<contour>
			<point x="208" y="-12" type="curve" smooth="yes"/>
			<point x="292" y="-12"/>
			<point x="348" y="36"/>
			<point x="386" y="96" type="curve"/>
			<point x="404" y="96" type="line"/>
			<point x="404" y="136" type="line"/>
			<point x="340" y="68"/>
			<point x="292" y="16"/>
			<point x="214" y="16" type="curve" smooth="yes"/>
			<point x="132" y="16"/>
			<point x="88" y="56"/>
			<point x="88" y="123" type="curve" smooth="yes"/>
			<point x="88" y="190"/>
			<point x="132" y="226"/>
			<point x="208" y="248" type="curve" smooth="yes"/>
			<point x="275" y="267"/>
			<point x="341" y="287"/>
			<point x="408" y="306" type="curve"/>
			<point x="408" y="330" type="line"/>
			<point x="339" y="311"/>
			<point x="269" y="291"/>
			<point x="200" y="272" type="curve" smooth="yes"/>
			<point x="108" y="246"/>
			<point x="56" y="204"/>
			<point x="56" y="122" type="curve" smooth="yes"/>
			<point x="56" y="40"/>
			<point x="116" y="-12"/>
		</contour>
		<contour>
			<point x="447" y="-230" type="curve" smooth="yes"/>
			<point x="482" y="-230"/>
			<point x="502" y="-217"/>
			<point x="516" y="-207" type="curve"/>
			<point x="507" y="-189" type="line"/>
			<point x="492" y="-199"/>
			<point x="475" y="-204"/>
			<point x="451" y="-204" type="curve" smooth="yes"/>
			<point x="416" y="-204"/>
			<point x="388" y="-180"/>
			<point x="388" y="-130" type="curve" smooth="yes"/>
			<point x="388" y="-76"/>
			<point x="428" y="-40"/>
			<point x="504" y="-10" type="curve" smooth="yes"/>
			<point x="524" y="-2"/>
			<point x="540" y="6"/>
			<point x="548" y="10" type="curve"/>
			<point x="538" y="32" type="line"/>
			<point x="532" y="28"/>
			<point x="514" y="18"/>
			<point x="492" y="18" type="curve" smooth="yes"/>
			<point x="456" y="18"/>
			<point x="428" y="36"/>
			<point x="428" y="104" type="curve" smooth="yes"/>
			<point x="428" y="348" type="line" smooth="yes"/>
			<point x="428" y="456"/>
			<point x="368" y="512"/>
			<point x="260" y="512" type="curve" smooth="yes"/>
			<point x="184" y="512"/>
			<point x="92" y="468"/>
			<point x="68" y="380" type="curve"/>
			<point x="70" y="370"/>
			<point x="78" y="360"/>
			<point x="92" y="360" type="curve" smooth="yes"/>
			<point x="106" y="360"/>
			<point x="116" y="368"/>
			<point x="120" y="384" type="curve" smooth="yes"/>
			<point x="144" y="472" type="line"/>
			<point x="128" y="452" type="line"/>
			<point x="160" y="468"/>
			<point x="200" y="484"/>
			<point x="256" y="484" type="curve" smooth="yes"/>
			<point x="352" y="484"/>
			<point x="396" y="440"/>
			<point x="396" y="340" type="curve" smooth="yes"/>
			<point x="396" y="100" type="line"/>
			<point x="398" y="100" type="line"/>
			<point x="400" y="28"/>
			<point x="432" y="4"/>
			<point x="468" y="-2" type="curve"/>
			<point x="468" y="-8"/>
			<point x="468" y="-13"/>
			<point x="468" y="-19" type="curve"/>
			<point x="475" y="-10" type="line"/>
			<point x="402" y="-34"/>
			<point x="360" y="-74"/>
			<point x="360" y="-134" type="curve" smooth="yes"/>
			<point x="360" y="-197"/>
			<point x="398" y="-230"/>
		</contour>
	</outline>
	<anchor name="aboveLC" x="261" y="520"/>
</glyph>
<glyph name="Dcroat" format="2">
	<unicode hex="0110"/>
	<advance width="709"/>
	<outline>
		<contour>
			<point x="389" y="333" type="line"/>
			<point x="389" y="361" type="line"/>
			<point x="58" y="361" type="line"/>
			<point x="58" y="333" type="line"/>
		</contour>
		<component base="D"/>
	</outline>
</glyph>
<glyph name="dcroat" format="2">
	<unicode hex="0111"/>
	<advance width="652"/>
	<outline>
		<contour>
			<point x="608" y="584" type="line"/>
			<point x="608" y="610" type="line"/>
			<point x="284" y="610" type="line"/>
			<point x="284" y="584" type="line"/>
		</contour>
		<component base="d"/>
	</outline>
</glyph>
<glyph name="eogonek" format="2">
	<unicode hex="0119"/>
	<advance width="560"/>
	<outline>
		<contour>
			<point x="392" y="-224" type="curve" smooth="yes"/>
			<point x="432" y="-224"/>
			<point x="456" y="-208"/>
			<point x="470" y="-196" type="curve"/>
			<point x="458" y="-176" type="line"/>
			<point x="442" y="-188"/>
			<point x="424" y="-198"/>
			<point x="396" y="-198" type="curve" smooth="yes"/>
			<point x="358" y="-198"/>
			<point x="328" y="-174"/>
			<point x="328" y="-130" type="curve" smooth="yes"/>
			<point x="328" y="-72"/>
			<point x="372" y="-32"/>
			<point x="424" y="4" type="curve" smooth="yes"/>
			<point x="452" y="24"/>
			<point x="484" y="52"/>
			<point x="500" y="72" type="curve"/>
			<point x="482" y="90" type="line"/>
			<point x="444" y="48"/>
			<point x="392" y="17"/>
			<point x="312" y="17" type="curve" smooth="yes"/>
			<point x="188" y="17"/>
			<point x="97" y="100"/>
			<point x="97" y="250" type="curve" smooth="yes"/>
			<point x="97" y="400"/>
			<point x="184" y="484"/>
			<point x="296" y="484" type="curve" smooth="yes"/>
			<point x="408" y="484"/>
			<point x="470" y="412"/>
			<point x="470" y="316" type="curve" smooth="yes"/>
			<point x="470" y="300"/>
			<point x="469" y="284"/>
			<point x="468" y="275" type="curve"/>
			<point x="88" y="275" type="line"/>
			<point x="88" y="249" type="line"/>
			<point x="496" y="249" type="line"/>
			<point x="498" y="264"/>
			<point x="500" y="288"/>
			<point x="500" y="316" type="curve" smooth="yes"/>
			<point x="500" y="428"/>
			<point x="424" y="512"/>
			<point x="296" y="512" type="curve" smooth="yes"/>
			<point x="168" y="512"/>
			<point x="64" y="412"/>
			<point x="64" y="248" type="curve" smooth="yes"/>
			<point x="64" y="84"/>
			<point x="172" y="-10"/>
			<point x="306" y="-10" type="curve" smooth="yes"/>
			<point x="350" y="-10"/>
			<point x="374" y="0"/>
			<point x="384" y="4" type="curve"/>
			<point x="388" y="-6" type="line"/>
			<point x="340" y="-32"/>
			<point x="300" y="-72"/>
			<point x="300" y="-134" type="curve" smooth="yes"/>
			<point x="300" y="-192"/>
			<point x="340" y="-224"/>
		</contour>
	</outline>
	<anchor name="aboveLC" x="296" y="520"/>
	<anchor name="belowLC" x="308" y="-20"/>
</glyph>
<glyph name="Hbar" format="2">
	<unicode hex="0126"/>
	<advance width="848"/>
	<outline>
		<contour>
			<point x="52" y="500" type="line"/>
			<point x="796" y="500" type="line"/>
			<point x="796" y="528" type="line"/>
			<point x="52" y="528" type="line"/>
		</contour>
		<component base="H"/>
	</outline>
</glyph>
<glyph name="hbar" format="2">
	<unicode hex="0127"/>
	<advance width="672"/>
	<outline>
		<contour>
			<point x="152" y="0" type="line"/>
			<point x="184" y="0" type="line"/>
			<point x="184" y="220" type="line"/>
			<point x="184" y="392" type="line"/>
			<point x="184" y="393" type="line"/>
			<point x="184" y="632" type="line"/>
			<point x="184" y="748" type="line"/>
			<point x="168" y="748" type="line"/>
			<point x="36" y="736" type="line"/>
			<point x="36" y="712" type="line"/>
			<point x="152" y="708" type="line"/>
			<point x="152" y="220" type="line"/>
		</contour>
		<contour>
			<point x="44" y="0" type="line"/>
			<point x="292" y="0" type="line"/>
			<point x="292" y="28" type="line"/>
			<point x="176" y="28" type="line"/>
			<point x="160" y="28" type="line"/>
			<point x="44" y="28" type="line"/>
		</contour>
		<contour>
			<point x="404" y="0" type="line"/>
			<point x="652" y="0" type="line"/>
			<point x="652" y="28" type="line"/>
			<point x="536" y="28" type="line"/>
			<point x="520" y="28" type="line"/>
			<point x="404" y="28" type="line"/>
		</contour>
		<contour>
			<point x="44" y="584" type="line"/>
			<point x="368" y="584" type="line"/>
			<point x="368" y="610" type="line"/>
			<point x="44" y="610" type="line"/>
		</contour>
		<contour>
			<point x="512" y="0" type="line"/>
			<point x="544" y="0" type="line"/>
			<point x="544" y="220" type="line"/>
			<point x="544" y="352" type="line" smooth="yes"/>
			<point x="544" y="456"/>
			<point x="480" y="512"/>
			<point x="388" y="512" type="curve" smooth="yes"/>
			<point x="304" y="512"/>
			<point x="248" y="472"/>
			<point x="192" y="408" type="curve"/>
			<point x="168" y="408" type="line"/>
			<point x="168" y="368" type="line"/>
			<point x="248" y="440"/>
			<point x="304" y="484"/>
			<point x="384" y="484" type="curve" smooth="yes"/>
			<point x="464" y="484"/>
			<point x="512" y="440"/>
			<point x="512" y="344" type="curve" smooth="yes"/>
			<point x="512" y="220" type="line"/>
		</contour>
	</outline>
</glyph>
<glyph name="dotlessi" format="2">
	<unicode hex="0131"/>
	<advance width="336"/>
	<outline>
		<contour>
			<point x="44" y="0" type="line"/>
			<point x="292" y="0" type="line"/>
			<point x="292" y="28" type="line"/>
			<point x="176" y="28" type="line"/>
			<point x="160" y="28" type="line"/>
			<point x="44" y="28" type="line"/>
		</contour>
		<contour>
			<point x="152" y="0" type="line"/>
			<point x="184" y="0" type="line"/>
			<point x="184" y="220" type="line"/>
			<point x="184" y="384" type="line"/>
			<point x="184" y="500" type="line"/>
			<point x="168" y="500" type="line"/>
			<point x="40" y="484" type="line"/>
			<point x="40" y="460" type="line"/>
			<point x="152" y="460" type="line"/>
			<point x="152" y="272" type="line"/>
			<point x="152" y="220" type="line"/>
		</contour>
	</outline>
</glyph>
<glyph name="kgreenlandic" format="2">
	<unicode hex="0138"/>
	<advance width="628"/>
	<outline>
		<contour>
			<point x="44" y="0" type="line"/>
			<point x="292" y="0" type="line"/>
			<point x="292" y="28" type="line"/>
			<point x="176" y="28" type="line"/>
			<point x="160" y="28" type="line"/>
			<point x="44" y="28" type="line"/>
		</contour>
		<contour>
			<point x="176" y="164" type="line"/>
			<point x="524" y="500" type="line"/>
			<point x="484" y="500" type="line"/>
			<point x="176" y="200" type="line"/>
		</contour>
		<contour>
			<point x="476" y="0" type="line"/>
			<point x="604" y="0" type="line"/>
			<point x="604" y="27" type="line"/>
			<point x="496" y="29" type="line"/>
			<point x="316" y="320" type="line"/>
			<point x="288" y="304" type="line"/>
		</contour>
		<contour>
			<point x="352" y="474" type="line"/>
			<point x="460" y="470" type="line"/>
			<point x="476" y="470" type="line"/>
			<point x="588" y="474" type="line"/>
			<point x="588" y="500" type="line"/>
			<point x="352" y="500" type="line"/>
		</contour>
		<contour>
			<point x="152" y="0" type="line"/>
			<point x="184" y="0" type="line"/>
			<point x="184" y="220" type="line"/>
			<point x="184" y="500" type="line"/>
			<point x="168" y="500" type="line"/>
			<point x="40" y="484" type="line"/>
			<point x="40" y="460" type="line"/>
			<point x="152" y="460" type="line"/>
			<point x="152" y="272" type="line"/>
			<point x="152" y="220" type="line"/>
		</contour>
	</outline>
</glyph>
<glyph name="Lslash" format="2">
	<unicode hex="0141"/>
	<advance width="564"/>
	<outline>
		<contour>
			<point x="405" y="457" type="line"/>
			<point x="182" y="330" type="line"/>
			<point x="182" y="298" type="line"/>
			<point x="405" y="425" type="line"/>
		</contour>
		<contour>
			<point x="182" y="331" type="line"/>
			<point x="58" y="259" type="line"/>
			<point x="58" y="227" type="line"/>
			<point x="182" y="297" type="line"/>
		</contour>
		<component base="L" yOffset="1"/>
	</outline>
</glyph>
<glyph name="lslash" format="2">
	<unicode hex="0142"/>
	<advance width="336"/>
	<outline>
		<contour>
			<point x="168" y="397" type="line"/>
			<point x="52" y="329" type="line"/>
			<point x="52" y="305" type="line"/>
			<point x="168" y="371" type="line"/>
		</contour>
		<contour>
			<point x="280" y="462" type="line"/>
			<point x="168" y="396" type="line"/>
			<point x="168" y="372" type="line"/>
			<point x="280" y="436" type="line"/>
		</contour>
		<component base="l"/>
	</outline>
</glyph>
<glyph name="Eng" format="2">
	<unicode hex="014A"/>
	<advance width="840"/>
	<outline>
		<contour>
			<point x="56" y="0" type="line"/>
			<point x="332" y="0" type="line"/>
			<point x="332" y="30" type="line"/>
			<point x="196" y="30" type="line"/>
			<point x="180" y="30" type="line"/>
			<point x="56" y="30" type="line"/>
		</contour>
		<contour>
			<point x="56" y="646" type="line"/>
			<point x="176" y="646" type="line"/>
			<point x="652" y="-3" type="line"/>
			<point x="660" y="-3" type="line"/>
			<point x="660" y="48" type="line"/>
			<point x="196" y="676" type="line"/>
			<point x="56" y="676" type="line"/>
		</contour>
		<contour>
			<point x="172" y="0" type="line"/>
			<point x="204" y="0" type="line"/>
			<point x="204" y="652" type="line"/>
			<point x="172" y="652" type="line"/>
		</contour>
		<contour>
			<point x="520" y="646" type="line"/>
			<point x="656" y="646" type="line"/>
			<point x="672" y="646" type="line"/>
			<point x="792" y="646" type="line"/>
			<point x="792" y="676" type="line"/>
			<point x="520" y="676" type="line"/>
		</contour>
		<contour>
			<point x="476" y="-148" type="curve" smooth="yes"/>
			<point x="540" y="-148"/>
			<point x="584" y="-120"/>
			<point x="608" y="-96" type="curve" smooth="yes"/>
			<point x="632" y="-72"/>
			<point x="680" y="-28"/>
			<point x="680" y="120" type="curve" smooth="yes"/>
			<point x="681" y="676" type="line"/>
			<point x="648" y="676" type="line"/>
			<point x="648" y="124" type="line"/>
			<point x="648" y="-20"/>
			<point x="600" y="-88"/>
			<point x="540" y="-120" type="curve"/>
			<point x="516" y="-120" type="line"/>
			<point x="538" y="-128" type="line"/>
			<point x="520" y="-118" type="line" smooth="yes"/>
			<point x="498" y="-106"/>
			<point x="484" y="-100"/>
			<point x="458" y="-100" type="curve" smooth="yes"/>
			<point x="430" y="-100"/>
			<point x="416" y="-110"/>
			<point x="412" y="-124" type="curve"/>
			<point x="416" y="-132"/>
			<point x="436" y="-148"/>
		</contour>
	</outline>
</glyph>
<glyph name="eng" format="2">
	<unicode hex="014B"/>
	<advance width="672"/>
	<outline>
		<contour>
			<point x="364" y="-252" type="curve" smooth="yes"/>
			<point x="440" y="-252"/>
			<point x="480" y="-216"/>
			<point x="508" y="-160" type="curve" smooth="yes"/>
			<point x="536" y="-104"/>
			<point x="544" y="-24"/>
			<point x="544" y="88" type="curve"/>
			<point x="544" y="352" type="line" smooth="yes"/>
			<point x="544" y="456"/>
			<point x="480" y="512"/>
			<point x="388" y="512" type="curve" smooth="yes"/>
			<point x="304" y="512"/>
			<point x="248" y="472"/>
			<point x="192" y="408" type="curve"/>
			<point x="168" y="408" type="line"/>
			<point x="168" y="368" type="line"/>
			<point x="248" y="440"/>
			<point x="304" y="484"/>
			<point x="384" y="484" type="curve" smooth="yes"/>
			<point x="464" y="484"/>
			<point x="512" y="440"/>
			<point x="512" y="344" type="curve" smooth="yes"/>
			<point x="512" y="88" type="line"/>
			<point x="512" y="-16"/>
			<point x="504" y="-96"/>
			<point x="484" y="-144" type="curve" smooth="yes"/>
			<point x="464" y="-192"/>
			<point x="448" y="-208"/>
			<point x="422" y="-228" type="curve"/>
			<point x="392" y="-228" type="line"/>
			<point x="420" y="-236" type="line"/>
			<point x="400" y="-224" type="line" smooth="yes"/>
			<point x="380" y="-212"/>
			<point x="364" y="-206"/>
			<point x="340" y="-206" type="curve" smooth="yes"/>
			<point x="314" y="-206"/>
			<point x="304" y="-218"/>
			<point x="300" y="-232" type="curve"/>
			<point x="304" y="-240"/>
			<point x="324" y="-252"/>
		</contour>
		<contour>
			<point x="152" y="0" type="line"/>
			<point x="184" y="0" type="line"/>
			<point x="184" y="220" type="line"/>
			<point x="184" y="404" type="line"/>
			<point x="180" y="404" type="line"/>
			<point x="176" y="500" type="line"/>
			<point x="160" y="500" type="line"/>
			<point x="40" y="484" type="line"/>
			<point x="40" y="460" type="line"/>
			<point x="152" y="460" type="line"/>
			<point x="152" y="272" type="line"/>
			<point x="152" y="220" type="line"/>
		</contour>
		<contour>
			<point x="44" y="0" type="line"/>
			<point x="292" y="0" type="line"/>
			<point x="292" y="28" type="line"/>
			<point x="176" y="28" type="line"/>
			<point x="160" y="28" type="line"/>
			<point x="44" y="28" type="line"/>
		</contour>
	</outline>
</glyph>
<glyph name="OE" format="2">
	<unicode hex="0152"/>
	<advance width="911"/>
	<outline>
		<contour>
			<point x="97" y="338" type="curve" smooth="yes"/>
			<point x="97" y="512"/>
			<point x="187" y="668"/>
			<point x="384" y="668" type="curve" smooth="yes"/>
			<point x="422" y="668"/>
			<point x="459" y="663"/>
			<point x="492" y="653" type="curve"/>
			<point x="492" y="677" type="line"/>
			<point x="458" y="686"/>
			<point x="422" y="690"/>
			<point x="384" y="690" type="curve" smooth="yes"/>
			<point x="190" y="690"/>
			<point x="64" y="547"/>
			<point x="64" y="338" type="curve" smooth="yes"/>
			<point x="64" y="130"/>
			<point x="189" y="-13"/>
			<point x="384" y="-13" type="curve" smooth="yes"/>
			<point x="422" y="-13"/>
			<point x="457" y="-10"/>
			<point x="492" y="0" type="curve"/>
			<point x="492" y="24" type="line"/>
			<point x="458" y="13"/>
			<point x="422" y="9"/>
			<point x="384" y="9" type="curve" smooth="yes"/>
			<point x="187" y="9"/>
			<point x="97" y="166"/>
		</contour>
		<contour>
			<point x="477" y="310" type="line" smooth="yes"/>
			<point x="477" y="206"/>
			<point x="477" y="102"/>
			<point x="475" y="0" type="curve"/>
			<point x="509" y="0" type="line"/>
			<point x="507" y="102"/>
			<point x="507" y="206"/>
			<point x="507" y="340" type="curve" smooth="yes"/>
			<point x="507" y="347" type="line" smooth="yes"/>
			<point x="507" y="471"/>
			<point x="507" y="575"/>
			<point x="509" y="677" type="curve"/>
			<point x="475" y="677" type="line"/>
			<point x="477" y="575"/>
			<point x="477" y="471"/>
			<point x="477" y="367" type="curve" smooth="yes"/>
		</contour>
		<contour>
			<point x="704" y="332" type="line"/>
			<point x="714" y="234" type="line"/>
			<point x="733" y="234" type="line"/>
			<point x="733" y="450" type="line"/>
			<point x="714" y="450" type="line"/>
			<point x="704" y="352" type="line"/>
		</contour>
		<contour>
			<point x="713" y="353" type="line"/>
			<point x="492" y="353" type="line"/>
			<point x="492" y="331" type="line"/>
			<point x="713" y="331" type="line"/>
		</contour>
		<contour>
			<point x="828" y="524" type="line"/>
			<point x="852" y="524" type="line"/>
			<point x="842" y="677" type="line"/>
			<point x="492" y="677" type="line"/>
			<point x="492" y="655" type="line"/>
			<point x="812" y="655" type="line"/>
		</contour>
		<contour>
			<point x="842" y="153" type="line"/>
			<point x="826" y="22" type="line"/>
			<point x="492" y="22" type="line"/>
			<point x="492" y="0" type="line"/>
			<point x="856" y="0" type="line"/>
			<point x="866" y="153" type="line"/>
		</contour>
	</outline>
	<anchor name="aboveUC" x="495" y="682"/>
</glyph>
<glyph name="oe" format="2">
	<unicode hex="0153"/>
	<advance width="992"/>
	<outline>
		<contour>
			<point x="300" y="-12" type="curve" smooth="yes"/>
			<point x="406" y="-12"/>
			<point x="500" y="64"/>
			<point x="516" y="168" type="curve"/>
			<point x="524" y="168" type="line"/>
			<point x="540" y="64"/>
			<point x="629" y="-12"/>
			<point x="743" y="-12" type="curve" smooth="yes"/>
			<point x="841" y="-12"/>
			<point x="900" y="32"/>
			<point x="931" y="72" type="curve"/>
			<point x="913" y="90" type="line"/>
			<point x="876" y="48"/>
			<point x="825" y="17"/>
			<point x="747" y="17" type="curve" smooth="yes"/>
			<point x="625" y="17"/>
			<point x="536" y="100"/>
			<point x="536" y="250" type="curve" smooth="yes"/>
			<point x="536" y="400"/>
			<point x="621" y="484"/>
			<point x="731" y="484" type="curve" smooth="yes"/>
			<point x="840" y="484"/>
			<point x="901" y="412"/>
			<point x="901" y="316" type="curve" smooth="yes"/>
			<point x="901" y="300"/>
			<point x="900" y="284"/>
			<point x="899" y="275" type="curve"/>
			<point x="528" y="275" type="line"/>
			<point x="528" y="249" type="line"/>
			<point x="927" y="249" type="line"/>
			<point x="929" y="264"/>
			<point x="931" y="288"/>
			<point x="931" y="316" type="curve" smooth="yes"/>
			<point x="931" y="428"/>
			<point x="856" y="512"/>
			<point x="731" y="512" type="curve" smooth="yes"/>
			<point x="626" y="512"/>
			<point x="540" y="436"/>
			<point x="524" y="332" type="curve"/>
			<point x="516" y="332" type="line"/>
			<point x="500" y="436"/>
			<point x="406" y="512"/>
			<point x="300" y="512" type="curve" smooth="yes"/>
			<point x="174" y="512"/>
			<point x="64" y="416"/>
			<point x="64" y="250" type="curve" smooth="yes"/>
			<point x="64" y="84"/>
			<point x="174" y="-12"/>
		</contour>
		<contour>
			<point x="300" y="16" type="curve" smooth="yes"/>
			<point x="190" y="16"/>
			<point x="97" y="100"/>
			<point x="97" y="252" type="curve" smooth="yes"/>
			<point x="97" y="404"/>
			<point x="190" y="484"/>
			<point x="300" y="484" type="curve" smooth="yes"/>
			<point x="410" y="484"/>
			<point x="504" y="400"/>
			<point x="504" y="248" type="curve" smooth="yes"/>
			<point x="504" y="96"/>
			<point x="410" y="16"/>
		</contour>
	</outline>
	<anchor name="aboveLC" x="520" y="520"/>
</glyph>
<glyph name="Tbar" format="2">
	<unicode hex="0166"/>
	<advance width="660"/>
	<outline>
		<contour>
			<point x="105" y="308" type="line"/>
			<point x="555" y="308" type="line"/>
			<point x="555" y="336" type="line"/>
			<point x="105" y="336" type="line"/>
		</contour>
		<component base="T"/>
	</outline>
</glyph>
<glyph name="tbar" format="2">
	<unicode hex="0167"/>
	<advance width="380"/>
	<outline>
		<contour>
			<point x="24" y="285" type="line"/>
			<point x="335" y="285" type="line"/>
			<point x="335" y="309" type="line"/>
			<point x="24" y="309" type="line"/>
		</contour>
		<component base="t"/>
	</outline>
</glyph>
<glyph name="Uogonek" format="2">
	<unicode hex="0172"/>
	<advance width="808"/>
	<outline>
		<contour>
			<point x="512" y="-224" type="curve" smooth="yes"/>
			<point x="552" y="-224"/>
			<point x="576" y="-208"/>
			<point x="590" y="-196" type="curve"/>
			<point x="578" y="-176" type="line"/>
			<point x="562" y="-188"/>
			<point x="544" y="-198"/>
			<point x="516" y="-198" type="curve" smooth="yes"/>
			<point x="478" y="-198"/>
			<point x="448" y="-174"/>
			<point x="448" y="-128" type="curve" smooth="yes"/>
			<point x="448" y="-72"/>
			<point x="480" y="-28"/>
			<point x="528" y="4" type="curve" smooth="yes"/>
			<point x="600" y="52"/>
			<point x="652" y="116"/>
			<point x="652" y="256" type="curve" smooth="yes"/>
			<point x="652" y="676" type="line"/>
			<point x="620" y="676" type="line"/>
			<point x="620" y="260" type="line" smooth="yes"/>
			<point x="620" y="84"/>
			<point x="532" y="14"/>
			<point x="406" y="14" type="curve" smooth="yes"/>
			<point x="280" y="14"/>
			<point x="192" y="84"/>
			<point x="192" y="260" type="curve" smooth="yes"/>
			<point x="192" y="360" type="line" smooth="yes"/>
			<point x="192" y="465"/>
			<point x="192" y="571"/>
			<point x="192" y="676" type="curve"/>
			<point x="156" y="676" type="line"/>
			<point x="156" y="571"/>
			<point x="156" y="465"/>
			<point x="156" y="360" type="curve" smooth="yes"/>
			<point x="156" y="256" type="line" smooth="yes"/>
			<point x="156" y="68"/>
			<point x="264" y="-16"/>
			<point x="404" y="-16" type="curve" smooth="yes"/>
			<point x="452" y="-16"/>
			<point x="484" y="0"/>
			<point x="496" y="8" type="curve"/>
			<point x="500" y="0" type="line"/>
			<point x="456" y="-32"/>
			<point x="418" y="-72"/>
			<point x="418" y="-132" type="curve" smooth="yes"/>
			<point x="418" y="-192"/>
			<point x="460" y="-224"/>
		</contour>
		<contour>
			<point x="44" y="646" type="line"/>
			<point x="164" y="646" type="line"/>
			<point x="184" y="646" type="line"/>
			<point x="316" y="646" type="line"/>
			<point x="316" y="676" type="line"/>
			<point x="44" y="676" type="line"/>
		</contour>
		<contour>
			<point x="496" y="646" type="line"/>
			<point x="628" y="646" type="line"/>
			<point x="644" y="646" type="line"/>
			<point x="764" y="646" type="line"/>
			<point x="764" y="676" type="line"/>
			<point x="496" y="676" type="line"/>
		</contour>
	</outline>
	<anchor name="aboveUC" x="416" y="696"/>
	<anchor name="belowLC" x="411" y="-20"/>
</glyph>
<glyph name="uogonek" format="2">
	<unicode hex="0173"/>
	<advance width="664"/>
	<outline>
		<contour>
			<point x="427" y="-136" type="curve" smooth="yes"/>
			<point x="427" y="-194"/>
			<point x="465" y="-224"/>
			<point x="517" y="-224" type="curve" smooth="yes"/>
			<point x="557" y="-224"/>
			<point x="583" y="-208"/>
			<point x="597" y="-196" type="curve"/>
			<point x="585" y="-176" type="line"/>
			<point x="569" y="-188"/>
			<point x="549" y="-198"/>
			<point x="521" y="-198" type="curve" smooth="yes"/>
			<point x="483" y="-198"/>
			<point x="455" y="-176"/>
			<point x="455" y="-132" type="curve" smooth="yes"/>
			<point x="455" y="-76"/>
			<point x="487" y="-36"/>
			<point x="519" y="4" type="curve"/>
			<point x="495" y="4" type="line"/>
			<point x="459" y="-36"/>
			<point x="427" y="-76"/>
		</contour>
		<component base="u"/>
	</outline>
	<anchor name="aboveLC" x="323" y="520"/>
</glyph>
<glyph name="longs" format="2">
	<unicode hex="017F"/>
	<advance width="336"/>
	<outline>
		<contour>
			<point x="36" y="0" type="line"/>
			<point x="300" y="0" type="line"/>
			<point x="300" y="28" type="line"/>
			<point x="168" y="28" type="line"/>
			<point x="152" y="28" type="line"/>
			<point x="36" y="28" type="line"/>
		</contour>
		<contour>
			<point x="144" y="220" type="line"/>
			<point x="144" y="0" type="line"/>
			<point x="176" y="0" type="line"/>
			<point x="176" y="220" type="line"/>
			<point x="176" y="492" type="line" smooth="yes"/>
			<point x="176" y="624"/>
			<point x="224" y="704"/>
			<point x="308" y="740" type="curve"/>
			<point x="328" y="740" type="line"/>
			<point x="360" y="728" type="line"/>
			<point x="360" y="748" type="line"/>
			<point x="312" y="748" type="line"/>
			<point x="332" y="732" type="line" smooth="yes"/>
			<point x="360" y="710"/>
			<point x="374" y="702"/>
			<point x="394" y="702" type="curve" smooth="yes"/>
			<point x="414" y="702"/>
			<point x="422" y="714"/>
			<point x="424" y="724" type="curve"/>
			<point x="416" y="744"/>
			<point x="384" y="760"/>
			<point x="338" y="760" type="curve" smooth="yes"/>
			<point x="292" y="760"/>
			<point x="268" y="744"/>
			<point x="244" y="728" type="curve" smooth="yes"/>
			<point x="208" y="704"/>
			<point x="144" y="640"/>
			<point x="144" y="496" type="curve" smooth="yes"/>
		</contour>
	</outline>
</glyph>
<glyph name="Schwa" format="2">
	<unicode hex="018F"/>
	<advance width="670"/>
	<outline>
		<contour>
			<point x="64" y="276" type="curve" smooth="yes"/>
			<point x="64" y="116"/>
			<point x="164" y="-16"/>
			<point x="328" y="-16" type="curve" smooth="yes"/>
			<point x="494" y="-16"/>
			<point x="602" y="108"/>
			<point x="602" y="342" type="curve" smooth="yes"/>
			<point x="602" y="576"/>
			<point x="492" y="692"/>
			<point x="316" y="692" type="curve" smooth="yes"/>
			<point x="216" y="692"/>
			<point x="144" y="652"/>
			<point x="92" y="592" type="curve"/>
			<point x="112" y="572" type="line"/>
			<point x="168" y="628"/>
			<point x="224" y="660"/>
			<point x="316" y="660" type="curve" smooth="yes"/>
			<point x="472" y="660"/>
			<point x="564" y="556"/>
			<point x="564" y="342" type="curve" smooth="yes"/>
			<point x="564" y="128"/>
			<point x="474" y="14"/>
			<point x="328" y="14" type="curve" smooth="yes"/>
			<point x="184" y="14"/>
			<point x="100" y="136"/>
			<point x="100" y="276" type="curve" smooth="yes"/>
			<point x="100" y="300"/>
			<point x="102" y="316"/>
			<point x="104" y="330" type="curve"/>
			<point x="572" y="330" type="line"/>
			<point x="572" y="360" type="line"/>
			<point x="72" y="360" type="line"/>
			<point x="68" y="344"/>
			<point x="64" y="308"/>
		</contour>
	</outline>
	<anchor name="aboveUC" x="323" y="696"/>
	<anchor name="belowLC" x="334" y="-20"/>
</glyph>
<glyph name="florin" format="2">
	<unicode hex="0192"/>
	<advance width="532"/>
	<outline>
		<contour>
			<point x="84" y="-96" type="curve" smooth="yes"/>
			<point x="152" y="-96"/>
			<point x="192" y="-56"/>
			<point x="212" y="-28" type="curve" smooth="yes"/>
			<point x="244" y="16"/>
			<point x="262" y="76"/>
			<point x="272" y="208" type="curve" smooth="yes"/>
			<point x="284" y="360" type="line" smooth="yes"/>
			<point x="294" y="492"/>
			<point x="316" y="552"/>
			<point x="336" y="584" type="curve" smooth="yes"/>
			<point x="356" y="616"/>
			<point x="380" y="636"/>
			<point x="408" y="648" type="curve"/>
			<point x="448" y="648" type="line"/>
			<point x="408" y="656" type="line"/>
			<point x="440" y="632" type="line" smooth="yes"/>
			<point x="464" y="614"/>
			<point x="476" y="608"/>
			<point x="494" y="608" type="curve" smooth="yes"/>
			<point x="514" y="608"/>
			<point x="524" y="620"/>
			<point x="528" y="636" type="curve"/>
			<point x="520" y="648"/>
			<point x="488" y="664"/>
			<point x="440" y="664" type="curve" smooth="yes"/>
			<point x="372" y="664"/>
			<point x="332" y="624"/>
			<point x="312" y="596" type="curve" smooth="yes"/>
			<point x="280" y="552"/>
			<point x="262" y="492"/>
			<point x="252" y="360" type="curve" smooth="yes"/>
			<point x="240" y="208" type="line" smooth="yes"/>
			<point x="230" y="76"/>
			<point x="208" y="16"/>
			<point x="188" y="-16" type="curve" smooth="yes"/>
			<point x="168" y="-48"/>
			<point x="144" y="-68"/>
			<point x="116" y="-80" type="curve"/>
			<point x="76" y="-80" type="line"/>
			<point x="116" y="-88" type="line"/>
			<point x="84" y="-64" type="line" smooth="yes"/>
			<point x="60" y="-46"/>
			<point x="48" y="-40"/>
			<point x="30" y="-40" type="curve" smooth="yes"/>
			<point x="10" y="-40"/>
			<point x="0" y="-52"/>
			<point x="-4" y="-68" type="curve"/>
			<point x="4" y="-80"/>
			<point x="36" y="-96"/>
		</contour>
		<contour>
			<point x="120" y="360" type="line"/>
			<point x="432" y="360" type="line"/>
			<point x="432" y="388" type="line"/>
			<point x="120" y="388" type="line"/>
		</contour>
	</outline>
</glyph>
<glyph name="Uhorn" format="2">
	<unicode hex="01AF"/>
	<advance width="808"/>
	<outline>
		<contour>
			<point x="406" y="-16" type="curve" smooth="yes"/>
			<point x="548" y="-16"/>
			<point x="652" y="68"/>
			<point x="652" y="256" type="curve" smooth="yes"/>
			<point x="652" y="676" type="line"/>
			<point x="620" y="676" type="line"/>
			<point x="620" y="260" type="line" smooth="yes"/>
			<point x="620" y="84"/>
			<point x="532" y="14"/>
			<point x="406" y="14" type="curve" smooth="yes"/>
			<point x="280" y="14"/>
			<point x="192" y="84"/>
			<point x="192" y="260" type="curve" smooth="yes"/>
			<point x="192" y="360" type="line" smooth="yes"/>
			<point x="192" y="465"/>
			<point x="192" y="571"/>
			<point x="192" y="676" type="curve"/>
			<point x="156" y="676" type="line"/>
			<point x="156" y="571"/>
			<point x="156" y="465"/>
			<point x="156" y="360" type="curve" smooth="yes"/>
			<point x="156" y="256" type="line" smooth="yes"/>
			<point x="156" y="68"/>
			<point x="264" y="-16"/>
		</contour>
		<contour>
			<point x="648" y="648" type="line"/>
			<point x="716" y="652"/>
			<point x="748" y="676"/>
			<point x="748" y="738" type="curve" smooth="yes"/>
			<point x="748" y="769"/>
			<point x="740" y="794"/>
			<point x="736" y="806" type="curve"/>
			<point x="733" y="807"/>
			<point x="728" y="808"/>
			<point x="722" y="808" type="curve" smooth="yes"/>
			<point x="710" y="808"/>
			<point x="700" y="800"/>
			<point x="700" y="784" type="curve" smooth="yes"/>
			<point x="700" y="766"/>
			<point x="716" y="746"/>
			<point x="716" y="722" type="curve" smooth="yes"/>
			<point x="716" y="696"/>
			<point x="696" y="676"/>
			<point x="644" y="676" type="curve"/>
		</contour>
		<contour>
			<point x="44" y="646" type="line"/>
			<point x="164" y="646" type="line"/>
			<point x="184" y="646" type="line"/>
			<point x="316" y="646" type="line"/>
			<point x="316" y="676" type="line"/>
			<point x="44" y="676" type="line"/>
		</contour>
		<contour>
			<point x="496" y="646" type="line"/>
			<point x="628" y="646" type="line"/>
			<point x="636" y="646" type="line"/>
			<point x="636" y="676" type="line"/>
			<point x="496" y="676" type="line"/>
		</contour>
	</outline>
	<anchor name="aboveUC" x="404" y="708"/>
	<anchor name="belowLC" x="404" y="-24"/>
</glyph>
<glyph name="schwa" format="2">
	<unicode hex="0259"/>
	<advance width="560"/>
	<outline>
		<contour>
			<point x="496" y="252" type="curve" smooth="yes"/>
			<point x="496" y="416"/>
			<point x="388" y="512"/>
			<point x="252" y="512" type="curve" smooth="yes"/>
			<point x="152" y="512"/>
			<point x="92" y="468"/>
			<point x="60" y="428" type="curve"/>
			<point x="78" y="410" type="line"/>
			<point x="116" y="452"/>
			<point x="168" y="483"/>
			<point x="248" y="483" type="curve" smooth="yes"/>
			<point x="372" y="483"/>
			<point x="463" y="400"/>
			<point x="463" y="250" type="curve" smooth="yes"/>
			<point x="463" y="100"/>
			<point x="376" y="16"/>
			<point x="264" y="16" type="curve" smooth="yes"/>
			<point x="152" y="16"/>
			<point x="90" y="88"/>
			<point x="90" y="184" type="curve" smooth="yes"/>
			<point x="90" y="200"/>
			<point x="91" y="216"/>
			<point x="92" y="224" type="curve"/>
			<point x="472" y="226" type="line"/>
			<point x="472" y="250" type="line"/>
			<point x="64" y="252" type="line"/>
			<point x="62" y="236"/>
			<point x="60" y="212"/>
			<point x="60" y="184" type="curve" smooth="yes"/>
			<point x="60" y="72"/>
			<point x="136" y="-12"/>
			<point x="264" y="-12" type="curve" smooth="yes"/>
			<point x="392" y="-12"/>
			<point x="496" y="88"/>
		</contour>
	</outline>
</glyph>
<glyph name="gscript" format="2">
	<unicode hex="0261"/>
	<advance width="640"/>
	<outline>
		<contour>
			<point x="264" y="-252" type="curve" smooth="yes"/>
			<point x="349" y="-252"/>
			<point x="415" y="-226"/>
			<point x="456" y="-168" type="curve" smooth="yes"/>
			<point x="484" y="-128"/>
			<point x="500" y="-72"/>
			<point x="500" y="0" type="curve" smooth="yes"/>
			<point x="500" y="392" type="line"/>
			<point x="502" y="500" type="line"/>
			<point x="474" y="500" type="line"/>
			<point x="470" y="392" type="line"/>
			<point x="468" y="392" type="line"/>
			<point x="468" y="116" type="line"/>
			<point x="469" y="116" type="line"/>
			<point x="469" y="-8" type="line"/>
			<point x="468" y="-74"/>
			<point x="453" y="-124"/>
			<point x="424" y="-160" type="curve" smooth="yes"/>
			<point x="388" y="-204"/>
			<point x="333" y="-226"/>
			<point x="264" y="-226" type="curve" smooth="yes"/>
			<point x="200" y="-226"/>
			<point x="156" y="-212"/>
			<point x="124" y="-196" type="curve"/>
			<point x="162" y="-220" type="line"/>
			<point x="138" y="-162" type="line" smooth="yes"/>
			<point x="128" y="-138"/>
			<point x="118" y="-126"/>
			<point x="100" y="-126" type="curve" smooth="yes"/>
			<point x="82" y="-126"/>
			<point x="74" y="-138"/>
			<point x="72" y="-148" type="curve"/>
			<point x="88" y="-196"/>
			<point x="152" y="-252"/>
		</contour>
		<contour>
			<point x="288" y="4" type="curve" smooth="yes"/>
			<point x="372" y="4"/>
			<point x="420" y="48"/>
			<point x="458" y="108" type="curve"/>
			<point x="476" y="108" type="line"/>
			<point x="476" y="156" type="line"/>
			<point x="420" y="76"/>
			<point x="372" y="32"/>
			<point x="292" y="32" type="curve" smooth="yes"/>
			<point x="176" y="32"/>
			<point x="97" y="108"/>
			<point x="97" y="258" type="curve" smooth="yes"/>
			<point x="97" y="408"/>
			<point x="176" y="484"/>
			<point x="292" y="484" type="curve" smooth="yes"/>
			<point x="372" y="484"/>
			<point x="420" y="440"/>
			<point x="476" y="360" type="curve"/>
			<point x="476" y="408" type="line"/>
			<point x="458" y="408" type="line"/>
			<point x="420" y="468"/>
			<point x="372" y="512"/>
			<point x="288" y="512" type="curve" smooth="yes"/>
			<point x="160" y="512"/>
			<point x="64" y="420"/>
			<point x="64" y="256" type="curve" smooth="yes"/>
			<point x="64" y="92"/>
			<point x="160" y="4"/>
		</contour>
	</outline>
	<anchor name="aboveLC" x="320" y="532"/>
	<anchor name="belowLC" x="265" y="-252"/>
</glyph>
<glyph name="h.sups" format="2">
	<unicode hex="02B0"/>
	<advance width="448"/>
	<outline>
		<contour>
			<point x="34" y="412" type="line"/>
			<point x="199" y="412" type="line"/>
			<point x="199" y="437" type="line"/>
			<point x="123" y="437" type="line"/>
			<point x="109" y="437" type="line"/>
			<point x="34" y="437" type="line"/>
		</contour>
		<contour>
			<point x="99" y="412" type="curve"/>
			<point x="133" y="412" type="line"/>
			<point x="133" y="460"/>
			<point x="133" y="508"/>
			<point x="133" y="556" type="curve" smooth="yes"/>
			<point x="133" y="671" type="line"/>
			<point x="131" y="671" type="line"/>
			<point x="133" y="817" type="line"/>
			<point x="133" y="892" type="line"/>
			<point x="118" y="892" type="line"/>
			<point x="28" y="882" type="line"/>
			<point x="28" y="861" type="line"/>
			<point x="99" y="855" type="line"/>
			<point x="99" y="556" type="line" smooth="yes"/>
			<point x="99" y="508"/>
			<point x="99" y="460"/>
		</contour>
		<contour>
			<point x="266" y="412" type="line"/>
			<point x="430" y="412" type="line"/>
			<point x="430" y="437" type="line"/>
			<point x="355" y="437" type="line"/>
			<point x="341" y="437" type="line"/>
			<point x="266" y="437" type="line"/>
		</contour>
		<contour>
			<point x="331" y="412" type="curve"/>
			<point x="365" y="412" type="line"/>
			<point x="365" y="460"/>
			<point x="365" y="508"/>
			<point x="365" y="556" type="curve" smooth="yes"/>
			<point x="365" y="642" type="line" smooth="yes"/>
			<point x="365" y="710"/>
			<point x="325" y="748"/>
			<point x="263" y="748" type="curve" smooth="yes"/>
			<point x="209" y="748"/>
			<point x="174" y="720"/>
			<point x="143" y="680" type="curve"/>
			<point x="122" y="680" type="line"/>
			<point x="122" y="652" type="line"/>
			<point x="170" y="693"/>
			<point x="207" y="718"/>
			<point x="255" y="718" type="curve" smooth="yes"/>
			<point x="304" y="718"/>
			<point x="331" y="692"/>
			<point x="331" y="633" type="curve" smooth="yes"/>
			<point x="331" y="556" type="line" smooth="yes"/>
			<point x="331" y="508"/>
			<point x="331" y="460"/>
		</contour>
	</outline>
</glyph>
<glyph name="j.sups" format="2">
	<unicode hex="02B2"/>
	<advance width="195"/>
	<outline>
		<contour>
			<point x="-13" y="254" type="curve" smooth="yes"/>
			<point x="38" y="254"/>
			<point x="65" y="277"/>
			<point x="84" y="314" type="curve" smooth="yes"/>
			<point x="102" y="350"/>
			<point x="108" y="400"/>
			<point x="108" y="474" type="curve" smooth="yes"/>
			<point x="108" y="668" type="line"/>
			<point x="108" y="740" type="line"/>
			<point x="95" y="740" type="line"/>
			<point x="10" y="726" type="line"/>
			<point x="10" y="705" type="line"/>
			<point x="80" y="705" type="line"/>
			<point x="80" y="591" type="line"/>
			<point x="80" y="474" type="line" smooth="yes"/>
			<point x="80" y="405"/>
			<point x="75" y="356"/>
			<point x="64" y="326" type="curve" smooth="yes"/>
			<point x="52" y="296"/>
			<point x="43" y="286"/>
			<point x="29" y="273" type="curve"/>
			<point x="7" y="273" type="line"/>
			<point x="26" y="266" type="line"/>
			<point x="11" y="279" type="line" smooth="yes"/>
			<point x="-1" y="288"/>
			<point x="-13" y="295"/>
			<point x="-30" y="295" type="curve" smooth="yes"/>
			<point x="-49" y="295"/>
			<point x="-57" y="285"/>
			<point x="-60" y="273" type="curve"/>
			<point x="-57" y="265"/>
			<point x="-42" y="254"/>
		</contour>
		<contour>
			<point x="94" y="836" type="curve" smooth="yes"/>
			<point x="112" y="836"/>
			<point x="124" y="849"/>
			<point x="124" y="867" type="curve" smooth="yes"/>
			<point x="124" y="885"/>
			<point x="112" y="898"/>
			<point x="94" y="898" type="curve" smooth="yes"/>
			<point x="77" y="898"/>
			<point x="64" y="885"/>
			<point x="64" y="867" type="curve" smooth="yes"/>
			<point x="64" y="849"/>
			<point x="77" y="836"/>
		</contour>
	</outline>
</glyph>
<glyph name="r.sups" format="2">
	<unicode hex="02B3"/>
	<advance width="306"/>
	<outline>
		<contour>
			<point x="93" y="413" type="line"/>
			<point x="121" y="413" type="line"/>
			<point x="121" y="659" type="line"/>
			<point x="117" y="659" type="line"/>
			<point x="114" y="740" type="line"/>
			<point x="101" y="740" type="line"/>
			<point x="23" y="726" type="line"/>
			<point x="23" y="705" type="line"/>
			<point x="93" y="705" type="line"/>
		</contour>
		<contour>
			<point x="115" y="624" type="line"/>
			<point x="148" y="676"/>
			<point x="188" y="712"/>
			<point x="238" y="721" type="curve"/>
			<point x="211" y="722" type="line"/>
			<point x="222" y="712" type="line" smooth="yes"/>
			<point x="233" y="703"/>
			<point x="243" y="695"/>
			<point x="259" y="695" type="curve" smooth="yes"/>
			<point x="279" y="695"/>
			<point x="289" y="709"/>
			<point x="290" y="722" type="curve"/>
			<point x="285" y="734"/>
			<point x="269" y="746"/>
			<point x="238" y="746" type="curve" smooth="yes"/>
			<point x="191" y="746"/>
			<point x="158" y="711"/>
			<point x="126" y="661" type="curve"/>
			<point x="115" y="661" type="line"/>
		</contour>
		<contour>
			<point x="25" y="413" type="line"/>
			<point x="209" y="413" type="line"/>
			<point x="209" y="437" type="line"/>
			<point x="113" y="437" type="line"/>
			<point x="101" y="437" type="line"/>
			<point x="25" y="437" type="line"/>
		</contour>
	</outline>
</glyph>
<glyph name="w.sups" format="2">
	<unicode hex="02B7"/>
	<advance width="594"/>
	<outline>
		<contour>
			<point x="163" y="412" type="line"/>
			<point x="198" y="412" type="line"/>
			<point x="256" y="572" type="line"/>
			<point x="295" y="707" type="line"/>
			<point x="291" y="707" type="line"/>
			<point x="392" y="412" type="line"/>
			<point x="425" y="412" type="line"/>
			<point x="541" y="740" type="line"/>
			<point x="509" y="740" type="line"/>
			<point x="456" y="578" type="line"/>
			<point x="419" y="436" type="line"/>
			<point x="415" y="436" type="line"/>
			<point x="316" y="736" type="line"/>
			<point x="286" y="736" type="line"/>
			<point x="230" y="579" type="line"/>
			<point x="190" y="436" type="line"/>
			<point x="186" y="436" type="line"/>
			<point x="90" y="740" type="line"/>
			<point x="53" y="740" type="line"/>
		</contour>
		<contour>
			<point x="20" y="717" type="line"/>
			<point x="72" y="713" type="line"/>
			<point x="91" y="713" type="line"/>
			<point x="159" y="717" type="line"/>
			<point x="159" y="740" type="line"/>
			<point x="20" y="740" type="line"/>
		</contour>
		<contour>
			<point x="225" y="717" type="line"/>
			<point x="282" y="716" type="line"/>
			<point x="317" y="716" type="line"/>
			<point x="375" y="717" type="line"/>
			<point x="375" y="740" type="line"/>
			<point x="225" y="740" type="line"/>
		</contour>
		<contour>
			<point x="442" y="717" type="line"/>
			<point x="509" y="713" type="line"/>
			<point x="524" y="713" type="line"/>
			<point x="574" y="717" type="line"/>
			<point x="574" y="740" type="line"/>
			<point x="442" y="740" type="line"/>
		</contour>
	</outline>
</glyph>
<glyph name="y.sups" format="2">
	<unicode hex="02B8"/>
	<advance width="388"/>
	<outline>
		<contour>
			<point x="56" y="254" type="curve" smooth="yes"/>
			<point x="128" y="254"/>
			<point x="166" y="306"/>
			<point x="197" y="387" type="curve" smooth="yes"/>
			<point x="339" y="740" type="line"/>
			<point x="311" y="740" type="line"/>
			<point x="192" y="427" type="line"/>
			<point x="173" y="385" type="line" smooth="yes"/>
			<point x="147" y="325"/>
			<point x="124" y="292"/>
			<point x="89" y="272" type="curve"/>
			<point x="71" y="272" type="line"/>
			<point x="88" y="267" type="line"/>
			<point x="73" y="279" type="line" smooth="yes"/>
			<point x="59" y="290"/>
			<point x="47" y="297"/>
			<point x="29" y="297" type="curve" smooth="yes"/>
			<point x="10" y="297"/>
			<point x="2" y="287"/>
			<point x="0" y="277" type="curve"/>
			<point x="3" y="267"/>
			<point x="18" y="254"/>
		</contour>
		<contour>
			<point x="177" y="374" type="line"/>
			<point x="202" y="429" type="line"/>
			<point x="185" y="429" type="line"/>
			<point x="81" y="740" type="line"/>
			<point x="49" y="740" type="line"/>
		</contour>
		<contour>
			<point x="12" y="718" type="line"/>
			<point x="67" y="715" type="line"/>
			<point x="80" y="715" type="line"/>
			<point x="153" y="718" type="line"/>
			<point x="153" y="740" type="line"/>
			<point x="12" y="740" type="line"/>
		</contour>
		<contour>
			<point x="239" y="718" type="line"/>
			<point x="309" y="715" type="line"/>
			<point x="323" y="715" type="line"/>
			<point x="376" y="718" type="line"/>
			<point x="376" y="740" type="line"/>
			<point x="239" y="740" type="line"/>
		</contour>
	</outline>
</glyph>
<glyph name="ringhalfleftmod" format="2">
	<unicode hex="02BF"/>
	<advance width="158"/>
	<outline>
		<contour>
			<point x="28" y="656" type="curve" smooth="yes"/>
			<point x="28" y="600"/>
			<point x="68" y="568"/>
			<point x="126" y="568" type="curve"/>
			<point x="126" y="592" type="line"/>
			<point x="84" y="592"/>
			<point x="60" y="616"/>
			<point x="60" y="656" type="curve" smooth="yes"/>
			<point x="60" y="696"/>
			<point x="84" y="720"/>
			<point x="126" y="720" type="curve"/>
			<point x="126" y="744" type="line"/>
			<point x="68" y="744"/>
			<point x="28" y="712"/>
		</contour>
	</outline>
</glyph>
<glyph name="verticallinemod" format="2">
	<unicode hex="02C8"/>
	<advance width="88"/>
	<outline>
		<contour>
			<point x="30" y="568" type="line"/>
			<point x="58" y="568" type="line"/>
			<point x="64" y="760" type="line"/>
			<point x="24" y="760" type="line"/>
		</contour>
	</outline>
</glyph>
<glyph name="l.sups" format="2">
	<unicode hex="02E1"/>
	<advance width="214"/>
	<outline>
		<contour>
			<point x="25" y="413" type="line"/>
			<point x="189" y="413" type="line"/>
			<point x="189" y="437" type="line"/>
			<point x="113" y="437" type="line"/>
			<point x="101" y="437" type="line"/>
			<point x="25" y="437" type="line"/>
		</contour>
		<contour>
			<point x="93" y="413" type="line"/>
			<point x="121" y="413" type="line"/>
			<point x="121" y="556" type="line"/>
			<point x="121" y="824" type="line"/>
			<point x="121" y="899" type="line"/>
			<point x="108" y="899" type="line"/>
			<point x="20" y="889" type="line"/>
			<point x="20" y="869" type="line"/>
			<point x="93" y="863" type="line"/>
			<point x="93" y="556" type="line"/>
		</contour>
	</outline>
</glyph>
<glyph name="s.sups" format="2">
	<unicode hex="02E2"/>
	<advance width="330"/>
	<outline>
		<contour>
			<point x="156" y="404" type="curve" smooth="yes"/>
			<point x="243" y="404"/>
			<point x="285" y="446"/>
			<point x="285" y="496" type="curve" smooth="yes"/>
			<point x="285" y="545"/>
			<point x="251" y="569"/>
			<point x="182" y="591" type="curve" smooth="yes"/>
			<point x="162" y="597" type="line" smooth="yes"/>
			<point x="109" y="614"/>
			<point x="81" y="631"/>
			<point x="81" y="664" type="curve" smooth="yes"/>
			<point x="81" y="698"/>
			<point x="109" y="725"/>
			<point x="167" y="725" type="curve" smooth="yes"/>
			<point x="203" y="725"/>
			<point x="231" y="717"/>
			<point x="256" y="707" type="curve"/>
			<point x="256" y="725" type="line"/>
			<point x="236" y="725" type="line"/>
			<point x="247" y="653" type="line"/>
			<point x="272" y="653" type="line"/>
			<point x="272" y="729" type="line"/>
			<point x="250" y="737"/>
			<point x="210" y="748"/>
			<point x="167" y="748" type="curve" smooth="yes"/>
			<point x="90" y="748"/>
			<point x="47" y="711"/>
			<point x="47" y="660" type="curve" smooth="yes"/>
			<point x="47" y="611"/>
			<point x="87" y="587"/>
			<point x="151" y="566" type="curve" smooth="yes"/>
			<point x="171" y="560" type="line" smooth="yes"/>
			<point x="229" y="541"/>
			<point x="250" y="524"/>
			<point x="250" y="492" type="curve" smooth="yes"/>
			<point x="250" y="460"/>
			<point x="225" y="427"/>
			<point x="156" y="427" type="curve" smooth="yes"/>
			<point x="111" y="427"/>
			<point x="76" y="438"/>
			<point x="55" y="447" type="curve"/>
			<point x="55" y="427" type="line"/>
			<point x="77" y="427" type="line"/>
			<point x="63" y="504" type="line"/>
			<point x="39" y="504" type="line"/>
			<point x="42" y="423" type="line"/>
			<point x="71" y="413"/>
			<point x="104" y="404"/>
		</contour>
	</outline>
</glyph>
<glyph name="x.sups" format="2">
	<unicode hex="02E3"/>
	<advance width="400"/>
	<outline>
		<contour>
			<point x="21" y="412" type="line"/>
			<point x="161" y="412" type="line"/>
			<point x="161" y="437" type="line"/>
			<point x="95" y="437" type="line"/>
			<point x="81" y="437" type="line"/>
			<point x="21" y="437" type="line"/>
		</contour>
		<contour>
			<point x="53" y="412" type="line"/>
			<point x="86" y="412" type="line"/>
			<point x="189" y="560" type="line"/>
			<point x="204" y="560" type="line"/>
			<point x="187" y="588" type="line"/>
		</contour>
		<contour>
			<point x="229" y="412" type="line"/>
			<point x="379" y="412" type="line"/>
			<point x="379" y="437" type="line"/>
			<point x="318" y="437" type="line"/>
			<point x="298" y="437" type="line"/>
			<point x="229" y="437" type="line"/>
		</contour>
		<contour>
			<point x="213" y="572" type="line"/>
			<point x="342" y="740" type="line"/>
			<point x="309" y="740" type="line"/>
			<point x="210" y="599" type="line"/>
			<point x="194" y="599" type="line"/>
		</contour>
		<contour>
			<point x="307" y="412" type="line"/>
			<point x="349" y="412" type="line"/>
			<point x="209" y="591" type="line"/>
			<point x="96" y="740" type="line"/>
			<point x="55" y="740" type="line"/>
			<point x="189" y="570" type="line"/>
		</contour>
		<contour>
			<point x="25" y="717" type="line"/>
			<point x="87" y="713" type="line"/>
			<point x="104" y="713" type="line"/>
			<point x="174" y="717" type="line"/>
			<point x="174" y="740" type="line"/>
			<point x="25" y="740" type="line"/>
		</contour>
		<contour>
			<point x="233" y="717" type="line"/>
			<point x="299" y="713" type="line"/>
			<point x="311" y="713" type="line"/>
			<point x="372" y="717" type="line"/>
			<point x="372" y="740" type="line"/>
			<point x="233" y="740" type="line"/>
		</contour>
	</outline>
</glyph>
<glyph name="gravecmb" format="2">
	<unicode hex="0300"/>
	<outline>
		<contour>
			<point x="48" y="576" type="line"/>
			<point x="16" y="620"/>
			<point x="-16" y="664"/>
			<point x="-48" y="708" type="curve" smooth="yes"/>
			<point x="-64" y="730"/>
			<point x="-74" y="738"/>
			<point x="-86" y="738" type="curve" smooth="yes"/>
			<point x="-98" y="738"/>
			<point x="-106" y="730"/>
			<point x="-106" y="718" type="curve" smooth="yes"/>
			<point x="-106" y="706"/>
			<point x="-98" y="698"/>
			<point x="-80" y="680" type="curve" smooth="yes"/>
			<point x="-43" y="641"/>
			<point x="-5" y="601"/>
			<point x="32" y="562" type="curve"/>
		</contour>
	</outline>
	<anchor name="_aboveLC" x="0" y="532"/>
	<anchor name="aboveLC" x="0" y="764"/>
</glyph>
<glyph name="acutecmb" format="2">
	<unicode hex="0301"/>
	<outline>
		<contour>
			<point x="-46" y="576" type="curve"/>
			<point x="-30" y="562" type="line"/>
			<point x="7" y="601"/>
			<point x="45" y="641"/>
			<point x="82" y="680" type="curve" smooth="yes"/>
			<point x="100" y="698"/>
			<point x="108" y="706"/>
			<point x="108" y="718" type="curve" smooth="yes"/>
			<point x="108" y="730"/>
			<point x="100" y="738"/>
			<point x="88" y="738" type="curve" smooth="yes"/>
			<point x="76" y="738"/>
			<point x="66" y="730"/>
			<point x="50" y="708" type="curve" smooth="yes"/>
			<point x="18" y="664"/>
			<point x="-14" y="620"/>
		</contour>
	</outline>
	<anchor name="_aboveLC" x="0" y="532"/>
	<anchor name="aboveLC" x="0" y="772"/>
</glyph>
<glyph name="circumflexcmb" format="2">
	<unicode hex="0302"/>
	<outline>
		<contour>
			<point x="102" y="552" type="line"/>
			<point x="120" y="566" type="line"/>
			<point x="10" y="720" type="line"/>
			<point x="-10" y="720" type="line"/>
			<point x="-120" y="566" type="line"/>
			<point x="-102" y="552" type="line"/>
			<point x="8" y="688" type="line"/>
			<point x="-8" y="688" type="line"/>
		</contour>
	</outline>
</glyph>
<glyph name="tildecmb" format="2">
	<unicode hex="0303"/>
	<outline>
		<contour>
			<point x="-152" y="600" type="curve"/>
			<point x="-128" y="596" type="line"/>
			<point x="-116" y="648"/>
			<point x="-100" y="666"/>
			<point x="-70" y="666" type="curve" smooth="yes"/>
			<point x="-44" y="666"/>
			<point x="-28" y="650"/>
			<point x="-8" y="628" type="curve" smooth="yes"/>
			<point x="16" y="602"/>
			<point x="34" y="588"/>
			<point x="68" y="588" type="curve" smooth="yes"/>
			<point x="112" y="588"/>
			<point x="144" y="620"/>
			<point x="152" y="680" type="curve"/>
			<point x="128" y="684" type="line"/>
			<point x="116" y="632"/>
			<point x="100" y="614"/>
			<point x="70" y="614" type="curve" smooth="yes"/>
			<point x="44" y="614"/>
			<point x="28" y="630"/>
			<point x="8" y="652" type="curve" smooth="yes"/>
			<point x="-16" y="678"/>
			<point x="-34" y="692"/>
			<point x="-68" y="692" type="curve" smooth="yes"/>
			<point x="-112" y="692"/>
			<point x="-144" y="660"/>
		</contour>
	</outline>
</glyph>
<glyph name="macroncmb" format="2">
	<unicode hex="0304"/>
	<outline>
		<contour>
			<point x="-120" y="632" type="line"/>
			<point x="120" y="632" type="line"/>
			<point x="120" y="660" type="line"/>
			<point x="-120" y="660" type="line"/>
		</contour>
	</outline>
	<anchor name="_aboveLC" x="0" y="520"/>
	<anchor name="aboveLC" x="0" y="660"/>
</glyph>
<glyph name="brevecmb" format="2">
	<unicode hex="0306"/>
	<outline>
		<contour>
			<point x="-144" y="724" type="line"/>
			<point x="-132" y="644"/>
			<point x="-84" y="584"/>
			<point x="0" y="584" type="curve" smooth="yes"/>
			<point x="84" y="584"/>
			<point x="132" y="644"/>
			<point x="144" y="724" type="curve"/>
			<point x="124" y="728" type="line"/>
			<point x="108" y="660"/>
			<point x="68" y="612"/>
			<point x="0" y="612" type="curve" smooth="yes"/>
			<point x="-68" y="612"/>
			<point x="-108" y="660"/>
			<point x="-124" y="728" type="curve"/>
		</contour>
	</outline>
</glyph>
<glyph name="dotaccentcmb" format="2">
	<unicode hex="0307"/>
	<outline>
		<contour>
			<point x="0" y="620" type="curve" smooth="yes"/>
			<point x="23" y="620"/>
			<point x="38" y="635"/>
			<point x="38" y="656" type="curve" smooth="yes"/>
			<point x="38" y="677"/>
			<point x="23" y="692"/>
			<point x="0" y="692" type="curve" smooth="yes"/>
			<point x="-23" y="692"/>
			<point x="-38" y="677"/>
			<point x="-38" y="656" type="curve" smooth="yes"/>
			<point x="-38" y="635"/>
			<point x="-23" y="620"/>
		</contour>
	</outline>
</glyph>
<glyph name="dieresiscmb" format="2">
	<unicode hex="0308"/>
	<outline>
		<contour>
			<point x="-94" y="640" type="curve" smooth="yes"/>
			<point x="-74" y="640"/>
			<point x="-60" y="654"/>
			<point x="-60" y="674" type="curve" smooth="yes"/>
			<point x="-60" y="694"/>
			<point x="-74" y="708"/>
			<point x="-94" y="708" type="curve" smooth="yes"/>
			<point x="-114" y="708"/>
			<point x="-128" y="694"/>
			<point x="-128" y="674" type="curve" smooth="yes"/>
			<point x="-128" y="654"/>
			<point x="-114" y="640"/>
		</contour>
		<contour>
			<point x="94" y="640" type="curve" smooth="yes"/>
			<point x="114" y="640"/>
			<point x="128" y="654"/>
			<point x="128" y="674" type="curve" smooth="yes"/>
			<point x="128" y="694"/>
			<point x="114" y="708"/>
			<point x="94" y="708" type="curve" smooth="yes"/>
			<point x="74" y="708"/>
			<point x="60" y="694"/>
			<point x="60" y="674" type="curve" smooth="yes"/>
			<point x="60" y="654"/>
			<point x="74" y="640"/>
		</contour>
	</outline>
	<anchor name="_aboveLC" x="0" y="532"/>
	<anchor name="aboveLC" x="0" y="772"/>
</glyph>
<glyph name="hoicmb" format="2">
	<unicode hex="0309"/>
	<outline>
		<contour>
			<point x="-20" y="556" type="line"/>
			<point x="40" y="562"/>
			<point x="76" y="590"/>
			<point x="76" y="640" type="curve" smooth="yes"/>
			<point x="76" y="690"/>
			<point x="40" y="724"/>
			<point x="-32" y="732" type="curve"/>
			<point x="-38" y="704" type="line"/>
			<point x="24" y="696"/>
			<point x="44" y="670"/>
			<point x="44" y="638" type="curve" smooth="yes"/>
			<point x="44" y="606"/>
			<point x="24" y="584"/>
			<point x="-26" y="578" type="curve"/>
		</contour>
	</outline>
	<anchor name="_aboveLC" x="0" y="520"/>
	<anchor name="aboveLC" x="0" y="732"/>
</glyph>
